Bungee-Outline.ufo
<glyph name="plus" format="1">
  <advance width="734"/>
  <unicode hex="002B"/>
  <outline>
    <contour>
      <point x="305.0" y="53" type="curve" smooth="yes"/>
      <point x="429.0" y="53" type="line" smooth="yes"/>
      <point x="462.0" y="53"/>
      <point x="475.0" y="67"/>
      <point x="475.0" y="99" type="curve" smooth="yes"/>
      <point x="475.0" y="257" type="line"/>
      <point x="628.0" y="257" type="line" smooth="yes"/>
      <point x="660.0" y="257"/>
      <point x="674.0" y="270"/>
      <point x="674.0" y="303" type="curve" smooth="yes"/>
      <point x="674.0" y="417" type="line" smooth="yes"/>
      <point x="674.0" y="450"/>
      <point x="660.0" y="463"/>
      <point x="628.0" y="463" type="curve" smooth="yes"/>
      <point x="475.0" y="463" type="line"/>
      <point x="475.0" y="621" type="line" smooth="yes"/>
      <point x="475.0" y="653"/>
      <point x="461.0" y="667"/>
      <point x="429.0" y="667" type="curve" smooth="yes"/>
      <point x="305.0" y="667" type="line" smooth="yes"/>
      <point x="272.0" y="667"/>
      <point x="259.0" y="653"/>
      <point x="259.0" y="621" type="curve" smooth="yes"/>
      <point x="259.0" y="463" type="line"/>
      <point x="106.0" y="463" type="line" smooth="yes"/>
      <point x="74.0" y="463"/>
      <point x="60.0" y="449"/>
      <point x="60.0" y="417" type="curve" smooth="yes"/>
      <point x="60.0" y="303" type="line" smooth="yes"/>
      <point x="60.0" y="270"/>
      <point x="74.0" y="257"/>
      <point x="106.0" y="257" type="curve" smooth="yes"/>
      <point x="259.0" y="257" type="line"/>
      <point x="259.0" y="99" type="line" smooth="yes"/>
      <point x="259.0" y="67"/>
      <point x="272.0" y="53"/>
    </contour>
    <contour>
      <point x="465.0" y="99" type="line" smooth="yes"/>
      <point x="465.0" y="74"/>
      <point x="455.0" y="63"/>
      <point x="429.0" y="63" type="curve" smooth="yes"/>
      <point x="305.0" y="63" type="line" smooth="yes"/>
      <point x="279.0" y="63"/>
      <point x="269.0" y="74"/>
      <point x="269.0" y="99" type="curve" smooth="yes"/>
      <point x="269.0" y="267" type="line"/>
      <point x="106.0" y="267" type="line"/>
      <point x="81.0" y="267"/>
      <point x="70.0" y="277"/>
      <point x="70.0" y="303" type="curve" smooth="yes"/>
      <point x="70.0" y="417" type="line" smooth="yes"/>
      <point x="70.0" y="442"/>
      <point x="81.0" y="453"/>
      <point x="106.0" y="453" type="curve" smooth="yes"/>
      <point x="269.0" y="453" type="line"/>
      <point x="269.0" y="621" type="line"/>
      <point x="269.0" y="646"/>
      <point x="279.0" y="657"/>
      <point x="305.0" y="657" type="curve" smooth="yes"/>
      <point x="429.0" y="657" type="line" smooth="yes"/>
      <point x="454.0" y="657"/>
      <point x="465.0" y="646"/>
      <point x="465.0" y="621" type="curve" smooth="yes"/>
      <point x="465.0" y="453" type="line"/>
      <point x="628.0" y="453" type="line" smooth="yes"/>
      <point x="653.0" y="453"/>
      <point x="664.0" y="443"/>
      <point x="664.0" y="417" type="curve" smooth="yes"/>
      <point x="664.0" y="303" type="line" smooth="yes"/>
      <point x="664.0" y="277"/>
      <point x="653.0" y="267"/>
      <point x="628.0" y="267" type="curve" smooth="yes"/>
      <point x="465.0" y="267" type="line"/>
    </contour>
    <contour>
      <point x="362.0" y="153" type="line"/>
      <point x="372.0" y="153" type="line"/>
      <point x="372.0" y="355" type="line"/>
      <point x="574.0" y="355" type="line"/>
      <point x="574.0" y="365" type="line"/>
      <point x="372.0" y="365" type="line"/>
      <point x="372.0" y="567" type="line"/>
      <point x="362.0" y="567" type="line"/>
      <point x="362.0" y="365" type="line"/>
      <point x="160.0" y="365" type="line"/>
      <point x="160.0" y="355" type="line"/>
      <point x="362.0" y="355" type="line"/>
    </contour>
  </outline>
</glyph>
<glyph name="hyphen" format="1">
  <advance width="420"/>
  <unicode hex="002D"/>
  <outline>
    <contour>
      <point x="344.0" y="247" type="line" smooth="yes"/>
      <point x="376.0" y="247"/>
      <point x="390.0" y="260"/>
      <point x="390.0" y="293" type="curve" smooth="yes"/>
      <point x="390.0" y="427" type="line" smooth="yes"/>
      <point x="390.0" y="460"/>
      <point x="376.0" y="473"/>
      <point x="344.0" y="473" type="curve" smooth="yes"/>
      <point x="76.0" y="473" type="line" smooth="yes"/>
      <point x="44.0" y="473"/>
      <point x="30.0" y="459"/>
      <point x="30.0" y="427" type="curve" smooth="yes"/>
      <point x="30.0" y="293" type="line"/>
      <point x="30.0" y="260"/>
      <point x="44.0" y="247"/>
      <point x="76.0" y="247" type="curve" smooth="yes"/>
    </contour>
    <contour>
      <point x="76.0" y="257" type="line"/>
      <point x="51.0" y="257"/>
      <point x="40.0" y="267"/>
      <point x="40.0" y="293" type="curve" smooth="yes"/>
      <point x="40.0" y="427" type="line" smooth="yes"/>
      <point x="40.0" y="452"/>
      <point x="51.0" y="463"/>
      <point x="76.0" y="463" type="curve" smooth="yes"/>
      <point x="344.0" y="463" type="line" smooth="yes"/>
      <point x="369.0" y="463"/>
      <point x="380.0" y="453"/>
      <point x="380.0" y="427" type="curve" smooth="yes"/>
      <point x="380.0" y="293" type="line" smooth="yes"/>
      <point x="380.0" y="267"/>
      <point x="369.0" y="257"/>
      <point x="344.0" y="257" type="curve" smooth="yes"/>
    </contour>
    <contour>
      <point x="290.0" y="365" type="line"/>
      <point x="130.0" y="365" type="line"/>
      <point x="130.0" y="355" type="line"/>
      <point x="290.0" y="355" type="line"/>
    </contour>
  </outline>
</glyph>
<glyph name="slash" format="1">
  <advance width="347"/>
  <unicode hex="002F"/>
  <outline>
    <contour>
      <point x="41.0" y="-100" type="curve" smooth="yes"/>
      <point x="186.0" y="-100" type="line" smooth="yes"/>
      <point x="217.0" y="-100"/>
      <point x="228.0" y="-87"/>
      <point x="232.0" y="-55" type="curve" smooth="yes"/>
      <point x="352.0" y="773" type="line" smooth="yes"/>
      <point x="356.0" y="805"/>
      <point x="339.0" y="820"/>
      <point x="306.0" y="820" type="curve" smooth="yes"/>
      <point x="161.0" y="820" type="line" smooth="yes"/>
      <point x="130.0" y="820"/>
      <point x="119.0" y="807"/>
      <point x="115.0" y="775" type="curve" smooth="yes"/>
      <point x="-5.0" y="-53" type="line" smooth="yes"/>
      <point x="-9.0" y="-85"/>
      <point x="8.0" y="-100"/>
    </contour>
    <contour>
      <point x="5.0" y="-54" type="curve"/>
      <point x="125.0" y="774" type="line" smooth="yes"/>
      <point x="128.0" y="799"/>
      <point x="136.0" y="810"/>
      <point x="161.0" y="810" type="curve" smooth="yes"/>
      <point x="306.0" y="810" type="line" smooth="yes"/>
      <point x="331.0" y="810"/>
      <point x="345.0" y="799"/>
      <point x="342.0" y="774" type="curve" smooth="yes"/>
      <point x="222.0" y="-54" type="line" smooth="yes"/>
      <point x="219.0" y="-79"/>
      <point x="211.0" y="-90"/>
      <point x="186.0" y="-90" type="curve" smooth="yes"/>
      <point x="41.0" y="-90" type="line" smooth="yes"/>
      <point x="16.0" y="-90"/>
      <point x="2.0" y="-79"/>
    </contour>
    <contour>
      <point x="221.0" y="720" type="line"/>
      <point x="117.0" y="0" type="line"/>
      <point x="127.0" y="0" type="line"/>
      <point x="231.0" y="720" type="line"/>
    </contour>
  </outline>
</glyph>
<glyph name="nine" format="1">
  <advance width="693"/>
  <unicode hex="0039"/>
  <outline>
    <contour>
      <point x="159.0" y="-10" type="curve" smooth="yes"/>
      <point x="389.0" y="-10" type="line" smooth="yes"/>
      <point x="587.0" y="-10"/>
      <point x="645.0" y="78"/>
      <point x="645.0" y="205" type="curve" smooth="yes"/>
      <point x="645.0" y="533" type="line" smooth="yes"/>
      <point x="645.0" y="659"/>
      <point x="593.0" y="745"/>
      <point x="335.0" y="745" type="curve" smooth="yes"/>
      <point x="94.0" y="745"/>
      <point x="37.0" y="659"/>
      <point x="37.0" y="533" type="curve" smooth="yes"/>
      <point x="37.0" y="437" type="line" smooth="yes"/>
      <point x="37.0" y="313"/>
      <point x="91.0" y="247"/>
      <point x="282.0" y="247" type="curve" smooth="yes"/>
      <point x="329.0" y="247"/>
      <point x="368.0" y="251"/>
      <point x="399.0" y="258" type="curve"/>
      <point x="399.0" y="250" type="line" smooth="yes"/>
      <point x="399.0" y="209"/>
      <point x="387.0" y="200"/>
      <point x="346.0" y="200" type="curve" smooth="yes"/>
      <point x="159.0" y="200" type="line" smooth="yes"/>
      <point x="127.0" y="200"/>
      <point x="113.0" y="186"/>
      <point x="113.0" y="154" type="curve" smooth="yes"/>
      <point x="113.0" y="36" type="line" smooth="yes"/>
      <point x="113.0" y="4"/>
      <point x="126.0" y="-10"/>
    </contour>
    <contour>
      <point x="342.0" y="432" type="curve" smooth="yes"/>
      <point x="299.0" y="432"/>
      <point x="283.0" y="441"/>
      <point x="283.0" y="458" type="curve" smooth="yes"/>
      <point x="283.0" y="517" type="line" smooth="yes"/>
      <point x="283.0" y="535"/>
      <point x="298.0" y="544"/>
      <point x="342.0" y="544" type="curve" smooth="yes"/>
      <point x="384.0" y="544"/>
      <point x="399.0" y="535"/>
      <point x="399.0" y="517" type="curve" smooth="yes"/>
      <point x="399.0" y="458" type="line" smooth="yes"/>
      <point x="399.0" y="441"/>
      <point x="384.0" y="432"/>
    </contour>
    <contour>
      <point x="389.0" y="0" type="curve" smooth="yes"/>
      <point x="159.0" y="0" type="line" smooth="yes"/>
      <point x="133.0" y="0"/>
      <point x="123.0" y="11"/>
      <point x="123.0" y="36" type="curve" smooth="yes"/>
      <point x="123.0" y="154" type="line" smooth="yes"/>
      <point x="123.0" y="179"/>
      <point x="134.0" y="190"/>
      <point x="159.0" y="190" type="curve" smooth="yes"/>
      <point x="346.0" y="190" type="line" smooth="yes"/>
      <point x="395.0" y="190"/>
      <point x="409.0" y="201"/>
      <point x="409.0" y="250" type="curve" smooth="yes"/>
      <point x="409.0" y="272" type="line"/>
      <point x="377.0" y="262"/>
      <point x="335.0" y="257"/>
      <point x="282.0" y="257" type="curve" smooth="yes"/>
      <point x="101.0" y="257"/>
      <point x="47.0" y="318"/>
      <point x="47.0" y="437" type="curve" smooth="yes"/>
      <point x="47.0" y="533" type="line" smooth="yes"/>
      <point x="47.0" y="655"/>
      <point x="105.0" y="735"/>
      <point x="335.0" y="735" type="curve" smooth="yes"/>
      <point x="581.0" y="735"/>
      <point x="635.0" y="655"/>
      <point x="635.0" y="533" type="curve" smooth="yes"/>
      <point x="635.0" y="205" type="line" smooth="yes"/>
      <point x="635.0" y="83"/>
      <point x="578.0" y="0"/>
    </contour>
    <contour>
      <point x="409.0" y="458" type="curve" smooth="yes"/>
      <point x="409.0" y="517" type="line" smooth="yes"/>
      <point x="409.0" y="538"/>
      <point x="400.0" y="554"/>
      <point x="342.0" y="554" type="curve" smooth="yes"/>
      <point x="282.0" y="554"/>
      <point x="273.0" y="538"/>
      <point x="273.0" y="517" type="curve" smooth="yes"/>
      <point x="273.0" y="458" type="line" smooth="yes"/>
      <point x="273.0" y="438"/>
      <point x="282.0" y="422"/>
      <point x="342.0" y="422" type="curve" smooth="yes"/>
      <point x="400.0" y="422"/>
      <point x="409.0" y="438"/>
    </contour>
    <contour>
      <point x="213.0" y="90" type="line"/>
      <point x="389.0" y="90" type="line" smooth="yes"/>
      <point x="474.0" y="90"/>
      <point x="523.0" y="116"/>
      <point x="523.0" y="205" type="curve" smooth="yes"/>
      <point x="523.0" y="533" type="line" smooth="yes"/>
      <point x="523.0" y="636"/>
      <point x="440.0" y="649"/>
      <point x="332.0" y="649" type="curve" smooth="yes"/>
      <point x="232.0" y="649"/>
      <point x="155.0" y="634"/>
      <point x="155.0" y="533" type="curve" smooth="yes"/>
      <point x="155.0" y="445" type="line" smooth="yes"/>
      <point x="155.0" y="342"/>
      <point x="231.0" y="337"/>
      <point x="329.0" y="337" type="curve" smooth="yes"/>
      <point x="418.0" y="337"/>
      <point x="489.0" y="340"/>
      <point x="513.0" y="393" type="curve"/>
      <point x="513.0" y="205" type="line" smooth="yes"/>
      <point x="513.0" y="122"/>
      <point x="466.0" y="100"/>
      <point x="389.0" y="100" type="curve" smooth="yes"/>
      <point x="213.0" y="100" type="line"/>
    </contour>
    <contour>
      <point x="329.0" y="347" type="curve" smooth="yes"/>
      <point x="241.0" y="347"/>
      <point x="165.0" y="348"/>
      <point x="165.0" y="445" type="curve" smooth="yes"/>
      <point x="165.0" y="533" type="line" smooth="yes"/>
      <point x="165.0" y="628"/>
      <point x="240.0" y="639"/>
      <point x="332.0" y="639" type="curve" smooth="yes"/>
      <point x="430.0" y="639"/>
      <point x="513.0" y="630"/>
      <point x="513.0" y="533" type="curve" smooth="yes"/>
      <point x="513.0" y="442" type="line"/>
      <point x="513.0" y="345"/>
      <point x="418.0" y="347"/>
    </contour>
  </outline>
</glyph>
<glyph name="greater" format="1">
  <advance width="714"/>
  <unicode hex="003E"/>
  <outline>
    <contour>
      <point x="128.0" y="49" type="curve"/>
      <point x="510.0" y="158" type="line" smooth="yes"/>
      <point x="598.0" y="184"/>
      <point x="644.0" y="218"/>
      <point x="644.0" y="323" type="curve" smooth="yes"/>
      <point x="644.0" y="395" type="line" smooth="yes"/>
      <point x="644.0" y="500"/>
      <point x="598.0" y="534"/>
      <point x="510.0" y="560" type="curve" smooth="yes"/>
      <point x="129.0" y="669" type="line"/>
      <point x="95.0" y="675"/>
      <point x="80.0" y="663"/>
      <point x="80.0" y="628" type="curve" smooth="yes"/>
      <point x="80.0" y="496" type="line" smooth="yes"/>
      <point x="80.0" y="464"/>
      <point x="93.0" y="450"/>
      <point x="124.0" y="445" type="curve"/>
      <point x="123.0" y="445" type="line"/>
      <point x="410.0" y="368" type="line" smooth="yes"/>
      <point x="418.0" y="367"/>
      <point x="420.0" y="365"/>
      <point x="420.0" y="359" type="curve" smooth="yes"/>
      <point x="420.0" y="353"/>
      <point x="418.0" y="351"/>
      <point x="411.0" y="350" type="curve"/>
      <point x="123.0" y="273" type="line"/>
      <point x="124.0" y="273" type="line"/>
      <point x="93.0" y="268"/>
      <point x="80.0" y="254"/>
      <point x="80.0" y="222" type="curve" smooth="yes"/>
      <point x="80.0" y="90" type="line" smooth="yes"/>
      <point x="80.0" y="55"/>
      <point x="95.0" y="43"/>
    </contour>
    <contour>
      <point x="507.0" y="168" type="curve"/>
      <point x="126.0" y="59" type="line" smooth="yes"/>
      <point x="101.0" y="54"/>
      <point x="90.0" y="64"/>
      <point x="90.0" y="90" type="curve" smooth="yes"/>
      <point x="90.0" y="222" type="line" smooth="yes"/>
      <point x="90.0" y="248"/>
      <point x="101.0" y="259"/>
      <point x="126.0" y="263" type="curve" smooth="yes"/>
      <point x="413.0" y="340" type="line" smooth="yes"/>
      <point x="427.0" y="343"/>
      <point x="430.0" y="347"/>
      <point x="430.0" y="359" type="curve" smooth="yes"/>
      <point x="430.0" y="371"/>
      <point x="427.0" y="375"/>
      <point x="413.0" y="378" type="curve" smooth="yes"/>
      <point x="126.0" y="455" type="line" smooth="yes"/>
      <point x="101.0" y="459"/>
      <point x="90.0" y="470"/>
      <point x="90.0" y="496" type="curve" smooth="yes"/>
      <point x="90.0" y="628" type="line" smooth="yes"/>
      <point x="90.0" y="654"/>
      <point x="101.0" y="664"/>
      <point x="126.0" y="659" type="curve" smooth="yes"/>
      <point x="507.0" y="550" type="line" smooth="yes"/>
      <point x="590.0" y="526"/>
      <point x="634.0" y="494"/>
      <point x="634.0" y="395" type="curve" smooth="yes"/>
      <point x="634.0" y="323" type="line" smooth="yes"/>
      <point x="634.0" y="224"/>
      <point x="590.0" y="192"/>
    </contour>
    <contour>
      <point x="480.0" y="252" type="line" smooth="yes"/>
      <point x="514.0" y="262"/>
      <point x="538.0" y="279"/>
      <point x="538.0" y="323" type="curve" smooth="yes"/>
      <point x="538.0" y="395" type="line" smooth="yes"/>
      <point x="538.0" y="439"/>
      <point x="514.0" y="453"/>
      <point x="480.0" y="463" type="curve" smooth="yes"/>
      <point x="180.0" y="549" type="line"/>
      <point x="180.0" y="539" type="line"/>
      <point x="478.0" y="453" type="line" smooth="yes"/>
      <point x="506.0" y="445"/>
      <point x="528.0" y="433"/>
      <point x="528.0" y="395" type="curve" smooth="yes"/>
      <point x="528.0" y="323" type="line" smooth="yes"/>
      <point x="528.0" y="285"/>
      <point x="506.0" y="270"/>
      <point x="478.0" y="262" type="curve" smooth="yes"/>
      <point x="180.0" y="176" type="line"/>
      <point x="180.0" y="166" type="line"/>
    </contour>
  </outline>
</glyph>
<glyph name="question" format="1">
  <advance width="656"/>
  <unicode hex="003F"/>
  <outline>
    <contour>
      <point x="186.0" y="226" type="curve" smooth="yes"/>
      <point x="457.0" y="263" type="line" smooth="yes"/>
      <point x="558.0" y="277"/>
      <point x="621.0" y="321"/>
      <point x="621.0" y="439" type="curve" smooth="yes"/>
      <point x="621.0" y="544" type="line" smooth="yes"/>
      <point x="621.0" y="664"/>
      <point x="541.0" y="730"/>
      <point x="404.0" y="730" type="curve" smooth="yes"/>
      <point x="81.0" y="730" type="line" smooth="yes"/>
      <point x="49.0" y="730"/>
      <point x="35.0" y="716"/>
      <point x="35.0" y="684" type="curve" smooth="yes"/>
      <point x="35.0" y="563" type="line" smooth="yes"/>
      <point x="35.0" y="530"/>
      <point x="49.0" y="517"/>
      <point x="81.0" y="517" type="curve" smooth="yes"/>
      <point x="357.0" y="517" type="line" smooth="yes"/>
      <point x="368.0" y="517"/>
      <point x="374.0" y="511"/>
      <point x="374.0" y="499" type="curve" smooth="yes"/>
      <point x="374.0" y="485"/>
      <point x="369.0" y="480"/>
      <point x="356.0" y="478" type="curve" smooth="yes"/>
      <point x="157.0" y="450" type="line" smooth="yes"/>
      <point x="125.0" y="446"/>
      <point x="110.0" y="430"/>
      <point x="115.0" y="397" type="curve" smooth="yes"/>
      <point x="136.0" y="265" type="line" smooth="yes"/>
      <point x="141.0" y="233"/>
      <point x="154.0" y="222"/>
    </contour>
    <contour>
      <point x="390.0" y="36" type="curve" smooth="yes"/>
      <point x="390.0" y="167" type="line" smooth="yes"/>
      <point x="390.0" y="200"/>
      <point x="376.0" y="213"/>
      <point x="344.0" y="213" type="curve" smooth="yes"/>
      <point x="161.0" y="213" type="line" smooth="yes"/>
      <point x="128.0" y="213"/>
      <point x="115.0" y="200"/>
      <point x="115.0" y="167" type="curve" smooth="yes"/>
      <point x="115.0" y="36" type="line" smooth="yes"/>
      <point x="115.0" y="4"/>
      <point x="128.0" y="-10"/>
      <point x="161.0" y="-10" type="curve" smooth="yes"/>
      <point x="344.0" y="-10" type="line" smooth="yes"/>
      <point x="376.0" y="-10"/>
      <point x="390.0" y="4"/>
    </contour>
    <contour>
      <point x="456.0" y="273" type="curve" smooth="yes"/>
      <point x="185.0" y="236" type="line" smooth="yes"/>
      <point x="160.0" y="233"/>
      <point x="150.0" y="242"/>
      <point x="146.0" y="267" type="curve" smooth="yes"/>
      <point x="125.0" y="399" type="line" smooth="yes"/>
      <point x="121.0" y="425"/>
      <point x="133.0" y="437"/>
      <point x="158.0" y="440" type="curve" smooth="yes"/>
      <point x="357.0" y="468" type="line" smooth="yes"/>
      <point x="377.0" y="471"/>
      <point x="384.0" y="479"/>
      <point x="384.0" y="499" type="curve" smooth="yes"/>
      <point x="384.0" y="518"/>
      <point x="374.0" y="527"/>
      <point x="357.0" y="527" type="curve" smooth="yes"/>
      <point x="81.0" y="527" type="line" smooth="yes"/>
      <point x="56.0" y="527"/>
      <point x="45.0" y="537"/>
      <point x="45.0" y="563" type="curve" smooth="yes"/>
      <point x="45.0" y="684" type="line"/>
      <point x="45.0" y="709"/>
      <point x="56.0" y="720"/>
      <point x="81.0" y="720" type="curve" smooth="yes"/>
      <point x="404.0" y="720" type="line" smooth="yes"/>
      <point x="534.0" y="720"/>
      <point x="611.0" y="658"/>
      <point x="611.0" y="544" type="curve" smooth="yes"/>
      <point x="611.0" y="439" type="line" smooth="yes"/>
      <point x="611.0" y="327"/>
      <point x="551.0" y="286"/>
    </contour>
    <contour>
      <point x="344.0" y="0" type="curve" smooth="yes"/>
      <point x="161.0" y="0" type="line" smooth="yes"/>
      <point x="135.0" y="0"/>
      <point x="125.0" y="11"/>
      <point x="125.0" y="36" type="curve" smooth="yes"/>
      <point x="125.0" y="167" type="line" smooth="yes"/>
      <point x="125.0" y="193"/>
      <point x="135.0" y="203"/>
      <point x="161.0" y="203" type="curve" smooth="yes"/>
      <point x="344.0" y="203" type="line" smooth="yes"/>
      <point x="369.0" y="203"/>
      <point x="380.0" y="193"/>
      <point x="380.0" y="167" type="curve" smooth="yes"/>
      <point x="380.0" y="36" type="line" smooth="yes"/>
      <point x="380.0" y="11"/>
      <point x="369.0" y="0"/>
    </contour>
    <contour>
      <point x="225.0" y="340" type="line"/>
      <point x="441.0" y="370" type="line" smooth="yes"/>
      <point x="472.0" y="374"/>
      <point x="498.0" y="383"/>
      <point x="498.0" y="424" type="curve" smooth="yes"/>
      <point x="498.0" y="537" type="line" smooth="yes"/>
      <point x="498.0" y="610"/>
      <point x="450.0" y="628"/>
      <point x="404.0" y="628" type="curve" smooth="yes"/>
      <point x="135.0" y="628" type="line"/>
      <point x="135.0" y="618" type="line"/>
      <point x="404.0" y="618" type="line" smooth="yes"/>
      <point x="445.0" y="618"/>
      <point x="488.0" y="602"/>
      <point x="488.0" y="537" type="curve" smooth="yes"/>
      <point x="488.0" y="424" type="line" smooth="yes"/>
      <point x="488.0" y="389"/>
      <point x="464.0" y="384"/>
      <point x="439.0" y="380" type="curve" smooth="yes"/>
      <point x="223.0" y="351" type="line"/>
    </contour>
    <contour>
      <point x="248.0" y="80" type="line"/>
      <point x="258.0" y="80" type="line"/>
      <point x="258.0" y="123" type="line"/>
      <point x="248.0" y="123" type="line"/>
    </contour>
  </outline>
</glyph>
<glyph name="A" format="1">
  <advance width="730"/>
  <unicode hex="0041"/>
  <outline>
    <contour>
      <point x="383.0" y="507" type="line"/>
      <point x="426.0" y="368" type="line"/>
      <point x="297.0" y="368" type="line"/>
      <point x="340.0" y="507" type="line"/>
      <point x="339.0" y="506" type="line"/>
      <point x="342.0" y="512"/>
      <point x="344.0" y="517"/>
      <point x="349.0" y="517" type="curve" smooth="yes"/>
      <point x="374.0" y="517" type="line" smooth="yes"/>
      <point x="379.0" y="517"/>
      <point x="381.0" y="512"/>
      <point x="384.0" y="506" type="curve"/>
    </contour>
    <contour>
      <point x="90.0" y="-10" type="curve" smooth="yes"/>
      <point x="237.0" y="-10" type="line" smooth="yes"/>
      <point x="269.0" y="-10"/>
      <point x="283.0" y="4"/>
      <point x="283.0" y="36" type="curve" smooth="yes"/>
      <point x="283.0" y="166" type="line"/>
      <point x="440.0" y="166" type="line"/>
      <point x="440.0" y="36" type="line" smooth="yes"/>
      <point x="440.0" y="5"/>
      <point x="455.0" y="-10"/>
      <point x="489.0" y="-10" type="curve" smooth="yes"/>
      <point x="640.0" y="-10" type="line" smooth="yes"/>
      <point x="672.0" y="-10"/>
      <point x="686.0" y="4"/>
      <point x="686.0" y="36" type="curve" smooth="yes"/>
      <point x="686.0" y="300" type="line" smooth="yes"/>
      <point x="686.0" y="341"/>
      <point x="674.0" y="392"/>
      <point x="646.0" y="464" type="curve" smooth="yes"/>
      <point x="559.0" y="691" type="line" smooth="yes"/>
      <point x="550.0" y="718"/>
      <point x="531.0" y="730"/>
      <point x="500.0" y="730" type="curve" smooth="yes"/>
      <point x="231.0" y="730" type="line" smooth="yes"/>
      <point x="199.0" y="730"/>
      <point x="180.0" y="718"/>
      <point x="171.0" y="690" type="curve" smooth="yes"/>
      <point x="84.0" y="464" type="line" smooth="yes"/>
      <point x="56.0" y="392"/>
      <point x="44.0" y="341"/>
      <point x="44.0" y="300" type="curve" smooth="yes"/>
      <point x="44.0" y="36" type="line" smooth="yes"/>
      <point x="44.0" y="4"/>
      <point x="58.0" y="-10"/>
    </contour>
    <contour>
      <point x="330.0" y="510" type="curve"/>
      <point x="283.0" y="358" type="line"/>
      <point x="440.0" y="358" type="line"/>
      <point x="393.0" y="510" type="line"/>
      <point x="388.0" y="522"/>
      <point x="382.0" y="527"/>
      <point x="374.0" y="527" type="curve" smooth="yes"/>
      <point x="349.0" y="527" type="line" smooth="yes"/>
      <point x="341.0" y="527"/>
      <point x="335.0" y="522"/>
    </contour>
    <contour>
      <point x="273.0" y="36" type="line" smooth="yes"/>
      <point x="273.0" y="11"/>
      <point x="262.0" y="0"/>
      <point x="237.0" y="0" type="curve" smooth="yes"/>
      <point x="90.0" y="0" type="line" smooth="yes"/>
      <point x="65.0" y="0"/>
      <point x="54.0" y="11"/>
      <point x="54.0" y="36" type="curve" smooth="yes"/>
      <point x="54.0" y="300" type="line" smooth="yes"/>
      <point x="54.0" y="340"/>
      <point x="66.0" y="390"/>
      <point x="93.0" y="460" type="curve" smooth="yes"/>
      <point x="180.0" y="687" type="line" smooth="yes"/>
      <point x="188.0" y="710"/>
      <point x="204.0" y="720"/>
      <point x="231.0" y="720" type="curve" smooth="yes"/>
      <point x="500.0" y="720" type="line" smooth="yes"/>
      <point x="526.0" y="720"/>
      <point x="542.0" y="710"/>
      <point x="550.0" y="687" type="curve" smooth="yes"/>
      <point x="637.0" y="460" type="line" smooth="yes"/>
      <point x="664.0" y="390"/>
      <point x="676.0" y="340"/>
      <point x="676.0" y="300" type="curve" smooth="yes"/>
      <point x="676.0" y="36" type="line" smooth="yes"/>
      <point x="676.0" y="11"/>
      <point x="665.0" y="0"/>
      <point x="640.0" y="0" type="curve" smooth="yes"/>
      <point x="489.0" y="0" type="line" smooth="yes"/>
      <point x="462.0" y="0"/>
      <point x="450.0" y="11"/>
      <point x="450.0" y="36" type="curve" smooth="yes"/>
      <point x="450.0" y="176" type="line"/>
      <point x="273.0" y="176" type="line"/>
    </contour>
    <contour>
      <point x="170.0" y="303" type="line"/>
      <point x="170.0" y="339"/>
      <point x="176.0" y="369"/>
      <point x="186.0" y="396" type="curve"/>
      <point x="250.0" y="560" type="line"/>
      <point x="263.0" y="594"/>
      <point x="274.0" y="620"/>
      <point x="314.0" y="620" type="curve" smooth="yes"/>
      <point x="412.0" y="620" type="line" smooth="yes"/>
      <point x="449.0" y="620"/>
      <point x="460.0" y="594"/>
      <point x="475.0" y="559" type="curve"/>
      <point x="544.0" y="396" type="line"/>
      <point x="554.0" y="369"/>
      <point x="560.0" y="339"/>
      <point x="560.0" y="303" type="curve"/>
      <point x="560.0" y="272" type="line"/>
      <point x="170.0" y="272" type="line"/>
    </contour>
    <contour>
      <point x="560.0" y="90" type="line"/>
      <point x="570.0" y="90" type="line"/>
      <point x="570.0" y="303" type="line" smooth="yes"/>
      <point x="570.0" y="340"/>
      <point x="564.0" y="371"/>
      <point x="553.0" y="400" type="curve" smooth="yes"/>
      <point x="484.0" y="563" type="line" smooth="yes"/>
      <point x="468.0" y="602"/>
      <point x="456.0" y="630"/>
      <point x="412.0" y="630" type="curve" smooth="yes"/>
      <point x="314.0" y="630" type="line" smooth="yes"/>
      <point x="268.0" y="630"/>
      <point x="256.0" y="601"/>
      <point x="241.0" y="564" type="curve" smooth="yes"/>
      <point x="177.0" y="400" type="line"/>
      <point x="166.0" y="371"/>
      <point x="160.0" y="340"/>
      <point x="160.0" y="303" type="curve" smooth="yes"/>
      <point x="160.0" y="90" type="line"/>
      <point x="170.0" y="90" type="line"/>
      <point x="170.0" y="262" type="line"/>
      <point x="560.0" y="262" type="line"/>
    </contour>
  </outline>
</glyph>
<glyph name="G" format="1">
  <advance width="708"/>
  <unicode hex="0047"/>
  <outline>
    <contour>
      <point x="304.0" y="-10" type="curve" smooth="yes"/>
      <point x="619.0" y="-10" type="line" smooth="yes"/>
      <point x="651.0" y="-10"/>
      <point x="665.0" y="4"/>
      <point x="665.0" y="36" type="curve" smooth="yes"/>
      <point x="665.0" y="345" type="line" smooth="yes"/>
      <point x="665.0" y="377"/>
      <point x="651.0" y="391"/>
      <point x="619.0" y="391" type="curve" smooth="yes"/>
      <point x="464.0" y="391" type="line" smooth="yes"/>
      <point x="432.0" y="391"/>
      <point x="418.0" y="377"/>
      <point x="418.0" y="345" type="curve" smooth="yes"/>
      <point x="418.0" y="199" type="line"/>
      <point x="331.0" y="199" type="line" smooth="yes"/>
      <point x="306.0" y="199"/>
      <point x="295.0" y="211"/>
      <point x="295.0" y="238" type="curve" smooth="yes"/>
      <point x="295.0" y="477" type="line" smooth="yes"/>
      <point x="295.0" y="505"/>
      <point x="312.0" y="517"/>
      <point x="346.0" y="517" type="curve" smooth="yes"/>
      <point x="554.0" y="517" type="line" smooth="yes"/>
      <point x="586.0" y="517"/>
      <point x="600.0" y="531"/>
      <point x="600.0" y="563" type="curve" smooth="yes"/>
      <point x="600.0" y="684" type="line" smooth="yes"/>
      <point x="600.0" y="716"/>
      <point x="586.0" y="730"/>
      <point x="554.0" y="730" type="curve" smooth="yes"/>
      <point x="304.0" y="730" type="line" smooth="yes"/>
      <point x="128.0" y="730"/>
      <point x="48.0" y="661"/>
      <point x="48.0" y="516" type="curve" smooth="yes"/>
      <point x="48.0" y="204" type="line" smooth="yes"/>
      <point x="48.0" y="59"/>
      <point x="128.0" y="-10"/>
    </contour>
    <contour>
      <point x="619.0" y="0" type="curve" smooth="yes"/>
      <point x="304.0" y="0" type="line" smooth="yes"/>
      <point x="136.0" y="0"/>
      <point x="58.0" y="65"/>
      <point x="58.0" y="204" type="curve" smooth="yes"/>
      <point x="58.0" y="516" type="line" smooth="yes"/>
      <point x="58.0" y="655"/>
      <point x="136.0" y="720"/>
      <point x="304.0" y="720" type="curve" smooth="yes"/>
      <point x="554.0" y="720" type="line" smooth="yes"/>
      <point x="579.0" y="720"/>
      <point x="590.0" y="709"/>
      <point x="590.0" y="684" type="curve" smooth="yes"/>
      <point x="590.0" y="563" type="line" smooth="yes"/>
      <point x="590.0" y="538"/>
      <point x="579.0" y="527"/>
      <point x="554.0" y="527" type="curve" smooth="yes"/>
      <point x="346.0" y="527" type="line" smooth="yes"/>
      <point x="304.0" y="527"/>
      <point x="285.0" y="511"/>
      <point x="285.0" y="477" type="curve" smooth="yes"/>
      <point x="285.0" y="238" type="line" smooth="yes"/>
      <point x="285.0" y="204"/>
      <point x="300.0" y="189"/>
      <point x="331.0" y="189" type="curve" smooth="yes"/>
      <point x="428.0" y="189" type="line"/>
      <point x="428.0" y="345" type="line" smooth="yes"/>
      <point x="428.0" y="370"/>
      <point x="439.0" y="381"/>
      <point x="464.0" y="381" type="curve" smooth="yes"/>
      <point x="619.0" y="381" type="line" smooth="yes"/>
      <point x="644.0" y="381"/>
      <point x="655.0" y="370"/>
      <point x="655.0" y="345" type="curve" smooth="yes"/>
      <point x="655.0" y="36" type="line" smooth="yes"/>
      <point x="655.0" y="11"/>
      <point x="644.0" y="0"/>
    </contour>
    <contour>
      <point x="347.0" y="90" type="curve" smooth="yes"/>
      <point x="546.0" y="90" type="line"/>
      <point x="546.0" y="291" type="line"/>
      <point x="536.0" y="291" type="line"/>
      <point x="536.0" y="100" type="line"/>
      <point x="347.0" y="100" type="line" smooth="yes"/>
      <point x="212.0" y="100"/>
      <point x="177.0" y="132"/>
      <point x="177.0" y="219" type="curve" smooth="yes"/>
      <point x="177.0" y="499" type="line" smooth="yes"/>
      <point x="177.0" y="588"/>
      <point x="209.0" y="620"/>
      <point x="327.0" y="620" type="curve" smooth="yes"/>
      <point x="500.0" y="620" type="line"/>
      <point x="500.0" y="630" type="line"/>
      <point x="327.0" y="630" type="line" smooth="yes"/>
      <point x="199.0" y="630"/>
      <point x="167.0" y="594"/>
      <point x="167.0" y="499" type="curve" smooth="yes"/>
      <point x="167.0" y="219" type="line" smooth="yes"/>
      <point x="167.0" y="126"/>
      <point x="200.0" y="90"/>
    </contour>
  </outline>
</glyph>
<glyph name="I" format="1">
  <advance width="605"/>
  <unicode hex="0049"/>
  <outline>
    <contour>
      <point x="89.0" y="-10" type="curve" smooth="yes"/>
      <point x="515.0" y="-10" type="line" smooth="yes"/>
      <point x="547.0" y="-10"/>
      <point x="561.0" y="4"/>
      <point x="561.0" y="36" type="curve" smooth="yes"/>
      <point x="561.0" y="155" type="line" smooth="yes"/>
      <point x="561.0" y="187"/>
      <point x="547.0" y="201"/>
      <point x="515.0" y="201" type="curve" smooth="yes"/>
      <point x="428.0" y="201" type="line"/>
      <point x="428.0" y="517" type="line"/>
      <point x="515.0" y="517" type="line" smooth="yes"/>
      <point x="547.0" y="517"/>
      <point x="561.0" y="531"/>
      <point x="561.0" y="563" type="curve" smooth="yes"/>
      <point x="561.0" y="684" type="line" smooth="yes"/>
      <point x="561.0" y="716"/>
      <point x="547.0" y="730"/>
      <point x="515.0" y="730" type="curve" smooth="yes"/>
      <point x="89.0" y="730" type="line" smooth="yes"/>
      <point x="57.0" y="730"/>
      <point x="43.0" y="716"/>
      <point x="43.0" y="684" type="curve" smooth="yes"/>
      <point x="43.0" y="563" type="line" smooth="yes"/>
      <point x="43.0" y="531"/>
      <point x="57.0" y="517"/>
      <point x="89.0" y="517" type="curve" smooth="yes"/>
      <point x="178.0" y="517" type="line"/>
      <point x="178.0" y="201" type="line"/>
      <point x="89.0" y="201" type="line" smooth="yes"/>
      <point x="57.0" y="201"/>
      <point x="43.0" y="187"/>
      <point x="43.0" y="155" type="curve" smooth="yes"/>
      <point x="43.0" y="36" type="line" smooth="yes"/>
      <point x="43.0" y="4"/>
      <point x="57.0" y="-10"/>
    </contour>
    <contour>
      <point x="89.0" y="0" type="line" smooth="yes"/>
      <point x="64.0" y="0"/>
      <point x="53.0" y="11"/>
      <point x="53.0" y="36" type="curve" smooth="yes"/>
      <point x="53.0" y="155" type="line" smooth="yes"/>
      <point x="53.0" y="180"/>
      <point x="64.0" y="191"/>
      <point x="89.0" y="191" type="curve" smooth="yes"/>
      <point x="188.0" y="191" type="line"/>
      <point x="188.0" y="527" type="line"/>
      <point x="89.0" y="527" type="line" smooth="yes"/>
      <point x="64.0" y="527"/>
      <point x="53.0" y="538"/>
      <point x="53.0" y="563" type="curve" smooth="yes"/>
      <point x="53.0" y="684" type="line" smooth="yes"/>
      <point x="53.0" y="709"/>
      <point x="64.0" y="720"/>
      <point x="89.0" y="720" type="curve" smooth="yes"/>
      <point x="515.0" y="720" type="line" smooth="yes"/>
      <point x="540.0" y="720"/>
      <point x="551.0" y="709"/>
      <point x="551.0" y="684" type="curve" smooth="yes"/>
      <point x="551.0" y="563" type="line" smooth="yes"/>
      <point x="551.0" y="538"/>
      <point x="540.0" y="527"/>
      <point x="515.0" y="527" type="curve" smooth="yes"/>
      <point x="418.0" y="527" type="line"/>
      <point x="418.0" y="191" type="line"/>
      <point x="515.0" y="191" type="line" smooth="yes"/>
      <point x="540.0" y="191"/>
      <point x="551.0" y="180"/>
      <point x="551.0" y="155" type="curve" smooth="yes"/>
      <point x="551.0" y="36" type="line" smooth="yes"/>
      <point x="551.0" y="11"/>
      <point x="540.0" y="0"/>
      <point x="515.0" y="0" type="curve" smooth="yes"/>
    </contour>
    <contour>
      <point x="461.0" y="90" type="line"/>
      <point x="461.0" y="100" type="line"/>
      <point x="308.0" y="100" type="line"/>
      <point x="308.0" y="620" type="line"/>
      <point x="461.0" y="620" type="line"/>
      <point x="461.0" y="630" type="line"/>
      <point x="143.0" y="630" type="line"/>
      <point x="143.0" y="620" type="line"/>
      <point x="298.0" y="620" type="line"/>
      <point x="298.0" y="100" type="line"/>
      <point x="143.0" y="100" type="line"/>
      <point x="143.0" y="90" type="line"/>
    </contour>
  </outline>
</glyph>
<glyph name="M" format="1">
  <advance width="849"/>
  <unicode hex="004D"/>
  <outline>
    <contour>
      <point x="254.0" y="-10" type="line" smooth="yes"/>
      <point x="286.0" y="-10"/>
      <point x="300.0" y="4"/>
      <point x="300.0" y="36" type="curve" smooth="yes"/>
      <point x="300.0" y="348" type="line"/>
      <point x="340.0" y="274" type="line" smooth="yes"/>
      <point x="354.0" y="248"/>
      <point x="372.0" y="237"/>
      <point x="402.0" y="237" type="curve" smooth="yes"/>
      <point x="442.0" y="237" type="line" smooth="yes"/>
      <point x="472.0" y="237"/>
      <point x="490.0" y="248"/>
      <point x="504.0" y="274" type="curve" smooth="yes"/>
      <point x="544.0" y="348" type="line"/>
      <point x="544.0" y="36" type="line" smooth="yes"/>
      <point x="544.0" y="4"/>
      <point x="557.0" y="-10"/>
      <point x="590.0" y="-10" type="curve" smooth="yes"/>
      <point x="744.0" y="-10" type="line" smooth="yes"/>
      <point x="776.0" y="-10"/>
      <point x="790.0" y="4"/>
      <point x="790.0" y="36" type="curve" smooth="yes"/>
      <point x="790.0" y="684" type="line" smooth="yes"/>
      <point x="790.0" y="716"/>
      <point x="776.0" y="730"/>
      <point x="744.0" y="730" type="curve" smooth="yes"/>
      <point x="582.0" y="730" type="line" smooth="yes"/>
      <point x="557.0" y="730"/>
      <point x="542.0" y="721"/>
      <point x="527.0" y="695" type="curve" smooth="yes"/>
      <point x="438.0" y="532" type="line" smooth="yes"/>
      <point x="435.0" y="526"/>
      <point x="434.0" y="520"/>
      <point x="429.0" y="520" type="curve" smooth="yes"/>
      <point x="420.0" y="520" type="line" smooth="yes"/>
      <point x="415.0" y="520"/>
      <point x="414.0" y="526"/>
      <point x="411.0" y="532" type="curve" smooth="yes"/>
      <point x="321.0" y="695" type="line" smooth="yes"/>
      <point x="306.0" y="721"/>
      <point x="291.0" y="730"/>
      <point x="266.0" y="730" type="curve" smooth="yes"/>
      <point x="105.0" y="730" type="line" smooth="yes"/>
      <point x="73.0" y="730"/>
      <point x="59.0" y="716"/>
      <point x="59.0" y="684" type="curve" smooth="yes"/>
      <point x="59.0" y="36" type="line" smooth="yes"/>
      <point x="59.0" y="4"/>
      <point x="73.0" y="-10"/>
      <point x="105.0" y="-10" type="curve" smooth="yes"/>
    </contour>
    <contour>
      <point x="254.0" y="0" type="curve" smooth="yes"/>
      <point x="105.0" y="0" type="line" smooth="yes"/>
      <point x="80.0" y="0"/>
      <point x="69.0" y="11"/>
      <point x="69.0" y="36" type="curve" smooth="yes"/>
      <point x="69.0" y="684" type="line" smooth="yes"/>
      <point x="69.0" y="709"/>
      <point x="80.0" y="720"/>
      <point x="105.0" y="720" type="curve" smooth="yes"/>
      <point x="266.0" y="720" type="line" smooth="yes"/>
      <point x="287.0" y="720"/>
      <point x="300.0" y="712"/>
      <point x="312.0" y="690" type="curve" smooth="yes"/>
      <point x="402.0" y="527" type="line" smooth="yes"/>
      <point x="409.0" y="515"/>
      <point x="412.0" y="510"/>
      <point x="420.0" y="510" type="curve" smooth="yes"/>
      <point x="429.0" y="510" type="line" smooth="yes"/>
      <point x="437.0" y="510"/>
      <point x="440.0" y="515"/>
      <point x="447.0" y="527" type="curve" smooth="yes"/>
      <point x="536.0" y="690" type="line" smooth="yes"/>
      <point x="548.0" y="712"/>
      <point x="561.0" y="720"/>
      <point x="582.0" y="720" type="curve" smooth="yes"/>
      <point x="744.0" y="720" type="line" smooth="yes"/>
      <point x="769.0" y="720"/>
      <point x="780.0" y="709"/>
      <point x="780.0" y="684" type="curve" smooth="yes"/>
      <point x="780.0" y="36" type="line" smooth="yes"/>
      <point x="780.0" y="11"/>
      <point x="769.0" y="0"/>
      <point x="744.0" y="0" type="curve" smooth="yes"/>
      <point x="590.0" y="0" type="line" smooth="yes"/>
      <point x="564.0" y="0"/>
      <point x="554.0" y="11"/>
      <point x="554.0" y="36" type="curve" smooth="yes"/>
      <point x="554.0" y="388" type="line"/>
      <point x="495.0" y="279" type="line" smooth="yes"/>
      <point x="483.0" y="256"/>
      <point x="468.0" y="247"/>
      <point x="442.0" y="247" type="curve" smooth="yes"/>
      <point x="402.0" y="247" type="line" smooth="yes"/>
      <point x="376.0" y="247"/>
      <point x="361.0" y="256"/>
      <point x="349.0" y="279" type="curve" smooth="yes"/>
      <point x="290.0" y="388" type="line"/>
      <point x="290.0" y="36" type="line" smooth="yes"/>
      <point x="290.0" y="11"/>
      <point x="279.0" y="0"/>
    </contour>
    <contour>
      <point x="421.0" y="385" type="curve"/>
      <point x="397.0" y="385"/>
      <point x="393.0" y="392"/>
      <point x="370.0" y="427" type="curve" smooth="yes"/>
      <point x="248.0" y="613" type="line" smooth="yes"/>
      <point x="240.0" y="626"/>
      <point x="229.0" y="630"/>
      <point x="218.0" y="630" type="curve" smooth="yes"/>
      <point x="201.0" y="630" type="line" smooth="yes"/>
      <point x="183.0" y="630"/>
      <point x="175.0" y="621"/>
      <point x="175.0" y="599" type="curve" smooth="yes"/>
      <point x="175.0" y="90" type="line"/>
      <point x="185.0" y="90" type="line"/>
      <point x="185.0" y="599" type="line" smooth="yes"/>
      <point x="185.0" y="610"/>
      <point x="187.0" y="620"/>
      <point x="201.0" y="620" type="curve" smooth="yes"/>
      <point x="216.0" y="620" type="line" smooth="yes"/>
      <point x="225.0" y="620"/>
      <point x="232.0" y="619"/>
      <point x="240.0" y="606" type="curve" smooth="yes"/>
      <point x="362.0" y="422" type="line" smooth="yes"/>
      <point x="386.0" y="386"/>
      <point x="392.0" y="375"/>
      <point x="421.0" y="375" type="curve"/>
      <point x="450.0" y="375"/>
      <point x="456.0" y="386"/>
      <point x="480.0" y="422" type="curve" smooth="yes"/>
      <point x="602.0" y="606" type="line" smooth="yes"/>
      <point x="610.0" y="619"/>
      <point x="616.0" y="620"/>
      <point x="625.0" y="620" type="curve" smooth="yes"/>
      <point x="640.0" y="620" type="line" smooth="yes"/>
      <point x="654.0" y="620"/>
      <point x="657.0" y="610"/>
      <point x="657.0" y="599" type="curve" smooth="yes"/>
      <point x="657.0" y="90" type="line"/>
      <point x="667.0" y="90" type="line"/>
      <point x="667.0" y="599" type="line" smooth="yes"/>
      <point x="667.0" y="621"/>
      <point x="659.0" y="630"/>
      <point x="640.0" y="630" type="curve" smooth="yes"/>
      <point x="623.0" y="630" type="line" smooth="yes"/>
      <point x="612.0" y="630"/>
      <point x="602.0" y="626"/>
      <point x="594.0" y="613" type="curve" smooth="yes"/>
      <point x="472.0" y="427" type="line" smooth="yes"/>
      <point x="449.0" y="392"/>
      <point x="445.0" y="385"/>
    </contour>
  </outline>
</glyph>
<glyph name="O" format="1">
  <advance width="737"/>
  <unicode hex="004F"/>
  <outline>
    <contour>
      <point x="689.0" y="530" type="line" smooth="yes"/>
      <point x="689.0" y="656"/>
      <point x="631.0" y="745"/>
      <point x="369.0" y="745" type="curve" smooth="yes"/>
      <point x="107.0" y="745"/>
      <point x="48.0" y="656"/>
      <point x="48.0" y="530" type="curve" smooth="yes"/>
      <point x="48.0" y="189" type="line" smooth="yes"/>
      <point x="48.0" y="63"/>
      <point x="107.0" y="-25"/>
      <point x="369.0" y="-25" type="curve" smooth="yes"/>
      <point x="631.0" y="-25"/>
      <point x="689.0" y="63"/>
      <point x="689.0" y="189" type="curve" smooth="yes"/>
    </contour>
    <contour>
      <point x="295.0" y="494" type="line" smooth="yes"/>
      <point x="295.0" y="517"/>
      <point x="313.0" y="530"/>
      <point x="369.0" y="530" type="curve" smooth="yes"/>
      <point x="426.0" y="530"/>
      <point x="443.0" y="517"/>
      <point x="443.0" y="494" type="curve" smooth="yes"/>
      <point x="443.0" y="225" type="line" smooth="yes"/>
      <point x="443.0" y="201"/>
      <point x="426.0" y="188"/>
      <point x="369.0" y="188" type="curve" smooth="yes"/>
      <point x="312.0" y="188"/>
      <point x="295.0" y="201"/>
      <point x="295.0" y="225" type="curve" smooth="yes"/>
    </contour>
    <contour>
      <point x="679.0" y="189" type="line" smooth="yes"/>
      <point x="679.0" y="67"/>
      <point x="619.0" y="-15"/>
      <point x="369.0" y="-15" type="curve" smooth="yes"/>
      <point x="119.0" y="-15"/>
      <point x="58.0" y="67"/>
      <point x="58.0" y="189" type="curve" smooth="yes"/>
      <point x="58.0" y="530" type="line" smooth="yes"/>
      <point x="58.0" y="652"/>
      <point x="119.0" y="735"/>
      <point x="369.0" y="735" type="curve" smooth="yes"/>
      <point x="619.0" y="735"/>
      <point x="679.0" y="652"/>
      <point x="679.0" y="530" type="curve" smooth="yes"/>
    </contour>
    <contour>
      <point x="285.0" y="225" type="line" smooth="yes"/>
      <point x="285.0" y="198"/>
      <point x="297.0" y="178"/>
      <point x="369.0" y="178" type="curve" smooth="yes"/>
      <point x="442.0" y="178"/>
      <point x="453.0" y="198"/>
      <point x="453.0" y="225" type="curve" smooth="yes"/>
      <point x="453.0" y="494" type="line" smooth="yes"/>
      <point x="453.0" y="520"/>
      <point x="442.0" y="540"/>
      <point x="369.0" y="540" type="curve" smooth="yes"/>
      <point x="297.0" y="540"/>
      <point x="285.0" y="520"/>
      <point x="285.0" y="494" type="curve" smooth="yes"/>
    </contour>
    <contour>
      <point x="570.0" y="212" type="curve" smooth="yes"/>
      <point x="570.0" y="507" type="line" smooth="yes"/>
      <point x="570.0" y="588"/>
      <point x="524.0" y="642"/>
      <point x="367.0" y="642" type="curve" smooth="yes"/>
      <point x="210.0" y="642"/>
      <point x="166.0" y="588"/>
      <point x="166.0" y="507" type="curve" smooth="yes"/>
      <point x="166.0" y="212" type="line" smooth="yes"/>
      <point x="166.0" y="131"/>
      <point x="210.0" y="77"/>
      <point x="367.0" y="77" type="curve" smooth="yes"/>
      <point x="524.0" y="77"/>
      <point x="570.0" y="131"/>
    </contour>
    <contour>
      <point x="176.0" y="212" type="curve" smooth="yes"/>
      <point x="176.0" y="507" type="line" smooth="yes"/>
      <point x="176.0" y="582"/>
      <point x="218.0" y="632"/>
      <point x="367.0" y="632" type="curve" smooth="yes"/>
      <point x="516.0" y="632"/>
      <point x="560.0" y="582"/>
      <point x="560.0" y="507" type="curve" smooth="yes"/>
      <point x="560.0" y="212" type="line" smooth="yes"/>
      <point x="560.0" y="137"/>
      <point x="516.0" y="87"/>
      <point x="367.0" y="87" type="curve" smooth="yes"/>
      <point x="218.0" y="87"/>
      <point x="176.0" y="137"/>
    </contour>
  </outline>
</glyph>
<glyph name="S" format="1">
  <advance width="650"/>
  <unicode hex="0053"/>
  <outline>
    <contour>
      <point x="620.0" y="176" type="curve" smooth="yes"/>
      <point x="620.0" y="281" type="line" smooth="yes"/>
      <point x="620.0" y="399"/>
      <point x="555.0" y="442"/>
      <point x="455.0" y="457" type="curve" smooth="yes"/>
      <point x="306.0" y="477" type="line" smooth="yes"/>
      <point x="294.0" y="478"/>
      <point x="288.0" y="487"/>
      <point x="288.0" y="499" type="curve" smooth="yes"/>
      <point x="288.0" y="510"/>
      <point x="294.0" y="519"/>
      <point x="305.0" y="519" type="curve" smooth="yes"/>
      <point x="538.0" y="519" type="line" smooth="yes"/>
      <point x="570.0" y="519"/>
      <point x="584.0" y="533"/>
      <point x="584.0" y="565" type="curve" smooth="yes"/>
      <point x="584.0" y="684" type="line" smooth="yes"/>
      <point x="584.0" y="716"/>
      <point x="570.0" y="730"/>
      <point x="538.0" y="730" type="curve" smooth="yes"/>
      <point x="258.0" y="730" type="line" smooth="yes"/>
      <point x="121.0" y="730"/>
      <point x="41.0" y="664"/>
      <point x="41.0" y="544" type="curve" smooth="yes"/>
      <point x="41.0" y="439" type="line" smooth="yes"/>
      <point x="41.0" y="321"/>
      <point x="105.0" y="278"/>
      <point x="205.0" y="263" type="curve" smooth="yes"/>
      <point x="355.0" y="242" type="line" smooth="yes"/>
      <point x="367.0" y="241"/>
      <point x="372.0" y="233"/>
      <point x="372.0" y="218" type="curve" smooth="yes"/>
      <point x="372.0" y="208"/>
      <point x="367.0" y="199"/>
      <point x="356.0" y="199" type="curve" smooth="yes"/>
      <point x="87.0" y="199" type="line" smooth="yes"/>
      <point x="55.0" y="199"/>
      <point x="41.0" y="185"/>
      <point x="41.0" y="153" type="curve" smooth="yes"/>
      <point x="41.0" y="36" type="line" smooth="yes"/>
      <point x="41.0" y="4"/>
      <point x="55.0" y="-10"/>
      <point x="87.0" y="-10" type="curve" smooth="yes"/>
      <point x="403.0" y="-10" type="line" smooth="yes"/>
      <point x="539.0" y="-10"/>
      <point x="620.0" y="56"/>
    </contour>
    <contour>
      <point x="403.0" y="0" type="curve" smooth="yes"/>
      <point x="87.0" y="0" type="line" smooth="yes"/>
      <point x="62.0" y="0"/>
      <point x="51.0" y="11"/>
      <point x="51.0" y="36" type="curve" smooth="yes"/>
      <point x="51.0" y="153" type="line" smooth="yes"/>
      <point x="51.0" y="178"/>
      <point x="62.0" y="189"/>
      <point x="87.0" y="189" type="curve" smooth="yes"/>
      <point x="356.0" y="189" type="line" smooth="yes"/>
      <point x="373.0" y="189"/>
      <point x="382.0" y="202"/>
      <point x="382.0" y="218" type="curve" smooth="yes"/>
      <point x="382.0" y="241"/>
      <point x="373.0" y="250"/>
      <point x="356.0" y="252" type="curve" smooth="yes"/>
      <point x="206.0" y="273" type="line" smooth="yes"/>
      <point x="112.0" y="287"/>
      <point x="51.0" y="327"/>
      <point x="51.0" y="439" type="curve" smooth="yes"/>
      <point x="51.0" y="544" type="line" smooth="yes"/>
      <point x="51.0" y="658"/>
      <point x="128.0" y="720"/>
      <point x="258.0" y="720" type="curve" smooth="yes"/>
      <point x="538.0" y="720" type="line" smooth="yes"/>
      <point x="563.0" y="720"/>
      <point x="574.0" y="709"/>
      <point x="574.0" y="684" type="curve" smooth="yes"/>
      <point x="574.0" y="565" type="line" smooth="yes"/>
      <point x="574.0" y="540"/>
      <point x="563.0" y="529"/>
      <point x="538.0" y="529" type="curve" smooth="yes"/>
      <point x="305.0" y="529" type="line" smooth="yes"/>
      <point x="288.0" y="529"/>
      <point x="278.0" y="517"/>
      <point x="278.0" y="499" type="curve" smooth="yes"/>
      <point x="278.0" y="481"/>
      <point x="288.0" y="469"/>
      <point x="305.0" y="467" type="curve" smooth="yes"/>
      <point x="454.0" y="447" type="line" smooth="yes"/>
      <point x="548.0" y="433"/>
      <point x="610.0" y="393"/>
      <point x="610.0" y="281" type="curve" smooth="yes"/>
      <point x="610.0" y="176" type="line" smooth="yes"/>
      <point x="610.0" y="62"/>
      <point x="532.0" y="0"/>
    </contour>
    <contour>
      <point x="484.0" y="630" type="line"/>
      <point x="262.0" y="630" type="line" smooth="yes"/>
      <point x="200.0" y="630"/>
      <point x="160.0" y="592"/>
      <point x="160.0" y="539" type="curve" smooth="yes"/>
      <point x="160.0" y="457" type="line" smooth="yes"/>
      <point x="160.0" y="402"/>
      <point x="184.0" y="387"/>
      <point x="219.0" y="380" type="curve" smooth="yes"/>
      <point x="430.0" y="337" type="line" smooth="yes"/>
      <point x="467.0" y="329"/>
      <point x="491.0" y="312"/>
      <point x="491.0" y="249" type="curve" smooth="yes"/>
      <point x="491.0" y="191" type="line" smooth="yes"/>
      <point x="491.0" y="138"/>
      <point x="452.0" y="100"/>
      <point x="390.0" y="100" type="curve" smooth="yes"/>
      <point x="141.0" y="100" type="line"/>
      <point x="141.0" y="90" type="line"/>
      <point x="390.0" y="90" type="line" smooth="yes"/>
      <point x="458.0" y="90"/>
      <point x="501.0" y="132"/>
      <point x="501.0" y="191" type="curve" smooth="yes"/>
      <point x="501.0" y="249" type="line" smooth="yes"/>
      <point x="501.0" y="319"/>
      <point x="472.0" y="339"/>
      <point x="432.0" y="347" type="curve" smooth="yes"/>
      <point x="221.0" y="390" type="line" smooth="yes"/>
      <point x="190.0" y="396"/>
      <point x="170.0" y="410"/>
      <point x="170.0" y="457" type="curve" smooth="yes"/>
      <point x="170.0" y="539" type="line" smooth="yes"/>
      <point x="170.0" y="586"/>
      <point x="206.0" y="620"/>
      <point x="262.0" y="620" type="curve" smooth="yes"/>
      <point x="484.0" y="620" type="line"/>
    </contour>
  </outline>
</glyph>
<glyph name="V" format="1">
  <advance width="730"/>
  <unicode hex="0056"/>
  <outline>
    <contour>
      <point x="555.0" y="29" type="curve" smooth="yes"/>
      <point x="653.0" y="274" type="line" smooth="yes"/>
      <point x="678.0" y="336"/>
      <point x="686.0" y="355"/>
      <point x="686.0" y="420" type="curve" smooth="yes"/>
      <point x="686.0" y="684" type="line" smooth="yes"/>
      <point x="686.0" y="716"/>
      <point x="673.0" y="730"/>
      <point x="640.0" y="730" type="curve" smooth="yes"/>
      <point x="483.0" y="730" type="line" smooth="yes"/>
      <point x="451.0" y="730"/>
      <point x="437.0" y="716"/>
      <point x="437.0" y="684" type="curve" smooth="yes"/>
      <point x="437.0" y="409" type="line" smooth="yes"/>
      <point x="437.0" y="396"/>
      <point x="434.0" y="385"/>
      <point x="430.0" y="371" type="curve" smooth="yes"/>
      <point x="383.0" y="230" type="line" smooth="yes"/>
      <point x="380.0" y="223"/>
      <point x="379.0" y="220"/>
      <point x="373.0" y="220" type="curve" smooth="yes"/>
      <point x="362.0" y="220" type="line" smooth="yes"/>
      <point x="356.0" y="220"/>
      <point x="355.0" y="223"/>
      <point x="353.0" y="230" type="curve" smooth="yes"/>
      <point x="305.0" y="370" type="line" smooth="yes"/>
      <point x="301.0" y="384"/>
      <point x="298.0" y="395"/>
      <point x="298.0" y="408" type="curve" smooth="yes"/>
      <point x="298.0" y="684" type="line" smooth="yes"/>
      <point x="298.0" y="715"/>
      <point x="281.0" y="730"/>
      <point x="249.0" y="730" type="curve" smooth="yes"/>
      <point x="90.0" y="730" type="line" smooth="yes"/>
      <point x="58.0" y="730"/>
      <point x="44.0" y="716"/>
      <point x="44.0" y="684" type="curve" smooth="yes"/>
      <point x="44.0" y="420" type="line" smooth="yes"/>
      <point x="44.0" y="355"/>
      <point x="52.0" y="336"/>
      <point x="77.0" y="274" type="curve" smooth="yes"/>
      <point x="175.0" y="29" type="line" smooth="yes"/>
      <point x="187.0" y="0"/>
      <point x="204.0" y="-10"/>
      <point x="235.0" y="-10" type="curve" smooth="yes"/>
      <point x="495.0" y="-10" type="line" smooth="yes"/>
      <point x="526.0" y="-10"/>
      <point x="543.0" y="0"/>
    </contour>
    <contour>
      <point x="495.0" y="0" type="curve" smooth="yes"/>
      <point x="235.0" y="0" type="line"/>
      <point x="209.0" y="0"/>
      <point x="194.0" y="8"/>
      <point x="184.0" y="33" type="curve" smooth="yes"/>
      <point x="86.0" y="278" type="line" smooth="yes"/>
      <point x="62.0" y="338"/>
      <point x="54.0" y="357"/>
      <point x="54.0" y="420" type="curve" smooth="yes"/>
      <point x="54.0" y="684" type="line" smooth="yes"/>
      <point x="54.0" y="709"/>
      <point x="65.0" y="720"/>
      <point x="90.0" y="720" type="curve" smooth="yes"/>
      <point x="249.0" y="720" type="line" smooth="yes"/>
      <point x="274.0" y="720"/>
      <point x="288.0" y="709"/>
      <point x="288.0" y="684" type="curve" smooth="yes"/>
      <point x="288.0" y="408" type="line" smooth="yes"/>
      <point x="288.0" y="394"/>
      <point x="291.0" y="382"/>
      <point x="296.0" y="367" type="curve" smooth="yes"/>
      <point x="343.0" y="227" type="line" smooth="yes"/>
      <point x="347.0" y="214"/>
      <point x="351.0" y="210"/>
      <point x="362.0" y="210" type="curve" smooth="yes"/>
      <point x="373.0" y="210" type="line" smooth="yes"/>
      <point x="384.0" y="210"/>
      <point x="388.0" y="214"/>
      <point x="392.0" y="227" type="curve" smooth="yes"/>
      <point x="439.0" y="368" type="line" smooth="yes"/>
      <point x="444.0" y="383"/>
      <point x="447.0" y="395"/>
      <point x="447.0" y="409" type="curve" smooth="yes"/>
      <point x="447.0" y="684" type="line" smooth="yes"/>
      <point x="447.0" y="709"/>
      <point x="458.0" y="720"/>
      <point x="483.0" y="720" type="curve" smooth="yes"/>
      <point x="640.0" y="720" type="line" smooth="yes"/>
      <point x="666.0" y="720"/>
      <point x="676.0" y="709"/>
      <point x="676.0" y="684" type="curve" smooth="yes"/>
      <point x="676.0" y="420" type="line" smooth="yes"/>
      <point x="676.0" y="357"/>
      <point x="668.0" y="338"/>
      <point x="644.0" y="278" type="curve" smooth="yes"/>
      <point x="546.0" y="33" type="line" smooth="yes"/>
      <point x="536.0" y="8"/>
      <point x="521.0" y="0"/>
    </contour>
    <contour>
      <point x="167.0" y="630" type="line"/>
      <point x="167.0" y="414" type="line" smooth="yes"/>
      <point x="167.0" y="377"/>
      <point x="171.0" y="346"/>
      <point x="183.0" y="317" type="curve" smooth="yes"/>
      <point x="249.0" y="157" type="line" smooth="yes"/>
      <point x="265.0" y="118"/>
      <point x="280.0" y="90"/>
      <point x="322.0" y="90" type="curve" smooth="yes"/>
      <point x="410.0" y="90" type="line" smooth="yes"/>
      <point x="452.0" y="90"/>
      <point x="467.0" y="118"/>
      <point x="483.0" y="157" type="curve" smooth="yes"/>
      <point x="549.0" y="317" type="line" smooth="yes"/>
      <point x="561.0" y="346"/>
      <point x="565.0" y="377"/>
      <point x="565.0" y="414" type="curve" smooth="yes"/>
      <point x="565.0" y="630" type="line"/>
      <point x="555.0" y="630" type="line"/>
      <point x="555.0" y="414" type="line" smooth="yes"/>
      <point x="555.0" y="379"/>
      <point x="550.0" y="348"/>
      <point x="539.0" y="321" type="curve" smooth="yes"/>
      <point x="473.0" y="161" type="line" smooth="yes"/>
      <point x="459.0" y="126"/>
      <point x="448.0" y="100"/>
      <point x="410.0" y="100" type="curve" smooth="yes"/>
      <point x="322.0" y="100" type="line" smooth="yes"/>
      <point x="284.0" y="100"/>
      <point x="273.0" y="126"/>
      <point x="259.0" y="161" type="curve" smooth="yes"/>
      <point x="193.0" y="321" type="line" smooth="yes"/>
      <point x="182.0" y="348"/>
      <point x="177.0" y="379"/>
      <point x="177.0" y="414" type="curve" smooth="yes"/>
      <point x="177.0" y="630" type="line"/>
    </contour>
    <contour>
      <point x="365.0" y="747.0" type="move" name="top"/>
    </contour>
    <contour>
      <point x="365.0" y="0.0" type="move" name="bottom"/>
    </contour>
  </outline>
</glyph>
<glyph name="X" format="1">
  <advance width="737"/>
  <unicode hex="0058"/>
  <outline>
    <contour>
      <point x="245.0" y="-10" type="line" smooth="yes"/>
      <point x="277.0" y="-10"/>
      <point x="291.0" y="4"/>
      <point x="291.0" y="36" type="curve" smooth="yes"/>
      <point x="291.0" y="135" type="line" smooth="yes"/>
      <point x="291.0" y="147"/>
      <point x="291.0" y="159"/>
      <point x="298.0" y="172" type="curve" smooth="yes"/>
      <point x="344.0" y="238" type="line" smooth="yes"/>
      <point x="350.0" y="246"/>
      <point x="352.0" y="251"/>
      <point x="360.0" y="251" type="curve" smooth="yes"/>
      <point x="372.0" y="251" type="line" smooth="yes"/>
      <point x="380.0" y="251"/>
      <point x="382.0" y="246"/>
      <point x="388.0" y="238" type="curve" smooth="yes"/>
      <point x="434.0" y="171" type="line" smooth="yes"/>
      <point x="441.0" y="159"/>
      <point x="441.0" y="147"/>
      <point x="441.0" y="135" type="curve" smooth="yes"/>
      <point x="441.0" y="36" type="line" smooth="yes"/>
      <point x="441.0" y="4"/>
      <point x="455.0" y="-10"/>
      <point x="487.0" y="-10" type="curve" smooth="yes"/>
      <point x="641.0" y="-10" type="line" smooth="yes"/>
      <point x="673.0" y="-10"/>
      <point x="687.0" y="4"/>
      <point x="687.0" y="36" type="curve" smooth="yes"/>
      <point x="687.0" y="143" type="line" smooth="yes"/>
      <point x="687.0" y="208"/>
      <point x="679.0" y="229"/>
      <point x="647.0" y="272" type="curve" smooth="yes"/>
      <point x="570.0" y="374" type="line"/>
      <point x="647.0" y="478" type="line" smooth="yes"/>
      <point x="679.0" y="521"/>
      <point x="687.0" y="542"/>
      <point x="687.0" y="607" type="curve" smooth="yes"/>
      <point x="687.0" y="684" type="line" smooth="yes"/>
      <point x="687.0" y="716"/>
      <point x="673.0" y="730"/>
      <point x="641.0" y="730" type="curve" smooth="yes"/>
      <point x="492.0" y="730" type="line" smooth="yes"/>
      <point x="460.0" y="730"/>
      <point x="446.0" y="716"/>
      <point x="446.0" y="684" type="curve" smooth="yes"/>
      <point x="446.0" y="615" type="line" smooth="yes"/>
      <point x="446.0" y="603"/>
      <point x="447.0" y="590"/>
      <point x="439.0" y="579" type="curve" smooth="yes"/>
      <point x="393.0" y="512" type="line" smooth="yes"/>
      <point x="388.0" y="505"/>
      <point x="385.0" y="499"/>
      <point x="377.0" y="499" type="curve" smooth="yes"/>
      <point x="365.0" y="499" type="line" smooth="yes"/>
      <point x="357.0" y="499"/>
      <point x="354.0" y="505"/>
      <point x="349.0" y="512" type="curve" smooth="yes"/>
      <point x="303.0" y="579" type="line" smooth="yes"/>
      <point x="295.0" y="590"/>
      <point x="296.0" y="603"/>
      <point x="296.0" y="615" type="curve" smooth="yes"/>
      <point x="296.0" y="684" type="line" smooth="yes"/>
      <point x="296.0" y="716"/>
      <point x="282.0" y="730"/>
      <point x="250.0" y="730" type="curve" smooth="yes"/>
      <point x="96.0" y="730" type="line" smooth="yes"/>
      <point x="64.0" y="730"/>
      <point x="50.0" y="716"/>
      <point x="50.0" y="684" type="curve" smooth="yes"/>
      <point x="50.0" y="607" type="line" smooth="yes"/>
      <point x="50.0" y="542"/>
      <point x="58.0" y="521"/>
      <point x="90.0" y="478" type="curve" smooth="yes"/>
      <point x="167.0" y="375" type="line"/>
      <point x="90.0" y="272" type="line" smooth="yes"/>
      <point x="58.0" y="229"/>
      <point x="50.0" y="208"/>
      <point x="50.0" y="143" type="curve" smooth="yes"/>
      <point x="50.0" y="36" type="line" smooth="yes"/>
      <point x="50.0" y="4"/>
      <point x="64.0" y="-10"/>
      <point x="96.0" y="-10" type="curve" smooth="yes"/>
    </contour>
    <contour>
      <point x="284.0" y="36" type="line" smooth="yes"/>
      <point x="284.0" y="11"/>
      <point x="273.0" y="0"/>
      <point x="248.0" y="0" type="curve" smooth="yes"/>
      <point x="96.0" y="0" type="line" smooth="yes"/>
      <point x="71.0" y="0"/>
      <point x="60.0" y="11"/>
      <point x="60.0" y="36" type="curve" smooth="yes"/>
      <point x="60.0" y="143" type="line" smooth="yes"/>
      <point x="60.0" y="205"/>
      <point x="68.0" y="225"/>
      <point x="98.0" y="266" type="curve" smooth="yes"/>
      <point x="179.0" y="375" type="line"/>
      <point x="98.0" y="484" type="line" smooth="yes"/>
      <point x="67.0" y="525"/>
      <point x="60.0" y="545"/>
      <point x="60.0" y="607" type="curve" smooth="yes"/>
      <point x="60.0" y="684" type="line" smooth="yes"/>
      <point x="60.0" y="709"/>
      <point x="71.0" y="720"/>
      <point x="96.0" y="720" type="curve" smooth="yes"/>
      <point x="250.0" y="720" type="line" smooth="yes"/>
      <point x="275.0" y="720"/>
      <point x="286.0" y="709"/>
      <point x="286.0" y="684" type="curve" smooth="yes"/>
      <point x="286.0" y="615" type="line" smooth="yes"/>
      <point x="286.0" y="601"/>
      <point x="286.0" y="586"/>
      <point x="295.0" y="573" type="curve" smooth="yes"/>
      <point x="339.0" y="510" type="line" smooth="yes"/>
      <point x="346.0" y="499"/>
      <point x="352.0" y="493"/>
      <point x="363.0" y="493" type="curve" smooth="yes"/>
      <point x="375.0" y="493" type="line" smooth="yes"/>
      <point x="386.0" y="493"/>
      <point x="391.0" y="499"/>
      <point x="399.0" y="510" type="curve" smooth="yes"/>
      <point x="444.0" y="573" type="line" smooth="yes"/>
      <point x="453.0" y="586"/>
      <point x="453.0" y="601"/>
      <point x="453.0" y="615" type="curve" smooth="yes"/>
      <point x="453.0" y="684" type="line" smooth="yes"/>
      <point x="453.0" y="709"/>
      <point x="464.0" y="720"/>
      <point x="489.0" y="720" type="curve" smooth="yes"/>
      <point x="641.0" y="720" type="line" smooth="yes"/>
      <point x="666.0" y="720"/>
      <point x="677.0" y="709"/>
      <point x="677.0" y="684" type="curve" smooth="yes"/>
      <point x="677.0" y="607" type="line" smooth="yes"/>
      <point x="677.0" y="545"/>
      <point x="669.0" y="525"/>
      <point x="639.0" y="484" type="curve" smooth="yes"/>
      <point x="558.0" y="374" type="line"/>
      <point x="639.0" y="266" type="line" smooth="yes"/>
      <point x="670.0" y="225"/>
      <point x="677.0" y="205"/>
      <point x="677.0" y="143" type="curve" smooth="yes"/>
      <point x="677.0" y="36" type="line" smooth="yes"/>
      <point x="677.0" y="11"/>
      <point x="666.0" y="0"/>
      <point x="641.0" y="0" type="curve" smooth="yes"/>
      <point x="489.0" y="0" type="line" smooth="yes"/>
      <point x="464.0" y="0"/>
      <point x="453.0" y="11"/>
      <point x="453.0" y="36" type="curve" smooth="yes"/>
      <point x="453.0" y="135" type="line" smooth="yes"/>
      <point x="453.0" y="149"/>
      <point x="454.0" y="163"/>
      <point x="444.0" y="177" type="curve" smooth="yes"/>
      <point x="400.0" y="240" type="line" smooth="yes"/>
      <point x="392.0" y="252"/>
      <point x="387.0" y="257"/>
      <point x="376.0" y="257" type="curve" smooth="yes"/>
      <point x="362.0" y="257" type="line" smooth="yes"/>
      <point x="351.0" y="257"/>
      <point x="346.0" y="252"/>
      <point x="338.0" y="240" type="curve" smooth="yes"/>
      <point x="293.0" y="177" type="line" smooth="yes"/>
      <point x="283.0" y="163"/>
      <point x="284.0" y="149"/>
      <point x="284.0" y="135" type="curve" smooth="yes"/>
    </contour>
    <contour>
      <point x="177.0" y="135" type="line" smooth="yes"/>
      <point x="177.0" y="163"/>
      <point x="177.0" y="189"/>
      <point x="191.0" y="208" type="curve" smooth="yes"/>
      <point x="286.0" y="338" type="line" smooth="yes"/>
      <point x="303.0" y="361"/>
      <point x="319.0" y="370"/>
      <point x="339.0" y="370" type="curve" smooth="yes"/>
      <point x="400.0" y="370" type="line" smooth="yes"/>
      <point x="419.0" y="370"/>
      <point x="436.0" y="361"/>
      <point x="453.0" y="338" type="curve" smooth="yes"/>
      <point x="545.0" y="208" type="line" smooth="yes"/>
      <point x="559.0" y="189"/>
      <point x="560.0" y="163"/>
      <point x="560.0" y="135" type="curve" smooth="yes"/>
      <point x="560.0" y="90" type="line"/>
      <point x="570.0" y="90" type="line"/>
      <point x="570.0" y="135" type="line" smooth="yes"/>
      <point x="570.0" y="164"/>
      <point x="569.0" y="191"/>
      <point x="554.0" y="212" type="curve" smooth="yes"/>
      <point x="462.0" y="342" type="line" smooth="yes"/>
      <point x="449.0" y="360"/>
      <point x="438.0" y="370"/>
      <point x="424.0" y="375" type="curve"/>
      <point x="438.0" y="380"/>
      <point x="450.0" y="390"/>
      <point x="462.0" y="408" type="curve" smooth="yes"/>
      <point x="555.0" y="538" type="line" smooth="yes"/>
      <point x="571.0" y="560"/>
      <point x="570.0" y="586"/>
      <point x="570.0" y="615" type="curve" smooth="yes"/>
      <point x="570.0" y="630" type="line"/>
      <point x="560.0" y="630" type="line"/>
      <point x="560.0" y="615" type="line" smooth="yes"/>
      <point x="560.0" y="587"/>
      <point x="560.0" y="561"/>
      <point x="546.0" y="542" type="curve" smooth="yes"/>
      <point x="453.0" y="412" type="line" smooth="yes"/>
      <point x="436.0" y="389"/>
      <point x="420.0" y="380"/>
      <point x="400.0" y="380" type="curve" smooth="yes"/>
      <point x="339.0" y="380" type="line" smooth="yes"/>
      <point x="321.0" y="380"/>
      <point x="305.0" y="388"/>
      <point x="287.0" y="412" type="curve" smooth="yes"/>
      <point x="191.0" y="542" type="line" smooth="yes"/>
      <point x="177.0" y="561"/>
      <point x="177.0" y="587"/>
      <point x="177.0" y="615" type="curve" smooth="yes"/>
      <point x="177.0" y="630" type="line"/>
      <point x="167.0" y="630" type="line"/>
      <point x="167.0" y="615" type="line" smooth="yes"/>
      <point x="167.0" y="586"/>
      <point x="167.0" y="559"/>
      <point x="182.0" y="538" type="curve" smooth="yes"/>
      <point x="278.0" y="408" type="line" smooth="yes"/>
      <point x="291.0" y="390"/>
      <point x="302.0" y="380"/>
      <point x="315.0" y="375" type="curve"/>
      <point x="301.0" y="370"/>
      <point x="289.0" y="360"/>
      <point x="277.0" y="342" type="curve" smooth="yes"/>
      <point x="182.0" y="212" type="line" smooth="yes"/>
      <point x="166.0" y="190"/>
      <point x="167.0" y="164"/>
      <point x="167.0" y="135" type="curve" smooth="yes"/>
      <point x="167.0" y="90" type="line"/>
      <point x="177.0" y="90" type="line"/>
    </contour>
    <contour>
      <point x="368.0" y="747.0" type="move" name="top"/>
    </contour>
    <contour>
      <point x="368.0" y="0.0" type="move" name="bottom"/>
    </contour>
  </outline>
</glyph>
<glyph name="bar" format="1">
  <advance width="347"/>
  <unicode hex="007C"/>
  <outline>
    <contour>
      <point x="246.0" y="820" type="curve" smooth="yes"/>
      <point x="101.0" y="820" type="line" smooth="yes"/>
      <point x="69.0" y="820"/>
      <point x="55.0" y="806"/>
      <point x="55.0" y="774" type="curve" smooth="yes"/>
      <point x="55.0" y="-54" type="line" smooth="yes"/>
      <point x="55.0" y="-86"/>
      <point x="69.0" y="-100"/>
      <point x="101.0" y="-100" type="curve" smooth="yes"/>
      <point x="246.0" y="-100" type="line" smooth="yes"/>
      <point x="278.0" y="-100"/>
      <point x="292.0" y="-86"/>
      <point x="292.0" y="-54" type="curve" smooth="yes"/>
      <point x="292.0" y="774" type="line" smooth="yes"/>
      <point x="292.0" y="806"/>
      <point x="278.0" y="820"/>
    </contour>
    <contour>
      <point x="282.0" y="774" type="curve" smooth="yes"/>
      <point x="282.0" y="-54" type="line"/>
      <point x="282.0" y="-79"/>
      <point x="271.0" y="-90"/>
      <point x="246.0" y="-90" type="curve" smooth="yes"/>
      <point x="101.0" y="-90" type="line" smooth="yes"/>
      <point x="76.0" y="-90"/>
      <point x="65.0" y="-79"/>
      <point x="65.0" y="-54" type="curve" smooth="yes"/>
      <point x="65.0" y="774" type="line" smooth="yes"/>
      <point x="65.0" y="799"/>
      <point x="76.0" y="810"/>
      <point x="101.0" y="810" type="curve" smooth="yes"/>
      <point x="246.0" y="810" type="line" smooth="yes"/>
      <point x="271.0" y="810"/>
      <point x="282.0" y="799"/>
    </contour>
    <contour>
      <point x="169.0" y="720" type="line"/>
      <point x="169.0" y="0" type="line"/>
      <point x="179.0" y="0" type="line"/>
      <point x="179.0" y="720" type="line"/>
    </contour>
  </outline>
</glyph>
<glyph name="braceright" format="1">
  <advance width="455"/>
  <unicode hex="007D"/>
  <outline>
    <contour>
      <point x="81.0" y="-90" type="curve" smooth="yes"/>
      <point x="125.0" y="-90" type="line" smooth="yes"/>
      <point x="323.0" y="-90"/>
      <point x="381.0" y="-2"/>
      <point x="381.0" y="124" type="curve" smooth="yes"/>
      <point x="381.0" y="246" type="line"/>
      <point x="424.0" y="262"/>
      <point x="445.0" y="291"/>
      <point x="445.0" y="341" type="curve" smooth="yes"/>
      <point x="445.0" y="376" type="line" smooth="yes"/>
      <point x="445.0" y="426"/>
      <point x="424.0" y="454"/>
      <point x="381.0" y="470" type="curve"/>
      <point x="381.0" y="595" type="line" smooth="yes"/>
      <point x="381.0" y="722"/>
      <point x="323.0" y="810"/>
      <point x="125.0" y="810" type="curve" smooth="yes"/>
      <point x="81.0" y="810" type="line" smooth="yes"/>
      <point x="49.0" y="810"/>
      <point x="35.0" y="796"/>
      <point x="35.0" y="764" type="curve" smooth="yes"/>
      <point x="35.0" y="643" type="line" smooth="yes"/>
      <point x="35.0" y="611"/>
      <point x="49.0" y="597"/>
      <point x="81.0" y="597" type="curve" smooth="yes"/>
      <point x="102.0" y="597" type="line" smooth="yes"/>
      <point x="128.0" y="597"/>
      <point x="133.0" y="583"/>
      <point x="133.0" y="557" type="curve" smooth="yes"/>
      <point x="133.0" y="440" type="line" smooth="yes"/>
      <point x="133.0" y="393"/>
      <point x="146.0" y="375"/>
      <point x="186.0" y="368" type="curve" smooth="yes"/>
      <point x="219.0" y="362" type="line"/>
      <point x="220.0" y="362" type="line" smooth="yes"/>
      <point x="223.0" y="362"/>
      <point x="224.0" y="361"/>
      <point x="224.0" y="358" type="curve" smooth="yes"/>
      <point x="224.0" y="355"/>
      <point x="222.0" y="354"/>
      <point x="219.0" y="354" type="curve" smooth="yes"/>
      <point x="186.0" y="348" type="line" smooth="yes"/>
      <point x="146.0" y="341"/>
      <point x="133.0" y="323"/>
      <point x="133.0" y="276" type="curve" smooth="yes"/>
      <point x="133.0" y="161" type="line" smooth="yes"/>
      <point x="133.0" y="135"/>
      <point x="128.0" y="121"/>
      <point x="102.0" y="121" type="curve" smooth="yes"/>
      <point x="81.0" y="121" type="line" smooth="yes"/>
      <point x="49.0" y="121"/>
      <point x="35.0" y="107"/>
      <point x="35.0" y="75" type="curve" smooth="yes"/>
      <point x="35.0" y="-44" type="line" smooth="yes"/>
      <point x="35.0" y="-76"/>
      <point x="49.0" y="-90"/>
    </contour>
    <contour>
      <point x="143.0" y="161" type="curve"/>
      <point x="143.0" y="276" type="line" smooth="yes"/>
      <point x="143.0" y="316"/>
      <point x="153.0" y="332"/>
      <point x="188.0" y="338" type="curve" smooth="yes"/>
      <point x="221.0" y="344" type="line" smooth="yes"/>
      <point x="231.0" y="346"/>
      <point x="234.0" y="349"/>
      <point x="234.0" y="358" type="curve" smooth="yes"/>
      <point x="234.0" y="367"/>
      <point x="231.0" y="371"/>
      <point x="221.0" y="372" type="curve"/>
      <point x="188.0" y="378" type="line" smooth="yes"/>
      <point x="153.0" y="384"/>
      <point x="143.0" y="400"/>
      <point x="143.0" y="440" type="curve" smooth="yes"/>
      <point x="143.0" y="557" type="line" smooth="yes"/>
      <point x="143.0" y="592"/>
      <point x="134.0" y="607"/>
      <point x="102.0" y="607" type="curve" smooth="yes"/>
      <point x="81.0" y="607" type="line" smooth="yes"/>
      <point x="56.0" y="607"/>
      <point x="45.0" y="618"/>
      <point x="45.0" y="643" type="curve" smooth="yes"/>
      <point x="45.0" y="764" type="line" smooth="yes"/>
      <point x="45.0" y="789"/>
      <point x="56.0" y="800"/>
      <point x="81.0" y="800" type="curve" smooth="yes"/>
      <point x="125.0" y="800" type="line" smooth="yes"/>
      <point x="314.0" y="800"/>
      <point x="371.0" y="717"/>
      <point x="371.0" y="595" type="curve" smooth="yes"/>
      <point x="371.0" y="462" type="line"/>
      <point x="414.0" y="449"/>
      <point x="435.0" y="424"/>
      <point x="435.0" y="376" type="curve" smooth="yes"/>
      <point x="435.0" y="341" type="line" smooth="yes"/>
      <point x="435.0" y="293"/>
      <point x="414.0" y="267"/>
      <point x="371.0" y="254" type="curve"/>
      <point x="371.0" y="124" type="line" smooth="yes"/>
      <point x="371.0" y="3"/>
      <point x="314.0" y="-80"/>
      <point x="125.0" y="-80" type="curve" smooth="yes"/>
      <point x="81.0" y="-80" type="line" smooth="yes"/>
      <point x="56.0" y="-80"/>
      <point x="45.0" y="-69"/>
      <point x="45.0" y="-44" type="curve" smooth="yes"/>
      <point x="45.0" y="75" type="line" smooth="yes"/>
      <point x="45.0" y="100"/>
      <point x="56.0" y="111"/>
      <point x="81.0" y="111" type="curve" smooth="yes"/>
      <point x="102.0" y="111" type="line" smooth="yes"/>
      <point x="134.0" y="111"/>
      <point x="143.0" y="126"/>
    </contour>
    <contour>
      <point x="262.0" y="124" type="curve" smooth="yes"/>
      <point x="262.0" y="275" type="line"/>
      <point x="302.0" y="281"/>
      <point x="326.0" y="302"/>
      <point x="326.0" y="344" type="curve" smooth="yes"/>
      <point x="326.0" y="372" type="line" smooth="yes"/>
      <point x="326.0" y="415"/>
      <point x="302.0" y="435"/>
      <point x="262.0" y="441" type="curve"/>
      <point x="262.0" y="595" type="line" smooth="yes"/>
      <point x="262.0" y="680"/>
      <point x="223.0" y="708"/>
      <point x="135.0" y="708" type="curve"/>
      <point x="135.0" y="698" type="line"/>
      <point x="215.0" y="698"/>
      <point x="252.0" y="674"/>
      <point x="252.0" y="595" type="curve" smooth="yes"/>
      <point x="252.0" y="433" type="line"/>
      <point x="299.0" y="428"/>
      <point x="316.0" y="409"/>
      <point x="316.0" y="372" type="curve" smooth="yes"/>
      <point x="316.0" y="344" type="line" smooth="yes"/>
      <point x="316.0" y="307"/>
      <point x="298.0" y="288"/>
      <point x="252.0" y="283" type="curve"/>
      <point x="252.0" y="124" type="line" smooth="yes"/>
      <point x="252.0" y="54"/>
      <point x="214.0" y="21"/>
      <point x="135.0" y="21" type="curve"/>
      <point x="135.0" y="11" type="line"/>
      <point x="222.0" y="11"/>
      <point x="262.0" y="48"/>
    </contour>
  </outline>
</glyph>
<glyph name="dieresis" format="1">
  <advance width="500"/>
  <unicode hex="00A8"/>
  <outline>
    <contour>
      <point x="489.0" y="793" type="curve" smooth="yes"/>
      <point x="489.0" y="914" type="line" smooth="yes"/>
      <point x="489.0" y="944"/>
      <point x="476.0" y="957"/>
      <point x="446.0" y="957" type="curve" smooth="yes"/>
      <point x="308.0" y="957" type="line" smooth="yes"/>
      <point x="278.0" y="957"/>
      <point x="265.0" y="944"/>
      <point x="265.0" y="914" type="curve" smooth="yes"/>
      <point x="265.0" y="793" type="line" smooth="yes"/>
      <point x="265.0" y="763"/>
      <point x="278.0" y="750"/>
      <point x="308.0" y="750" type="curve" smooth="yes"/>
      <point x="446.0" y="750" type="line" smooth="yes"/>
      <point x="476.0" y="750"/>
      <point x="489.0" y="763"/>
    </contour>
    <contour>
      <point x="231.0" y="793" type="curve" smooth="yes"/>
      <point x="231.0" y="914" type="line" smooth="yes"/>
      <point x="231.0" y="944"/>
      <point x="218.0" y="957"/>
      <point x="188.0" y="957" type="curve" smooth="yes"/>
      <point x="50.0" y="957" type="line" smooth="yes"/>
      <point x="20.0" y="957"/>
      <point x="6.0" y="944"/>
      <point x="6.0" y="914" type="curve"/>
      <point x="6.0" y="793" type="line"/>
      <point x="6.0" y="763"/>
      <point x="20.0" y="750"/>
      <point x="50.0" y="750" type="curve" smooth="yes"/>
      <point x="188.0" y="750" type="line" smooth="yes"/>
      <point x="218.0" y="750"/>
      <point x="231.0" y="763"/>
    </contour>
    <contour>
      <point x="446.0" y="760" type="curve" smooth="yes"/>
      <point x="308.0" y="760" type="line" smooth="yes"/>
      <point x="285.0" y="760"/>
      <point x="275.0" y="770"/>
      <point x="275.0" y="793" type="curve" smooth="yes"/>
      <point x="275.0" y="914" type="line" smooth="yes"/>
      <point x="275.0" y="937"/>
      <point x="285.0" y="947"/>
      <point x="308.0" y="947" type="curve" smooth="yes"/>
      <point x="446.0" y="947" type="line" smooth="yes"/>
      <point x="469.0" y="947"/>
      <point x="479.0" y="937"/>
      <point x="479.0" y="914" type="curve" smooth="yes"/>
      <point x="479.0" y="793" type="line" smooth="yes"/>
      <point x="479.0" y="770"/>
      <point x="469.0" y="760"/>
    </contour>
    <contour>
      <point x="188.0" y="760" type="curve" smooth="yes"/>
      <point x="50.0" y="760" type="line" smooth="yes"/>
      <point x="27.0" y="760"/>
      <point x="16.0" y="770"/>
      <point x="16.0" y="793" type="curve" smooth="yes"/>
      <point x="16.0" y="914" type="line" smooth="yes"/>
      <point x="16.0" y="937"/>
      <point x="27.0" y="947"/>
      <point x="50.0" y="947" type="curve" smooth="yes"/>
      <point x="188.0" y="947" type="line" smooth="yes"/>
      <point x="211.0" y="947"/>
      <point x="221.0" y="937"/>
      <point x="221.0" y="914" type="curve" smooth="yes"/>
      <point x="221.0" y="793" type="line" smooth="yes"/>
      <point x="221.0" y="770"/>
      <point x="211.0" y="760"/>
    </contour>
    <contour>
      <point x="382.0" y="830" type="line"/>
      <point x="382.0" y="877" type="line"/>
      <point x="372.0" y="877" type="line"/>
      <point x="372.0" y="830" type="line"/>
    </contour>
    <contour>
      <point x="124.0" y="830" type="line"/>
      <point x="124.0" y="877" type="line"/>
      <point x="114.0" y="877" type="line"/>
      <point x="114.0" y="830" type="line"/>
    </contour>
    <contour>
      <point x="250.0" y="747.0" type="move" name="_top"/>
    </contour>
    <contour>
      <point x="250.0" y="0.0" type="move" name="_bottom"/>
    </contour>
  </outline>
</glyph>
<glyph name="guillemotleft" format="1">
  <advance width="812"/>
  <unicode hex="00AB"/>
  <outline>
    <contour>
      <point x="762.0" y="140" type="curve" smooth="yes"/>
      <point x="762.0" y="254" type="line" smooth="yes"/>
      <point x="762.0" y="285"/>
      <point x="748.0" y="304"/>
      <point x="719.0" y="313" type="curve" smooth="yes"/>
      <point x="624.0" y="340" type="line" smooth="yes"/>
      <point x="617.0" y="342"/>
      <point x="614.0" y="342"/>
      <point x="614.0" y="349" type="curve" smooth="yes"/>
      <point x="614.0" y="356"/>
      <point x="617.0" y="356"/>
      <point x="624.0" y="358" type="curve" smooth="yes"/>
      <point x="719.0" y="386" type="line"/>
      <point x="719.0" y="387" type="line"/>
      <point x="720.0" y="387" type="line" smooth="yes"/>
      <point x="747.0" y="397"/>
      <point x="762.0" y="414"/>
      <point x="762.0" y="445" type="curve" smooth="yes"/>
      <point x="762.0" y="559" type="line" smooth="yes"/>
      <point x="762.0" y="591"/>
      <point x="743.0" y="609"/>
      <point x="713.0" y="600" type="curve" smooth="yes"/>
      <point x="544.0" y="551" type="line" smooth="yes"/>
      <point x="455.0" y="525"/>
      <point x="410.0" y="491"/>
      <point x="410.0" y="386" type="curve" smooth="yes"/>
      <point x="410.0" y="312" type="line" smooth="yes"/>
      <point x="410.0" y="207"/>
      <point x="456.0" y="173"/>
      <point x="544.0" y="147" type="curve" smooth="yes"/>
      <point x="713.0" y="99" type="line"/>
      <point x="745.0" y="90"/>
      <point x="762.0" y="107"/>
    </contour>
    <contour>
      <point x="402.0" y="137" type="curve" smooth="yes"/>
      <point x="402.0" y="254" type="line" smooth="yes"/>
      <point x="402.0" y="285"/>
      <point x="388.0" y="304"/>
      <point x="359.0" y="313" type="curve" smooth="yes"/>
      <point x="264.0" y="340" type="line"/>
      <point x="257.0" y="342"/>
      <point x="254.0" y="342"/>
      <point x="254.0" y="349" type="curve" smooth="yes"/>
      <point x="254.0" y="356"/>
      <point x="258.0" y="356"/>
      <point x="265.0" y="359" type="curve"/>
      <point x="264.0" y="358" type="line"/>
      <point x="359.0" y="387" type="line"/>
      <point x="360.0" y="387" type="line" smooth="yes"/>
      <point x="387.0" y="397"/>
      <point x="402.0" y="414"/>
      <point x="402.0" y="445" type="curve" smooth="yes"/>
      <point x="402.0" y="562" type="line" smooth="yes"/>
      <point x="402.0" y="598"/>
      <point x="381.0" y="610"/>
      <point x="353.0" y="603" type="curve" smooth="yes"/>
      <point x="174.0" y="551" type="line" smooth="yes"/>
      <point x="86.0" y="524"/>
      <point x="40.0" y="491"/>
      <point x="40.0" y="386" type="curve" smooth="yes"/>
      <point x="40.0" y="312" type="line" smooth="yes"/>
      <point x="40.0" y="207"/>
      <point x="86.0" y="173"/>
      <point x="174.0" y="147" type="curve" smooth="yes"/>
      <point x="353.0" y="96" type="line"/>
      <point x="385.0" y="87"/>
      <point x="402.0" y="104"/>
    </contour>
    <contour>
      <point x="356.0" y="106" type="curve" smooth="yes"/>
      <point x="177.0" y="157" type="line" smooth="yes"/>
      <point x="94.0" y="181"/>
      <point x="50.0" y="213"/>
      <point x="50.0" y="312" type="curve" smooth="yes"/>
      <point x="50.0" y="386" type="line" smooth="yes"/>
      <point x="50.0" y="485"/>
      <point x="94.0" y="516"/>
      <point x="177.0" y="541" type="curve" smooth="yes"/>
      <point x="356.0" y="593" type="line" smooth="yes"/>
      <point x="377.0" y="599"/>
      <point x="392.0" y="588"/>
      <point x="392.0" y="562" type="curve" smooth="yes"/>
      <point x="392.0" y="445" type="line" smooth="yes"/>
      <point x="392.0" y="419"/>
      <point x="379.0" y="405"/>
      <point x="356.0" y="396" type="curve" smooth="yes"/>
      <point x="261.0" y="368" type="line" smooth="yes"/>
      <point x="248.0" y="363"/>
      <point x="244.0" y="361"/>
      <point x="244.0" y="349" type="curve" smooth="yes"/>
      <point x="244.0" y="337"/>
      <point x="247.0" y="335"/>
      <point x="261.0" y="330" type="curve" smooth="yes"/>
      <point x="356.0" y="303" type="line" smooth="yes"/>
      <point x="380.0" y="296"/>
      <point x="392.0" y="280"/>
      <point x="392.0" y="254" type="curve" smooth="yes"/>
      <point x="392.0" y="137" type="line" smooth="yes"/>
      <point x="392.0" y="113"/>
      <point x="380.0" y="99"/>
    </contour>
    <contour>
      <point x="716.0" y="109" type="curve" smooth="yes"/>
      <point x="547.0" y="157" type="line" smooth="yes"/>
      <point x="464.0" y="181"/>
      <point x="420.0" y="213"/>
      <point x="420.0" y="312" type="curve" smooth="yes"/>
      <point x="420.0" y="386" type="line" smooth="yes"/>
      <point x="420.0" y="485"/>
      <point x="463.0" y="517"/>
      <point x="547.0" y="541" type="curve" smooth="yes"/>
      <point x="716.0" y="590" type="line" smooth="yes"/>
      <point x="739.0" y="597"/>
      <point x="752.0" y="582"/>
      <point x="752.0" y="559" type="curve" smooth="yes"/>
      <point x="752.0" y="445" type="line" smooth="yes"/>
      <point x="752.0" y="419"/>
      <point x="739.0" y="405"/>
      <point x="716.0" y="396" type="curve"/>
      <point x="621.0" y="368" type="line" smooth="yes"/>
      <point x="608.0" y="364"/>
      <point x="604.0" y="361"/>
      <point x="604.0" y="349" type="curve" smooth="yes"/>
      <point x="604.0" y="337"/>
      <point x="607.0" y="334"/>
      <point x="621.0" y="330" type="curve" smooth="yes"/>
      <point x="716.0" y="303" type="line" smooth="yes"/>
      <point x="740.0" y="296"/>
      <point x="752.0" y="280"/>
      <point x="752.0" y="254" type="curve" smooth="yes"/>
      <point x="752.0" y="140" type="line" smooth="yes"/>
      <point x="752.0" y="116"/>
      <point x="740.0" y="102"/>
    </contour>
    <contour>
      <point x="204.0" y="251" type="line" smooth="yes"/>
      <point x="174.0" y="260"/>
      <point x="151.0" y="271"/>
      <point x="151.0" y="312" type="curve" smooth="yes"/>
      <point x="151.0" y="386" type="line" smooth="yes"/>
      <point x="151.0" y="427"/>
      <point x="174.0" y="437"/>
      <point x="205.0" y="447" type="curve" smooth="yes"/>
      <point x="302.0" y="477" type="line"/>
      <point x="302.0" y="487" type="line"/>
      <point x="203.0" y="457" type="line" smooth="yes"/>
      <point x="166.0" y="446"/>
      <point x="141.0" y="433"/>
      <point x="141.0" y="386" type="curve" smooth="yes"/>
      <point x="141.0" y="312" type="line" smooth="yes"/>
      <point x="141.0" y="265"/>
      <point x="166.0" y="251"/>
      <point x="202.0" y="241" type="curve" smooth="yes"/>
      <point x="302.0" y="212" type="line"/>
      <point x="302.0" y="222" type="line"/>
    </contour>
    <contour>
      <point x="573.0" y="457" type="line" smooth="yes"/>
      <point x="536.0" y="446"/>
      <point x="511.0" y="433"/>
      <point x="511.0" y="386" type="curve" smooth="yes"/>
      <point x="511.0" y="312" type="line" smooth="yes"/>
      <point x="511.0" y="265"/>
      <point x="536.0" y="251"/>
      <point x="572.0" y="241" type="curve" smooth="yes"/>
      <point x="672.0" y="212" type="line"/>
      <point x="672.0" y="222" type="line"/>
      <point x="574.0" y="251" type="line" smooth="yes"/>
      <point x="544.0" y="259"/>
      <point x="521.0" y="271"/>
      <point x="521.0" y="312" type="curve" smooth="yes"/>
      <point x="521.0" y="386" type="line" smooth="yes"/>
      <point x="521.0" y="427"/>
      <point x="544.0" y="438"/>
      <point x="575.0" y="447" type="curve" smooth="yes"/>
      <point x="672.0" y="477" type="line"/>
      <point x="672.0" y="487" type="line"/>
    </contour>
  </outline>
</glyph>
<glyph name="plusminus" format="1">
  <advance width="734"/>
  <unicode hex="00B1"/>
  <outline>
    <contour>
      <point x="362" y="215" type="line"/>
      <point x="372" y="215" type="line"/>
      <point x="372" y="417" type="line"/>
      <point x="574" y="417" type="line"/>
      <point x="574" y="427" type="line"/>
      <point x="372" y="427" type="line"/>
      <point x="372" y="629" type="line"/>
      <point x="362" y="629" type="line"/>
      <point x="362" y="427" type="line"/>
      <point x="160" y="427" type="line"/>
      <point x="160" y="417" type="line"/>
      <point x="362" y="417" type="line"/>
    </contour>
    <contour>
      <point x="160" y="89" type="line"/>
      <point x="574" y="89" type="line"/>
      <point x="574" y="99" type="line"/>
      <point x="160" y="99" type="line"/>
    </contour>
    <contour>
      <point x="465" y="187" type="line"/>
      <point x="628" y="187" type="line" smooth="yes"/>
      <point x="653" y="187"/>
      <point x="664" y="177"/>
      <point x="664" y="151" type="curve" smooth="yes"/>
      <point x="664" y="37" type="line" smooth="yes"/>
      <point x="664" y="11"/>
      <point x="653" y="1"/>
      <point x="628" y="1" type="curve" smooth="yes"/>
      <point x="106" y="1" type="line"/>
      <point x="81" y="1"/>
      <point x="70" y="11"/>
      <point x="70" y="37" type="curve" smooth="yes"/>
      <point x="70" y="151" type="line" smooth="yes"/>
      <point x="70" y="176"/>
      <point x="81" y="187"/>
      <point x="106" y="187" type="curve" smooth="yes"/>
      <point x="269" y="187" type="line"/>
      <point x="269" y="329" type="line"/>
      <point x="106" y="329" type="line"/>
      <point x="81" y="329"/>
      <point x="70" y="339"/>
      <point x="70" y="365" type="curve" smooth="yes"/>
      <point x="70" y="479" type="line" smooth="yes"/>
      <point x="70" y="504"/>
      <point x="81" y="515"/>
      <point x="106" y="515" type="curve" smooth="yes"/>
      <point x="269" y="515" type="line"/>
      <point x="269" y="683" type="line"/>
      <point x="269" y="708"/>
      <point x="279" y="719"/>
      <point x="305" y="719" type="curve" smooth="yes"/>
      <point x="429" y="719" type="line" smooth="yes"/>
      <point x="454" y="719"/>
      <point x="465" y="708"/>
      <point x="465" y="683" type="curve" smooth="yes"/>
      <point x="465" y="515" type="line"/>
      <point x="628" y="515" type="line" smooth="yes"/>
      <point x="653" y="515"/>
      <point x="664" y="505"/>
      <point x="664" y="479" type="curve" smooth="yes"/>
      <point x="664" y="365" type="line" smooth="yes"/>
      <point x="664" y="339"/>
      <point x="653" y="329"/>
      <point x="628" y="329" type="curve" smooth="yes"/>
      <point x="465" y="329" type="line"/>
    </contour>
    <contour>
      <point x="259" y="197" type="move"/>
      <point x="106" y="197" type="line" smooth="yes"/>
      <point x="74" y="197"/>
      <point x="60" y="183"/>
      <point x="60" y="151" type="curve" smooth="yes"/>
      <point x="60" y="37" type="line" smooth="yes"/>
      <point x="60" y="4"/>
      <point x="74" y="-9"/>
      <point x="106" y="-9" type="curve" smooth="yes"/>
      <point x="628" y="-9" type="line" smooth="yes"/>
      <point x="660" y="-9"/>
      <point x="674" y="4"/>
      <point x="674" y="37" type="curve" smooth="yes"/>
      <point x="674" y="151" type="line" smooth="yes"/>
      <point x="674" y="184"/>
      <point x="660" y="197"/>
      <point x="628" y="197" type="curve" smooth="yes"/>
      <point x="475" y="197" type="line"/>
    </contour>
    <contour>
      <point x="475" y="197" type="move"/>
      <point x="475" y="319" type="line"/>
      <point x="628" y="319" type="line" smooth="yes"/>
      <point x="660" y="319"/>
      <point x="674" y="332"/>
      <point x="674" y="365" type="curve" smooth="yes"/>
      <point x="674" y="479" type="line" smooth="yes"/>
      <point x="674" y="512"/>
      <point x="660" y="525"/>
      <point x="628" y="525" type="curve" smooth="yes"/>
      <point x="475" y="525" type="line"/>
      <point x="475" y="683" type="line" smooth="yes"/>
      <point x="475" y="715"/>
      <point x="461" y="729"/>
      <point x="429" y="729" type="curve" smooth="yes"/>
      <point x="305" y="729" type="line" smooth="yes"/>
      <point x="272" y="729"/>
      <point x="259" y="715"/>
      <point x="259" y="683" type="curve" smooth="yes"/>
      <point x="259" y="525" type="line"/>
      <point x="106" y="525" type="line" smooth="yes"/>
      <point x="74" y="525"/>
      <point x="60" y="511"/>
      <point x="60" y="479" type="curve" smooth="yes"/>
      <point x="60" y="365" type="line" smooth="yes"/>
      <point x="60" y="332"/>
      <point x="74" y="319"/>
      <point x="106" y="319" type="curve" smooth="yes"/>
      <point x="259" y="319" type="line"/>
      <point x="259" y="197" type="line"/>
    </contour>
  </outline>
</glyph>
<glyph name="acute" format="1">
  <advance width="500"/>
  <unicode hex="00B4"/>
  <outline>
    <contour>
      <point x="75.0" y="743" type="curve" smooth="yes"/>
      <point x="424.0" y="786" type="line"/>
      <point x="456.0" y="790"/>
      <point x="469.0" y="801"/>
      <point x="469.0" y="832" type="curve" smooth="yes"/>
      <point x="469.0" y="928" type="line" smooth="yes"/>
      <point x="469.0" y="959"/>
      <point x="454.0" y="975"/>
      <point x="424.0" y="971" type="curve" smooth="yes"/>
      <point x="75.0" y="928" type="line" smooth="yes"/>
      <point x="43.0" y="924"/>
      <point x="30.0" y="913"/>
      <point x="30.0" y="882" type="curve" smooth="yes"/>
      <point x="30.0" y="786" type="line"/>
      <point x="30.0" y="755"/>
      <point x="45.0" y="739"/>
    </contour>
    <contour>
      <point x="423.0" y="796" type="curve" smooth="yes"/>
      <point x="74.0" y="753" type="line" smooth="yes"/>
      <point x="51.0" y="750"/>
      <point x="40.0" y="763"/>
      <point x="40.0" y="786" type="curve" smooth="yes"/>
      <point x="40.0" y="882" type="line" smooth="yes"/>
      <point x="40.0" y="907"/>
      <point x="51.0" y="915"/>
      <point x="76.0" y="918" type="curve" smooth="yes"/>
      <point x="425.0" y="961" type="line"/>
      <point x="448.0" y="964"/>
      <point x="459.0" y="951"/>
      <point x="459.0" y="928" type="curve" smooth="yes"/>
      <point x="459.0" y="832" type="line" smooth="yes"/>
      <point x="459.0" y="807"/>
      <point x="448.0" y="799"/>
    </contour>
    <contour>
      <point x="130.0" y="847" type="line"/>
      <point x="130.0" y="837" type="line"/>
      <point x="369.0" y="867" type="line"/>
      <point x="369.0" y="877" type="line"/>
    </contour>
    <contour>
      <point x="250.0" y="747.0" type="move" name="_top"/>
    </contour>
    <contour>
      <point x="250.0" y="0.0" type="move" name="_bottom"/>
    </contour>
  </outline>
</glyph>
<glyph name="mu" format="1">
  <advance width="713"/>
  <unicode hex="00B5"/>
  <outline>
    <contour>
      <point x="288" y="-54" type="line" smooth="yes"/>
      <point x="288" y="-79"/>
      <point x="277" y="-90"/>
      <point x="252" y="-90" type="curve" smooth="yes"/>
      <point x="97" y="-90" type="line" smooth="yes"/>
      <point x="72" y="-90"/>
      <point x="61" y="-79"/>
      <point x="61" y="-54" type="curve" smooth="yes"/>
      <point x="61" y="534" type="line" smooth="yes"/>
      <point x="61" y="559"/>
      <point x="72" y="570"/>
      <point x="97" y="570" type="curve" smooth="yes"/>
      <point x="252" y="570" type="line" smooth="yes"/>
      <point x="277" y="570"/>
      <point x="288" y="559"/>
      <point x="288" y="534" type="curve" smooth="yes"/>
      <point x="288" y="218" type="line" smooth="yes"/>
      <point x="288" y="191"/>
      <point x="299" y="171"/>
      <point x="360" y="171" type="curve" smooth="yes"/>
      <point x="422" y="171"/>
      <point x="433" y="191"/>
      <point x="433" y="218" type="curve" smooth="yes"/>
      <point x="433" y="534" type="line" smooth="yes"/>
      <point x="433" y="559"/>
      <point x="443" y="570"/>
      <point x="469" y="570" type="curve" smooth="yes"/>
      <point x="621" y="570" type="line" smooth="yes"/>
      <point x="646" y="570"/>
      <point x="657" y="559"/>
      <point x="657" y="534" type="curve" smooth="yes"/>
      <point x="657" y="189" type="line" smooth="yes"/>
      <point x="657" y="67"/>
      <point x="602" y="-15"/>
      <point x="378" y="-15" type="curve" smooth="yes"/>
      <point x="344" y="-15"/>
      <point x="314" y="-12"/>
      <point x="288" y="-7" type="curve"/>
    </contour>
    <contour>
      <point x="252" y="-100" type="line" smooth="yes"/>
      <point x="284" y="-100"/>
      <point x="298" y="-86"/>
      <point x="298" y="-54" type="curve" smooth="yes"/>
      <point x="298" y="-19" type="line"/>
      <point x="322" y="-23"/>
      <point x="348" y="-25"/>
      <point x="378" y="-25" type="curve" smooth="yes"/>
      <point x="613" y="-25"/>
      <point x="667" y="63"/>
      <point x="667" y="189" type="curve" smooth="yes"/>
      <point x="667" y="534" type="line" smooth="yes"/>
      <point x="667" y="566"/>
      <point x="653" y="580"/>
      <point x="621" y="580" type="curve" smooth="yes"/>
      <point x="469" y="580" type="line" smooth="yes"/>
      <point x="436" y="580"/>
      <point x="423" y="566"/>
      <point x="423" y="534" type="curve" smooth="yes"/>
      <point x="423" y="218" type="line" smooth="yes"/>
      <point x="423" y="195"/>
      <point x="409" y="181"/>
      <point x="360" y="181" type="curve" smooth="yes"/>
      <point x="312" y="181"/>
      <point x="298" y="195"/>
      <point x="298" y="218" type="curve" smooth="yes"/>
      <point x="298" y="544" type="line"/>
      <point x="297" y="544" type="line"/>
      <point x="294" y="569"/>
      <point x="280" y="580"/>
      <point x="252" y="580" type="curve" smooth="yes"/>
      <point x="97" y="580" type="line" smooth="yes"/>
      <point x="65" y="580"/>
      <point x="51" y="566"/>
      <point x="51" y="534" type="curve" smooth="yes"/>
      <point x="51" y="-54" type="line" smooth="yes"/>
      <point x="51" y="-86"/>
      <point x="65" y="-100"/>
      <point x="97" y="-100" type="curve" smooth="yes"/>
    </contour>
    <contour>
      <point x="359" y="78" type="curve" smooth="yes"/>
      <point x="506" y="78"/>
      <point x="550" y="132"/>
      <point x="550" y="213" type="curve" smooth="yes"/>
      <point x="550" y="480" type="line"/>
      <point x="540" y="480" type="line"/>
      <point x="540" y="213" type="line" smooth="yes"/>
      <point x="540" y="138"/>
      <point x="498" y="88"/>
      <point x="359" y="88" type="curve" smooth="yes"/>
      <point x="220" y="88"/>
      <point x="180" y="138"/>
      <point x="180" y="213" type="curve" smooth="yes"/>
      <point x="180" y="480" type="line"/>
      <point x="170" y="480" type="line"/>
      <point x="170" y="0" type="line"/>
      <point x="180" y="0" type="line"/>
      <point x="180" y="159" type="line"/>
      <point x="198" y="109"/>
      <point x="248" y="78"/>
    </contour>
  </outline>
</glyph>
<glyph name="Ccedilla" format="1">
  <advance width="628"/>
  <unicode hex="00C7"/>
  <outline>
    <contour>
      <point x="397" y="97" type="line"/>
      <point x="349" y="-36" type="line"/>
      <point x="359" y="-36" type="line"/>
      <point x="407" y="96" type="line"/>
    </contour>
    <contour>
      <point x="493" y="100" type="line"/>
      <point x="326" y="100" type="line" smooth="yes"/>
      <point x="206" y="100"/>
      <point x="176" y="132"/>
      <point x="176" y="219" type="curve" smooth="yes"/>
      <point x="176" y="499" type="line" smooth="yes"/>
      <point x="176" y="588"/>
      <point x="208" y="620"/>
      <point x="326" y="620" type="curve" smooth="yes"/>
      <point x="493" y="620" type="line"/>
      <point x="493" y="630" type="line"/>
      <point x="326" y="630" type="line" smooth="yes"/>
      <point x="198" y="630"/>
      <point x="166" y="594"/>
      <point x="166" y="499" type="curve" smooth="yes"/>
      <point x="166" y="219" type="line" smooth="yes"/>
      <point x="166" y="126"/>
      <point x="196" y="90"/>
      <point x="326" y="90" type="curve" smooth="yes"/>
      <point x="493" y="90" type="line"/>
    </contour>
    <contour>
      <point x="258" y="2" type="line"/>
      <point x="122" y="13"/>
      <point x="58" y="78"/>
      <point x="58" y="204" type="curve" smooth="yes"/>
      <point x="58" y="515" type="line" smooth="yes"/>
      <point x="58" y="655"/>
      <point x="136" y="720"/>
      <point x="304" y="720" type="curve" smooth="yes"/>
      <point x="548" y="720" type="line" smooth="yes"/>
      <point x="573" y="720"/>
      <point x="584" y="709"/>
      <point x="584" y="684" type="curve" smooth="yes"/>
      <point x="584" y="563" type="line" smooth="yes"/>
      <point x="584" y="538"/>
      <point x="573" y="527"/>
      <point x="548" y="527" type="curve" smooth="yes"/>
      <point x="347" y="527" type="line" smooth="yes"/>
      <point x="305" y="527"/>
      <point x="286" y="511"/>
      <point x="286" y="477" type="curve" smooth="yes"/>
      <point x="286" y="239" type="line" smooth="yes"/>
      <point x="286" y="206"/>
      <point x="305" y="191"/>
      <point x="347" y="191" type="curve" smooth="yes"/>
      <point x="548" y="191" type="line" smooth="yes"/>
      <point x="573" y="191"/>
      <point x="584" y="180"/>
      <point x="584" y="155" type="curve" smooth="yes"/>
      <point x="584" y="36" type="line" smooth="yes"/>
      <point x="584" y="11"/>
      <point x="573" y="0"/>
      <point x="548" y="0" type="curve" smooth="yes"/>
      <point x="475" y="0" type="line"/>
      <point x="471" y="-10" type="line"/>
      <point x="548" y="-10" type="line" smooth="yes"/>
      <point x="580" y="-10"/>
      <point x="594" y="4"/>
      <point x="594" y="36" type="curve" smooth="yes"/>
      <point x="594" y="155" type="line" smooth="yes"/>
      <point x="594" y="187"/>
      <point x="580" y="201"/>
      <point x="548" y="201" type="curve" smooth="yes"/>
      <point x="347" y="201" type="line" smooth="yes"/>
      <point x="314" y="201"/>
      <point x="296" y="211"/>
      <point x="296" y="239" type="curve" smooth="yes"/>
      <point x="296" y="477" type="line" smooth="yes"/>
      <point x="296" y="505"/>
      <point x="313" y="517"/>
      <point x="347" y="517" type="curve" smooth="yes"/>
      <point x="548" y="517" type="line" smooth="yes"/>
      <point x="580" y="517"/>
      <point x="594" y="531"/>
      <point x="594" y="563" type="curve" smooth="yes"/>
      <point x="594" y="684" type="line" smooth="yes"/>
      <point x="594" y="716"/>
      <point x="580" y="730"/>
      <point x="548" y="730" type="curve" smooth="yes"/>
      <point x="304" y="730" type="line" smooth="yes"/>
      <point x="128" y="730"/>
      <point x="48" y="661"/>
      <point x="48" y="515" type="curve" smooth="yes"/>
      <point x="48" y="204" type="line" smooth="yes"/>
      <point x="48" y="73"/>
      <point x="113" y="4"/>
      <point x="256" y="-8" type="curve"/>
      <point x="265" y="2" type="line"/>
    </contour>
    <contour>
      <point x="256" y="2" type="line"/>
      <point x="224" y="-83" type="line" smooth="yes"/>
      <point x="212" y="-114"/>
      <point x="217" y="-136"/>
      <point x="263" y="-136" type="curve" smooth="yes"/>
      <point x="389" y="-136" type="line" smooth="yes"/>
      <point x="421" y="-136"/>
      <point x="435" y="-124"/>
      <point x="444" y="-99" type="curve" smooth="yes"/>
      <point x="479" y="0" type="line"/>
      <point x="469" y="0" type="line"/>
      <point x="435" y="-96" type="line" smooth="yes"/>
      <point x="427" y="-117"/>
      <point x="415" y="-126"/>
      <point x="389" y="-126" type="curve"/>
      <point x="263" y="-126" type="line" smooth="yes"/>
      <point x="229" y="-126"/>
      <point x="224" y="-110"/>
      <point x="233" y="-86" type="curve" smooth="yes"/>
      <point x="266" y="2" type="line"/>
    </contour>
  </outline>
</glyph>
<glyph name="Oslash" format="1">
  <advance width="737"/>
  <unicode hex="00D8"/>
  <outline>
    <contour>
      <point x="275" y="494" type="line" smooth="yes"/>
      <point x="275" y="523"/>
      <point x="294" y="540"/>
      <point x="366" y="540" type="curve"/>
      <point x="275" y="325" type="line"/>
    </contour>
    <contour>
      <point x="463" y="225" type="line" smooth="yes"/>
      <point x="463" y="195"/>
      <point x="444" y="178"/>
      <point x="370" y="178" type="curve"/>
      <point x="463" y="398" type="line"/>
    </contour>
    <contour>
      <point x="134.0" y="-80" type="line" smooth="yes"/>
      <point x="98.0" y="-80"/>
      <point x="83.0" y="-59"/>
      <point x="99.0" y="-29" type="curve"/>
      <point x="99.0" y="-30" type="line"/>
      <point x="123.0" y="26" type="line"/>
      <point x="65.0" y="64"/>
      <point x="48.0" y="121"/>
      <point x="48.0" y="189" type="curve" smooth="yes"/>
      <point x="48.0" y="530" type="line" smooth="yes"/>
      <point x="48.0" y="656"/>
      <point x="107.0" y="745"/>
      <point x="369.0" y="745" type="curve" smooth="yes"/>
      <point x="389.0" y="745"/>
      <point x="409.0" y="744"/>
      <point x="427.0" y="743" type="curve"/>
      <point x="433.0" y="758" type="line"/>
      <point x="433.0" y="759" type="line" smooth="yes"/>
      <point x="448.0" y="785"/>
      <point x="459.0" y="800"/>
      <point x="488.0" y="800" type="curve" smooth="yes"/>
      <point x="603.0" y="800" type="line" smooth="yes"/>
      <point x="639.0" y="800"/>
      <point x="654.0" y="779"/>
      <point x="638.0" y="749" type="curve"/>
      <point x="638.0" y="750" type="line"/>
      <point x="614.0" y="694" type="line"/>
      <point x="672.0" y="656"/>
      <point x="689.0" y="598"/>
      <point x="689.0" y="530" type="curve" smooth="yes"/>
      <point x="689.0" y="189" type="line" smooth="yes"/>
      <point x="689.0" y="63"/>
      <point x="631.0" y="-25"/>
      <point x="369.0" y="-25" type="curve" smooth="yes"/>
      <point x="348.0" y="-25"/>
      <point x="329.0" y="-24"/>
      <point x="310.0" y="-23" type="curve"/>
      <point x="304.0" y="-38" type="line"/>
      <point x="304.0" y="-39" type="line" smooth="yes"/>
      <point x="289.0" y="-65"/>
      <point x="278.0" y="-80"/>
      <point x="249.0" y="-80" type="curve" smooth="yes"/>
    </contour>
    <contour>
      <point x="265.0" y="494" type="curve" smooth="yes"/>
      <point x="265.0" y="277" type="line"/>
      <point x="381.0" y="550" type="line"/>
      <point x="377.0" y="550"/>
      <point x="373.0" y="550"/>
      <point x="369.0" y="550" type="curve" smooth="yes"/>
      <point x="279.0" y="550"/>
      <point x="265.0" y="526"/>
    </contour>
    <contour>
      <point x="369" y="168" type="curve" smooth="yes"/>
      <point x="460" y="168"/>
      <point x="473" y="192"/>
      <point x="473" y="225" type="curve" smooth="yes"/>
      <point x="473" y="446" type="line"/>
      <point x="355" y="168" type="line"/>
      <point x="359" y="168"/>
      <point x="364" y="168"/>
    </contour>
    <contour>
      <point x="295" y="-34" type="curve"/>
      <point x="304" y="-13" type="line"/>
      <point x="324" y="-14"/>
      <point x="346" y="-15"/>
      <point x="369" y="-15" type="curve" smooth="yes"/>
      <point x="619" y="-15"/>
      <point x="679" y="67"/>
      <point x="679" y="189" type="curve"/>
      <point x="679" y="530" type="line" smooth="yes"/>
      <point x="679" y="598"/>
      <point x="661" y="653"/>
      <point x="602" y="689" type="curve"/>
      <point x="629" y="754" type="line"/>
      <point x="641" y="776"/>
      <point x="628" y="790"/>
      <point x="603" y="790" type="curve" smooth="yes"/>
      <point x="488" y="790" type="line" smooth="yes"/>
      <point x="463" y="790"/>
      <point x="454" y="776"/>
      <point x="442" y="754" type="curve"/>
      <point x="433" y="733" type="line"/>
      <point x="413" y="734"/>
      <point x="392" y="735"/>
      <point x="369" y="735" type="curve" smooth="yes"/>
      <point x="119" y="735"/>
      <point x="58" y="652"/>
      <point x="58" y="530" type="curve" smooth="yes"/>
      <point x="58" y="189" type="line" smooth="yes"/>
      <point x="58" y="122"/>
      <point x="77" y="67"/>
      <point x="135" y="31" type="curve"/>
      <point x="108" y="-34" type="line"/>
      <point x="96" y="-56"/>
      <point x="109" y="-70"/>
      <point x="134" y="-70" type="curve" smooth="yes"/>
      <point x="249" y="-70" type="line" smooth="yes"/>
      <point x="274" y="-70"/>
      <point x="283" y="-56"/>
    </contour>
    <contour>
      <point x="166.0" y="212" type="curve" smooth="yes"/>
      <point x="166.0" y="507" type="line" smooth="yes"/>
      <point x="166.0" y="582"/>
      <point x="208.0" y="632"/>
      <point x="367.0" y="632" type="curve" smooth="yes"/>
      <point x="411.0" y="632"/>
      <point x="446.0" y="628"/>
      <point x="474.0" y="621" type="curve"/>
      <point x="253.0" y="100" type="line"/>
      <point x="186.0" y="119"/>
      <point x="166.0" y="160"/>
    </contour>
    <contour>
      <point x="367.0" y="87" type="curve" smooth="yes"/>
      <point x="324.0" y="87"/>
      <point x="290.0" y="91"/>
      <point x="263.0" y="97" type="curve"/>
      <point x="483.0" y="618" type="line"/>
      <point x="549.0" y="599"/>
      <point x="570.0" y="559"/>
      <point x="570.0" y="507" type="curve" smooth="yes"/>
      <point x="570.0" y="212" type="line" smooth="yes"/>
      <point x="570.0" y="137"/>
      <point x="526.0" y="87"/>
    </contour>
    <contour>
      <point x="230.0" y="20" type="line"/>
      <point x="259.0" y="88" type="line"/>
      <point x="287.0" y="81"/>
      <point x="323.0" y="77"/>
      <point x="367.0" y="77" type="curve" smooth="yes"/>
      <point x="534.0" y="77"/>
      <point x="580.0" y="131"/>
      <point x="580.0" y="212" type="curve" smooth="yes"/>
      <point x="580.0" y="507" type="line" smooth="yes"/>
      <point x="580.0" y="563"/>
      <point x="558.0" y="607"/>
      <point x="487.0" y="628" type="curve"/>
      <point x="518.0" y="700" type="line"/>
      <point x="507.0" y="700" type="line"/>
      <point x="478.0" y="631" type="line"/>
      <point x="449.0" y="638"/>
      <point x="412.0" y="642"/>
      <point x="367.0" y="642" type="curve" smooth="yes"/>
      <point x="200.0" y="642"/>
      <point x="156.0" y="588"/>
      <point x="156.0" y="507" type="curve" smooth="yes"/>
      <point x="156.0" y="212" type="line" smooth="yes"/>
      <point x="156.0" y="155"/>
      <point x="178.0" y="111"/>
      <point x="249.0" y="91" type="curve"/>
      <point x="219.0" y="20" type="line"/>
    </contour>
  </outline>
</glyph>
<glyph name="Aogonek" format="1">
  <advance width="730"/>
  <unicode hex="0104"/>
  <outline>
    <contour>
      <point x="686" y="-152" type="curve" smooth="yes"/>
      <point x="686" y="-80" type="line" smooth="yes"/>
      <point x="686" y="-47"/>
      <point x="676" y="-36"/>
      <point x="640" y="-36" type="curve" smooth="yes"/>
      <point x="611" y="-36" type="line"/>
      <point x="615" y="-10" type="line"/>
      <point x="640" y="-10" type="line" smooth="yes"/>
      <point x="672" y="-10"/>
      <point x="686" y="4"/>
      <point x="686" y="36" type="curve" smooth="yes"/>
      <point x="686" y="300" type="line" smooth="yes"/>
      <point x="686" y="341"/>
      <point x="674" y="392"/>
      <point x="646" y="464" type="curve" smooth="yes"/>
      <point x="559" y="691" type="line" smooth="yes"/>
      <point x="550" y="718"/>
      <point x="531" y="730"/>
      <point x="500" y="730" type="curve" smooth="yes"/>
      <point x="231" y="730" type="line" smooth="yes"/>
      <point x="199" y="730"/>
      <point x="180" y="718"/>
      <point x="171" y="690" type="curve" smooth="yes"/>
      <point x="84" y="464" type="line" smooth="yes"/>
      <point x="56" y="392"/>
      <point x="44" y="341"/>
      <point x="44" y="300" type="curve" smooth="yes"/>
      <point x="44" y="36" type="line" smooth="yes"/>
      <point x="44" y="4"/>
      <point x="58" y="-10"/>
      <point x="90" y="-10" type="curve" smooth="yes"/>
      <point x="237" y="-10" type="line" smooth="yes"/>
      <point x="269" y="-10"/>
      <point x="283" y="4"/>
      <point x="283" y="36" type="curve" smooth="yes"/>
      <point x="283" y="166" type="line"/>
      <point x="440" y="166" type="line"/>
      <point x="440" y="56" type="line"/>
      <point x="421" y="-49" type="line" smooth="yes"/>
      <point x="406" y="-152"/>
      <point x="439" y="-196"/>
      <point x="532" y="-196" type="curve" smooth="yes"/>
      <point x="643" y="-196" type="line" smooth="yes"/>
      <point x="677" y="-196"/>
      <point x="686" y="-186"/>
    </contour>
    <contour>
      <point x="643" y="-186" type="curve" smooth="yes"/>
      <point x="532" y="-186" type="line" smooth="yes"/>
      <point x="446" y="-186"/>
      <point x="417" y="-144"/>
      <point x="431" y="-51" type="curve" smooth="yes"/>
      <point x="450" y="57" type="line"/>
      <point x="450" y="176" type="line"/>
      <point x="273" y="176" type="line"/>
      <point x="273" y="36" type="line" smooth="yes"/>
      <point x="273" y="11"/>
      <point x="262" y="0"/>
      <point x="237" y="0" type="curve" smooth="yes"/>
      <point x="90" y="0" type="line" smooth="yes"/>
      <point x="65" y="0"/>
      <point x="54" y="11"/>
      <point x="54" y="36" type="curve" smooth="yes"/>
      <point x="54" y="300" type="line" smooth="yes"/>
      <point x="54" y="340"/>
      <point x="66" y="390"/>
      <point x="93" y="460" type="curve" smooth="yes"/>
      <point x="180" y="687" type="line" smooth="yes"/>
      <point x="188" y="710"/>
      <point x="204" y="720"/>
      <point x="231" y="720" type="curve" smooth="yes"/>
      <point x="500" y="720" type="line" smooth="yes"/>
      <point x="526" y="720"/>
      <point x="542" y="710"/>
      <point x="550" y="687" type="curve" smooth="yes"/>
      <point x="637" y="460" type="line" smooth="yes"/>
      <point x="664" y="390"/>
      <point x="676" y="340"/>
      <point x="676" y="300" type="curve" smooth="yes"/>
      <point x="676" y="36" type="line" smooth="yes"/>
      <point x="676" y="11"/>
      <point x="665" y="0"/>
      <point x="640" y="0" type="curve" smooth="yes"/>
      <point x="606" y="0" type="line"/>
      <point x="599" y="-46" type="line"/>
      <point x="640" y="-46" type="line" smooth="yes"/>
      <point x="668" y="-46"/>
      <point x="676" y="-54"/>
      <point x="676" y="-80" type="curve" smooth="yes"/>
      <point x="676" y="-152" type="line" smooth="yes"/>
      <point x="676" y="-178"/>
      <point x="669" y="-186"/>
    </contour>
    <contour>
      <point x="586" y="-106" type="line"/>
      <point x="562" y="-106" type="line" smooth="yes"/>
      <point x="521" y="-106"/>
      <point x="516" y="-83"/>
      <point x="521" y="-43" type="curve" smooth="yes"/>
      <point x="533" y="42" type="line" smooth="yes"/>
      <point x="537" y="71"/>
      <point x="541" y="76"/>
      <point x="566" y="90" type="curve"/>
      <point x="570" y="90" type="line"/>
      <point x="570" y="303" type="line" smooth="yes"/>
      <point x="570" y="340"/>
      <point x="564" y="371"/>
      <point x="553" y="400" type="curve" smooth="yes"/>
      <point x="484" y="563" type="line" smooth="yes"/>
      <point x="468" y="602"/>
      <point x="456" y="630"/>
      <point x="412" y="630" type="curve" smooth="yes"/>
      <point x="314" y="630" type="line" smooth="yes"/>
      <point x="268" y="630"/>
      <point x="256" y="601"/>
      <point x="241" y="564" type="curve" smooth="yes"/>
      <point x="177" y="400" type="line"/>
      <point x="166" y="371"/>
      <point x="160" y="340"/>
      <point x="160" y="303" type="curve" smooth="yes"/>
      <point x="160" y="90" type="line"/>
      <point x="170" y="90" type="line"/>
      <point x="170" y="262" type="line"/>
      <point x="560" y="262" type="line"/>
      <point x="560" y="98" type="line"/>
      <point x="532" y="82"/>
      <point x="528" y="74"/>
      <point x="523" y="42" type="curve" smooth="yes"/>
      <point x="511" y="-41" type="line" smooth="yes"/>
      <point x="503" y="-91"/>
      <point x="513" y="-116"/>
      <point x="562" y="-116" type="curve" smooth="yes"/>
      <point x="586" y="-116" type="line"/>
    </contour>
    <contour>
      <point x="170" y="303" type="line"/>
      <point x="170" y="339"/>
      <point x="176" y="369"/>
      <point x="186" y="396" type="curve"/>
      <point x="250" y="560" type="line"/>
      <point x="263" y="594"/>
      <point x="274" y="620"/>
      <point x="314" y="620" type="curve" smooth="yes"/>
      <point x="412" y="620" type="line" smooth="yes"/>
      <point x="449" y="620"/>
      <point x="460" y="594"/>
      <point x="475" y="559" type="curve"/>
      <point x="544" y="396" type="line"/>
      <point x="554" y="369"/>
      <point x="560" y="339"/>
      <point x="560" y="303" type="curve"/>
      <point x="560" y="272" type="line"/>
      <point x="170" y="272" type="line"/>
    </contour>
    <contour>
      <point x="330" y="510" type="curve"/>
      <point x="283" y="358" type="line"/>
      <point x="440" y="358" type="line"/>
      <point x="393" y="510" type="line"/>
      <point x="388" y="522"/>
      <point x="382" y="527"/>
      <point x="374" y="527" type="curve" smooth="yes"/>
      <point x="349" y="527" type="line" smooth="yes"/>
      <point x="341" y="527"/>
      <point x="335" y="522"/>
    </contour>
    <contour>
      <point x="383" y="507" type="line"/>
      <point x="426" y="368" type="line"/>
      <point x="297" y="368" type="line"/>
      <point x="340" y="507" type="line"/>
      <point x="339" y="506" type="line"/>
      <point x="342" y="512"/>
      <point x="344" y="517"/>
      <point x="349" y="517" type="curve" smooth="yes"/>
      <point x="374" y="517" type="line" smooth="yes"/>
      <point x="379" y="517"/>
      <point x="381" y="512"/>
      <point x="384" y="506" type="curve"/>
    </contour>
  </outline>
</glyph>
<glyph name="Iogonek" format="1">
  <advance width="605"/>
  <unicode hex="012E"/>
  <outline>
    <contour>
      <point x="461" y="-106" type="line"/>
      <point x="437" y="-106" type="line" smooth="yes"/>
      <point x="396" y="-106"/>
      <point x="391" y="-83"/>
      <point x="396" y="-43" type="curve" smooth="yes"/>
      <point x="408" y="42" type="line" smooth="yes"/>
      <point x="412" y="71"/>
      <point x="416" y="76"/>
      <point x="441" y="90" type="curve"/>
      <point x="461" y="90" type="line"/>
      <point x="461" y="100" type="line"/>
      <point x="308" y="100" type="line"/>
      <point x="308" y="620" type="line"/>
      <point x="461" y="620" type="line"/>
      <point x="461" y="630" type="line"/>
      <point x="143" y="630" type="line"/>
      <point x="143" y="620" type="line"/>
      <point x="298" y="620" type="line"/>
      <point x="298" y="100" type="line"/>
      <point x="143" y="100" type="line"/>
      <point x="143" y="90" type="line"/>
      <point x="422" y="90" type="line"/>
      <point x="406" y="78"/>
      <point x="402" y="68"/>
      <point x="398" y="42" type="curve" smooth="yes"/>
      <point x="386" y="-41" type="line" smooth="yes"/>
      <point x="378" y="-91"/>
      <point x="388" y="-116"/>
      <point x="437" y="-116" type="curve" smooth="yes"/>
      <point x="461" y="-116" type="line"/>
    </contour>
    <contour>
      <point x="518" y="-186" type="curve" smooth="yes"/>
      <point x="407" y="-186" type="line" smooth="yes"/>
      <point x="321" y="-186"/>
      <point x="292" y="-144"/>
      <point x="306" y="-51" type="curve" smooth="yes"/>
      <point x="315" y="0" type="line"/>
      <point x="89" y="0" type="line" smooth="yes"/>
      <point x="64" y="0"/>
      <point x="53" y="11"/>
      <point x="53" y="36" type="curve" smooth="yes"/>
      <point x="53" y="155" type="line" smooth="yes"/>
      <point x="53" y="180"/>
      <point x="64" y="191"/>
      <point x="89" y="191" type="curve" smooth="yes"/>
      <point x="188" y="191" type="line"/>
      <point x="188" y="527" type="line"/>
      <point x="89" y="527" type="line" smooth="yes"/>
      <point x="64" y="527"/>
      <point x="53" y="538"/>
      <point x="53" y="563" type="curve" smooth="yes"/>
      <point x="53" y="684" type="line" smooth="yes"/>
      <point x="53" y="709"/>
      <point x="64" y="720"/>
      <point x="89" y="720" type="curve" smooth="yes"/>
      <point x="515" y="720" type="line" smooth="yes"/>
      <point x="540" y="720"/>
      <point x="551" y="709"/>
      <point x="551" y="684" type="curve" smooth="yes"/>
      <point x="551" y="563" type="line" smooth="yes"/>
      <point x="551" y="538"/>
      <point x="540" y="527"/>
      <point x="515" y="527" type="curve" smooth="yes"/>
      <point x="418" y="527" type="line"/>
      <point x="418" y="191" type="line"/>
      <point x="515" y="191" type="line" smooth="yes"/>
      <point x="540" y="191"/>
      <point x="551" y="180"/>
      <point x="551" y="155" type="curve" smooth="yes"/>
      <point x="551" y="36" type="line" smooth="yes"/>
      <point x="551" y="11"/>
      <point x="540" y="0"/>
      <point x="515" y="0" type="curve" smooth="yes"/>
      <point x="481" y="0" type="line"/>
      <point x="474" y="-46" type="line"/>
      <point x="515" y="-46" type="line" smooth="yes"/>
      <point x="543" y="-46"/>
      <point x="551" y="-54"/>
      <point x="551" y="-80" type="curve" smooth="yes"/>
      <point x="551" y="-152" type="line" smooth="yes"/>
      <point x="551" y="-178"/>
      <point x="544" y="-186"/>
    </contour>
    <contour>
      <point x="561" y="-152" type="curve" smooth="yes"/>
      <point x="561" y="-80" type="line" smooth="yes"/>
      <point x="561" y="-47"/>
      <point x="551" y="-36"/>
      <point x="515" y="-36" type="curve" smooth="yes"/>
      <point x="486" y="-36" type="line"/>
      <point x="490" y="-10" type="line"/>
      <point x="515" y="-10" type="line" smooth="yes"/>
      <point x="547" y="-10"/>
      <point x="561" y="4"/>
      <point x="561" y="36" type="curve" smooth="yes"/>
      <point x="561" y="155" type="line" smooth="yes"/>
      <point x="561" y="187"/>
      <point x="547" y="201"/>
      <point x="515" y="201" type="curve" smooth="yes"/>
      <point x="428" y="201" type="line"/>
      <point x="428" y="517" type="line"/>
      <point x="515" y="517" type="line" smooth="yes"/>
      <point x="547" y="517"/>
      <point x="561" y="531"/>
      <point x="561" y="563" type="curve" smooth="yes"/>
      <point x="561" y="684" type="line" smooth="yes"/>
      <point x="561" y="716"/>
      <point x="547" y="730"/>
      <point x="515" y="730" type="curve" smooth="yes"/>
      <point x="89" y="730" type="line" smooth="yes"/>
      <point x="57" y="730"/>
      <point x="43" y="716"/>
      <point x="43" y="684" type="curve" smooth="yes"/>
      <point x="43" y="563" type="line" smooth="yes"/>
      <point x="43" y="531"/>
      <point x="57" y="517"/>
      <point x="89" y="517" type="curve" smooth="yes"/>
      <point x="178" y="517" type="line"/>
      <point x="178" y="201" type="line"/>
      <point x="89" y="201" type="line" smooth="yes"/>
      <point x="57" y="201"/>
      <point x="43" y="187"/>
      <point x="43" y="155" type="curve" smooth="yes"/>
      <point x="43" y="36" type="line" smooth="yes"/>
      <point x="43" y="4"/>
      <point x="57" y="-10"/>
      <point x="89" y="-10" type="curve" smooth="yes"/>
      <point x="303" y="-10" type="line"/>
      <point x="296" y="-49" type="line" smooth="yes"/>
      <point x="281" y="-152"/>
      <point x="314" y="-196"/>
      <point x="407" y="-196" type="curve" smooth="yes"/>
      <point x="518" y="-196" type="line" smooth="yes"/>
      <point x="552" y="-196"/>
      <point x="561" y="-186"/>
    </contour>
  </outline>
</glyph>
<glyph name="Eng" format="1">
  <advance width="746"/>
  <unicode hex="014A"/>
  <outline>
    <contour>
      <point x="54.0" y="36" type="line" smooth="yes"/>
      <point x="54.0" y="4"/>
      <point x="68.0" y="-10"/>
      <point x="100.0" y="-10" type="curve" smooth="yes"/>
      <point x="252.0" y="-10" type="line" smooth="yes"/>
      <point x="285.0" y="-10"/>
      <point x="298.0" y="4"/>
      <point x="298.0" y="36" type="curve" smooth="yes"/>
      <point x="298.0" y="492" type="line" smooth="yes"/>
      <point x="298.0" y="516"/>
      <point x="315.0" y="529"/>
      <point x="371.0" y="529" type="curve" smooth="yes"/>
      <point x="426.0" y="529"/>
      <point x="443.0" y="516"/>
      <point x="443.0" y="492" type="curve" smooth="yes"/>
      <point x="443.0" y="149" type="line" smooth="yes"/>
      <point x="443.0" y="128"/>
      <point x="440.0" y="111"/>
      <point x="412.0" y="111" type="curve" smooth="yes"/>
      <point x="391.0" y="111" type="line" smooth="yes"/>
      <point x="359.0" y="111"/>
      <point x="345.0" y="97"/>
      <point x="345.0" y="65" type="curve" smooth="yes"/>
      <point x="345.0" y="-54" type="line" smooth="yes"/>
      <point x="345.0" y="-86"/>
      <point x="359.0" y="-100"/>
      <point x="391.0" y="-100" type="curve" smooth="yes"/>
      <point x="436.0" y="-100" type="line" smooth="yes"/>
      <point x="634.0" y="-100"/>
      <point x="692.0" y="-12"/>
      <point x="692.0" y="114" type="curve" smooth="yes"/>
      <point x="692.0" y="531" type="line" smooth="yes"/>
      <point x="692.0" y="657"/>
      <point x="633.0" y="745"/>
      <point x="373.0" y="745" type="curve" smooth="yes"/>
      <point x="113.0" y="745"/>
      <point x="54.0" y="657"/>
      <point x="54.0" y="531" type="curve" smooth="yes"/>
    </contour>
    <contour>
      <point x="64.0" y="531" type="line" smooth="yes"/>
      <point x="64.0" y="653"/>
      <point x="125.0" y="735"/>
      <point x="373.0" y="735" type="curve" smooth="yes"/>
      <point x="621.0" y="735"/>
      <point x="682.0" y="653"/>
      <point x="682.0" y="531" type="curve" smooth="yes"/>
      <point x="682.0" y="114" type="line"/>
      <point x="682.0" y="-7"/>
      <point x="625.0" y="-90"/>
      <point x="436.0" y="-90" type="curve" smooth="yes"/>
      <point x="391.0" y="-90" type="line" smooth="yes"/>
      <point x="366.0" y="-90"/>
      <point x="355.0" y="-79"/>
      <point x="355.0" y="-54" type="curve" smooth="yes"/>
      <point x="355.0" y="65" type="line" smooth="yes"/>
      <point x="355.0" y="90"/>
      <point x="366.0" y="101"/>
      <point x="391.0" y="101" type="curve" smooth="yes"/>
      <point x="412.0" y="101" type="line" smooth="yes"/>
      <point x="447.0" y="101"/>
      <point x="453.0" y="121"/>
      <point x="453.0" y="149" type="curve" smooth="yes"/>
      <point x="453.0" y="492" type="line" smooth="yes"/>
      <point x="453.0" y="519"/>
      <point x="441.0" y="539"/>
      <point x="371.0" y="539" type="curve" smooth="yes"/>
      <point x="300.0" y="539"/>
      <point x="288.0" y="519"/>
      <point x="288.0" y="492" type="curve" smooth="yes"/>
      <point x="288.0" y="36" type="line" smooth="yes"/>
      <point x="288.0" y="11"/>
      <point x="278.0" y="0"/>
      <point x="252.0" y="0" type="curve" smooth="yes"/>
      <point x="100.0" y="0" type="line" smooth="yes"/>
      <point x="75.0" y="0"/>
      <point x="64.0" y="11"/>
      <point x="64.0" y="36" type="curve" smooth="yes"/>
    </contour>
    <contour>
      <point x="445.0" y="1" type="line"/>
      <point x="537.0" y="1"/>
      <point x="572.0" y="30"/>
      <point x="572.0" y="100" type="curve" smooth="yes"/>
      <point x="572.0" y="507" type="line" smooth="yes"/>
      <point x="572.0" y="588"/>
      <point x="529.0" y="642"/>
      <point x="372.0" y="642" type="curve"/>
      <point x="215.0" y="642"/>
      <point x="171.0" y="588"/>
      <point x="171.0" y="507" type="curve" smooth="yes"/>
      <point x="171.0" y="90" type="line"/>
      <point x="181.0" y="90" type="line"/>
      <point x="181.0" y="507" type="line" smooth="yes"/>
      <point x="181.0" y="582"/>
      <point x="223.0" y="632"/>
      <point x="372.0" y="632" type="curve"/>
      <point x="521.0" y="632"/>
      <point x="562.0" y="582"/>
      <point x="562.0" y="507" type="curve" smooth="yes"/>
      <point x="562.0" y="100" type="line" smooth="yes"/>
      <point x="562.0" y="36"/>
      <point x="527.0" y="11"/>
      <point x="445.0" y="11" type="curve"/>
    </contour>
  </outline>
</glyph>
<glyph name="Scedilla" format="1">
  <advance width="650"/>
  <unicode hex="015E"/>
  <outline>
    <contour>
      <point x="390" y="90" type="line" smooth="yes"/>
      <point x="458" y="90"/>
      <point x="501" y="132"/>
      <point x="501" y="191" type="curve" smooth="yes"/>
      <point x="501" y="249" type="line" smooth="yes"/>
      <point x="501" y="319"/>
      <point x="472" y="339"/>
      <point x="432" y="347" type="curve" smooth="yes"/>
      <point x="221" y="390" type="line" smooth="yes"/>
      <point x="190" y="396"/>
      <point x="170" y="410"/>
      <point x="170" y="457" type="curve" smooth="yes"/>
      <point x="170" y="539" type="line" smooth="yes"/>
      <point x="170" y="586"/>
      <point x="206" y="620"/>
      <point x="262" y="620" type="curve" smooth="yes"/>
      <point x="484" y="620" type="line"/>
      <point x="484" y="630" type="line"/>
      <point x="262" y="630" type="line" smooth="yes"/>
      <point x="200" y="630"/>
      <point x="160" y="592"/>
      <point x="160" y="539" type="curve" smooth="yes"/>
      <point x="160" y="457" type="line" smooth="yes"/>
      <point x="160" y="402"/>
      <point x="184" y="387"/>
      <point x="219" y="380" type="curve" smooth="yes"/>
      <point x="430" y="337" type="line" smooth="yes"/>
      <point x="467" y="329"/>
      <point x="491" y="312"/>
      <point x="491" y="249" type="curve" smooth="yes"/>
      <point x="491" y="191" type="line" smooth="yes"/>
      <point x="491" y="138"/>
      <point x="452" y="100"/>
      <point x="390" y="100" type="curve" smooth="yes"/>
      <point x="141" y="100" type="line"/>
      <point x="141" y="90" type="line"/>
      <point x="344" y="90" type="line"/>
      <point x="299" y="-36" type="line"/>
      <point x="309" y="-36" type="line"/>
      <point x="355" y="90" type="line"/>
    </contour>
    <contour>
      <point x="339" y="-126" type="curve"/>
      <point x="213" y="-126" type="line" smooth="yes"/>
      <point x="179" y="-126"/>
      <point x="174" y="-110"/>
      <point x="183" y="-86" type="curve" smooth="yes"/>
      <point x="214" y="0" type="line"/>
      <point x="87" y="0" type="line" smooth="yes"/>
      <point x="62" y="0"/>
      <point x="51" y="11"/>
      <point x="51" y="36" type="curve" smooth="yes"/>
      <point x="51" y="153" type="line" smooth="yes"/>
      <point x="51" y="178"/>
      <point x="62" y="189"/>
      <point x="87" y="189" type="curve" smooth="yes"/>
      <point x="356" y="189" type="line" smooth="yes"/>
      <point x="373" y="189"/>
      <point x="382" y="202"/>
      <point x="382" y="218" type="curve" smooth="yes"/>
      <point x="382" y="241"/>
      <point x="373" y="250"/>
      <point x="356" y="252" type="curve" smooth="yes"/>
      <point x="206" y="273" type="line" smooth="yes"/>
      <point x="112" y="287"/>
      <point x="51" y="327"/>
      <point x="51" y="439" type="curve" smooth="yes"/>
      <point x="51" y="544" type="line" smooth="yes"/>
      <point x="51" y="658"/>
      <point x="128" y="720"/>
      <point x="258" y="720" type="curve" smooth="yes"/>
      <point x="538" y="720" type="line" smooth="yes"/>
      <point x="563" y="720"/>
      <point x="574" y="709"/>
      <point x="574" y="684" type="curve" smooth="yes"/>
      <point x="574" y="565" type="line" smooth="yes"/>
      <point x="574" y="540"/>
      <point x="563" y="529"/>
      <point x="538" y="529" type="curve" smooth="yes"/>
      <point x="305" y="529" type="line" smooth="yes"/>
      <point x="288" y="529"/>
      <point x="278" y="517"/>
      <point x="278" y="499" type="curve" smooth="yes"/>
      <point x="278" y="481"/>
      <point x="288" y="469"/>
      <point x="305" y="467" type="curve" smooth="yes"/>
      <point x="454" y="447" type="line" smooth="yes"/>
      <point x="548" y="433"/>
      <point x="610" y="393"/>
      <point x="610" y="281" type="curve" smooth="yes"/>
      <point x="610" y="176" type="line" smooth="yes"/>
      <point x="610" y="69"/>
      <point x="542" y="8"/>
      <point x="428" y="1" type="curve"/>
      <point x="419" y="1" type="line"/>
      <point x="385" y="-96" type="line" smooth="yes"/>
      <point x="378" y="-117"/>
      <point x="365" y="-126"/>
    </contour>
    <contour>
      <point x="394" y="-99" type="curve" smooth="yes"/>
      <point x="426" y="-9" type="line"/>
      <point x="430" y="-9" type="line" smooth="yes"/>
      <point x="550" y="-1"/>
      <point x="620" y="64"/>
      <point x="620" y="176" type="curve" smooth="yes"/>
      <point x="620" y="281" type="line" smooth="yes"/>
      <point x="620" y="399"/>
      <point x="555" y="442"/>
      <point x="455" y="457" type="curve" smooth="yes"/>
      <point x="306" y="477" type="line" smooth="yes"/>
      <point x="294" y="478"/>
      <point x="288" y="487"/>
      <point x="288" y="499" type="curve" smooth="yes"/>
      <point x="288" y="510"/>
      <point x="294" y="519"/>
      <point x="305" y="519" type="curve" smooth="yes"/>
      <point x="538" y="519" type="line" smooth="yes"/>
      <point x="570" y="519"/>
      <point x="584" y="533"/>
      <point x="584" y="565" type="curve" smooth="yes"/>
      <point x="584" y="684" type="line" smooth="yes"/>
      <point x="584" y="716"/>
      <point x="570" y="730"/>
      <point x="538" y="730" type="curve" smooth="yes"/>
      <point x="258" y="730" type="line" smooth="yes"/>
      <point x="121" y="730"/>
      <point x="41" y="664"/>
      <point x="41" y="544" type="curve" smooth="yes"/>
      <point x="41" y="439" type="line" smooth="yes"/>
      <point x="41" y="321"/>
      <point x="105" y="278"/>
      <point x="205" y="263" type="curve" smooth="yes"/>
      <point x="355" y="242" type="line" smooth="yes"/>
      <point x="367" y="241"/>
      <point x="372" y="233"/>
      <point x="372" y="218" type="curve" smooth="yes"/>
      <point x="372" y="208"/>
      <point x="367" y="199"/>
      <point x="356" y="199" type="curve" smooth="yes"/>
      <point x="87" y="199" type="line" smooth="yes"/>
      <point x="55" y="199"/>
      <point x="41" y="185"/>
      <point x="41" y="153" type="curve" smooth="yes"/>
      <point x="41" y="36" type="line" smooth="yes"/>
      <point x="41" y="4"/>
      <point x="55" y="-10"/>
      <point x="87" y="-10" type="curve" smooth="yes"/>
      <point x="200" y="-10" type="line"/>
      <point x="174" y="-83" type="line" smooth="yes"/>
      <point x="163" y="-114"/>
      <point x="167" y="-136"/>
      <point x="213" y="-136" type="curve" smooth="yes"/>
      <point x="339" y="-136" type="line" smooth="yes"/>
      <point x="371" y="-136"/>
      <point x="385" y="-124"/>
    </contour>
  </outline>
</glyph>
<glyph name="Tbar" format="1">
  <advance width="656"/>
  <unicode hex="0166"/>
  <outline>
    <contour>
      <point x="211" y="401" type="line"/>
      <point x="211" y="411" type="line"/>
      <point x="134" y="411" type="line" smooth="yes"/>
      <point x="102" y="411"/>
      <point x="88" y="397"/>
      <point x="88" y="365" type="curve" smooth="yes"/>
      <point x="88" y="258" type="line" smooth="yes"/>
      <point x="88" y="226"/>
      <point x="102" y="212"/>
      <point x="134" y="212" type="curve" smooth="yes"/>
      <point x="211" y="212" type="line"/>
      <point x="211" y="222" type="line"/>
      <point x="134" y="222" type="line" smooth="yes"/>
      <point x="109" y="222"/>
      <point x="98" y="233"/>
      <point x="98" y="258" type="curve" smooth="yes"/>
      <point x="98" y="365" type="line" smooth="yes"/>
      <point x="98" y="390"/>
      <point x="109" y="401"/>
      <point x="134" y="401" type="curve" smooth="yes"/>
    </contour>
    <contour>
      <point x="467" y="306" type="line"/>
      <point x="467" y="316" type="line"/>
      <point x="333" y="316" type="line"/>
      <point x="333" y="620" type="line"/>
      <point x="538" y="620" type="line"/>
      <point x="538" y="630" type="line"/>
      <point x="118" y="630" type="line"/>
      <point x="118" y="620" type="line"/>
      <point x="323" y="620" type="line"/>
      <point x="323" y="316" type="line"/>
      <point x="188" y="316" type="line"/>
      <point x="188" y="306" type="line"/>
      <point x="323" y="306" type="line"/>
      <point x="323" y="90" type="line"/>
      <point x="333" y="90" type="line"/>
      <point x="333" y="306" type="line"/>
    </contour>
    <contour>
      <point x="445" y="401" type="line"/>
      <point x="521" y="401" type="line" smooth="yes"/>
      <point x="546" y="401"/>
      <point x="557" y="390"/>
      <point x="557" y="365" type="curve" smooth="yes"/>
      <point x="557" y="258" type="line" smooth="yes"/>
      <point x="557" y="233"/>
      <point x="546" y="222"/>
      <point x="521" y="222" type="curve" smooth="yes"/>
      <point x="445" y="222" type="line"/>
      <point x="445" y="212" type="line"/>
      <point x="521" y="212" type="line" smooth="yes"/>
      <point x="553" y="212"/>
      <point x="567" y="226"/>
      <point x="567" y="258" type="curve" smooth="yes"/>
      <point x="567" y="365" type="line" smooth="yes"/>
      <point x="567" y="397"/>
      <point x="553" y="411"/>
      <point x="521" y="411" type="curve" smooth="yes"/>
      <point x="445" y="411" type="line"/>
    </contour>
    <contour>
      <point x="323" y="90" type="line"/>
      <point x="333" y="90" type="line"/>
      <point x="333" y="620" type="line"/>
      <point x="538" y="620" type="line"/>
      <point x="538" y="630" type="line"/>
      <point x="118" y="630" type="line"/>
      <point x="118" y="620" type="line"/>
      <point x="323" y="620" type="line"/>
    </contour>
    <contour>
      <point x="455" y="403" type="line"/>
      <point x="455.0" y="517.0" type="line"/>
      <point x="592.0" y="517.0" type="line" smooth="yes"/>
      <point x="624.0" y="517.0"/>
      <point x="638.0" y="531.0"/>
      <point x="638.0" y="563.0" type="curve" smooth="yes"/>
      <point x="638.0" y="684.0" type="line" smooth="yes"/>
      <point x="638.0" y="716.0"/>
      <point x="624.0" y="730.0"/>
      <point x="592.0" y="730.0" type="curve" smooth="yes"/>
      <point x="64.0" y="730.0" type="line" smooth="yes"/>
      <point x="32.0" y="730.0"/>
      <point x="18.0" y="716.0"/>
      <point x="18.0" y="684.0" type="curve" smooth="yes"/>
      <point x="18.0" y="563.0" type="line"/>
      <point x="18.0" y="531.0"/>
      <point x="32.0" y="517.0"/>
      <point x="64.0" y="517.0" type="curve" smooth="yes"/>
      <point x="201.0" y="517.0" type="line"/>
      <point x="201" y="407" type="line"/>
      <point x="211" y="407" type="line"/>
      <point x="211.0" y="527.0" type="line"/>
      <point x="64.0" y="527.0" type="line" smooth="yes"/>
      <point x="39.0" y="527.0"/>
      <point x="28.0" y="538.0"/>
      <point x="28.0" y="563.0" type="curve" smooth="yes"/>
      <point x="28.0" y="684.0" type="line" smooth="yes"/>
      <point x="28.0" y="709.0"/>
      <point x="39.0" y="720.0"/>
      <point x="64.0" y="720.0" type="curve" smooth="yes"/>
      <point x="592.0" y="720.0" type="line" smooth="yes"/>
      <point x="617.0" y="720.0"/>
      <point x="628.0" y="709.0"/>
      <point x="628.0" y="684.0" type="curve" smooth="yes"/>
      <point x="628.0" y="563.0" type="line" smooth="yes"/>
      <point x="628.0" y="538.0"/>
      <point x="617.0" y="527.0"/>
      <point x="592.0" y="527.0" type="curve" smooth="yes"/>
      <point x="445.0" y="527.0" type="line"/>
      <point x="445" y="403" type="line"/>
    </contour>
    <contour>
      <point x="201" y="216" type="line"/>
      <point x="201.0" y="36.0" type="line" smooth="yes"/>
      <point x="201" y="4"/>
      <point x="215.0" y="-10.0"/>
      <point x="247.0" y="-10.0" type="curve" smooth="yes"/>
      <point x="409.0" y="-10.0" type="line" smooth="yes"/>
      <point x="441.0" y="-10.0"/>
      <point x="455" y="4"/>
      <point x="455.0" y="36.0" type="curve" smooth="yes"/>
      <point x="455" y="217" type="line"/>
      <point x="445" y="217" type="line"/>
      <point x="445.0" y="36.0" type="line" smooth="yes"/>
      <point x="445" y="11"/>
      <point x="434.0" y="0.0"/>
      <point x="409.0" y="0.0" type="curve" smooth="yes"/>
      <point x="247.0" y="0.0" type="line" smooth="yes"/>
      <point x="222.0" y="0.0"/>
      <point x="211" y="11"/>
      <point x="211.0" y="36.0" type="curve" smooth="yes"/>
      <point x="211" y="216" type="line"/>
    </contour>
  </outline>
</glyph>
<glyph name="Uogonek" format="1">
  <advance width="746"/>
  <unicode hex="0172"/>
  <outline>
    <contour>
      <point x="488" y="-206" type="line" smooth="yes"/>
      <point x="522" y="-206"/>
      <point x="531" y="-196"/>
      <point x="531" y="-162" type="curve" smooth="yes"/>
      <point x="531" y="-90" type="line" smooth="yes"/>
      <point x="531" y="-57"/>
      <point x="521" y="-46"/>
      <point x="485" y="-46" type="curve" smooth="yes"/>
      <point x="456" y="-46" type="line"/>
      <point x="460" y="-21" type="line"/>
      <point x="647" y="-3"/>
      <point x="692" y="78"/>
      <point x="692" y="189" type="curve" smooth="yes"/>
      <point x="692" y="684" type="line" smooth="yes"/>
      <point x="692" y="716"/>
      <point x="678" y="730"/>
      <point x="646" y="730" type="curve" smooth="yes"/>
      <point x="494" y="730" type="line" smooth="yes"/>
      <point x="461" y="730"/>
      <point x="448" y="716"/>
      <point x="448" y="684" type="curve" smooth="yes"/>
      <point x="448" y="228" type="line" smooth="yes"/>
      <point x="448" y="204"/>
      <point x="431" y="191"/>
      <point x="375" y="191" type="curve" smooth="yes"/>
      <point x="320" y="191"/>
      <point x="303" y="204"/>
      <point x="303" y="228" type="curve" smooth="yes"/>
      <point x="303" y="684" type="line" smooth="yes"/>
      <point x="303" y="716"/>
      <point x="289" y="730"/>
      <point x="257" y="730" type="curve" smooth="yes"/>
      <point x="100" y="730" type="line" smooth="yes"/>
      <point x="68" y="730"/>
      <point x="54" y="716"/>
      <point x="54" y="684" type="curve" smooth="yes"/>
      <point x="54" y="189" type="line" smooth="yes"/>
      <point x="54" y="81"/>
      <point x="97" y="1"/>
      <point x="273" y="-20" type="curve"/>
      <point x="266" y="-59" type="line" smooth="yes"/>
      <point x="251" y="-162"/>
      <point x="284" y="-206"/>
      <point x="377" y="-206" type="curve" smooth="yes"/>
    </contour>
    <contour>
      <point x="450" y="-12" type="curve"/>
      <point x="444" y="-56" type="line"/>
      <point x="485" y="-56" type="line" smooth="yes"/>
      <point x="513" y="-56"/>
      <point x="521" y="-64"/>
      <point x="521" y="-90" type="curve" smooth="yes"/>
      <point x="521" y="-162" type="line" smooth="yes"/>
      <point x="521" y="-188"/>
      <point x="514" y="-196"/>
      <point x="488" y="-196" type="curve" smooth="yes"/>
      <point x="377" y="-196" type="line" smooth="yes"/>
      <point x="291" y="-196"/>
      <point x="261" y="-154"/>
      <point x="276" y="-61" type="curve" smooth="yes"/>
      <point x="284" y="-11" type="line"/>
      <point x="109" y="7"/>
      <point x="64" y="83"/>
      <point x="64" y="189" type="curve" smooth="yes"/>
      <point x="64" y="684" type="line" smooth="yes"/>
      <point x="64" y="709"/>
      <point x="75" y="720"/>
      <point x="100" y="720" type="curve" smooth="yes"/>
      <point x="257" y="720" type="line" smooth="yes"/>
      <point x="282" y="720"/>
      <point x="293" y="709"/>
      <point x="293" y="684" type="curve" smooth="yes"/>
      <point x="293" y="228" type="line" smooth="yes"/>
      <point x="293" y="201"/>
      <point x="305" y="181"/>
      <point x="375" y="181" type="curve" smooth="yes"/>
      <point x="446" y="181"/>
      <point x="458" y="201"/>
      <point x="458" y="228" type="curve" smooth="yes"/>
      <point x="458" y="684" type="line" smooth="yes"/>
      <point x="458" y="709"/>
      <point x="468" y="720"/>
      <point x="494" y="720" type="curve" smooth="yes"/>
      <point x="646" y="720" type="line" smooth="yes"/>
      <point x="671" y="720"/>
      <point x="682" y="709"/>
      <point x="682" y="684" type="curve" smooth="yes"/>
      <point x="682" y="189" type="line" smooth="yes"/>
      <point x="682" y="81"/>
      <point x="634" y="4"/>
    </contour>
    <contour>
      <point x="431" y="-126" type="line"/>
      <point x="431" y="-116" type="line"/>
      <point x="407" y="-116" type="line" smooth="yes"/>
      <point x="366" y="-116"/>
      <point x="361" y="-93"/>
      <point x="366" y="-53" type="curve" smooth="yes"/>
      <point x="378" y="32" type="line" smooth="yes"/>
      <point x="382" y="60"/>
      <point x="386" y="66"/>
      <point x="409" y="79" type="curve"/>
      <point x="538" y="87"/>
      <point x="575" y="138"/>
      <point x="575" y="213" type="curve" smooth="yes"/>
      <point x="575" y="630" type="line"/>
      <point x="565" y="630" type="line"/>
      <point x="565" y="213" type="line" smooth="yes"/>
      <point x="565" y="138"/>
      <point x="523" y="88"/>
      <point x="374" y="88" type="curve" smooth="yes"/>
      <point x="225" y="88"/>
      <point x="184" y="138"/>
      <point x="184" y="213" type="curve" smooth="yes"/>
      <point x="184" y="630" type="line"/>
      <point x="174" y="630" type="line"/>
      <point x="174" y="213" type="line" smooth="yes"/>
      <point x="174" y="132"/>
      <point x="217" y="78"/>
      <point x="374" y="78" type="curve" smooth="yes"/>
      <point x="379" y="78"/>
      <point x="385" y="78"/>
      <point x="390" y="78" type="curve"/>
      <point x="375" y="67"/>
      <point x="372" y="57"/>
      <point x="368" y="32" type="curve" smooth="yes"/>
      <point x="356" y="-51" type="line" smooth="yes"/>
      <point x="348" y="-101"/>
      <point x="358" y="-126"/>
      <point x="407" y="-126" type="curve" smooth="yes"/>
    </contour>
  </outline>
</glyph>
<glyph name="ascript" format="1">
  <advance width="746"/>
  <unicode hex="0251"/>
  <outline>
    <contour>
      <point x="675" y="530" type="line"/>
      <point x="675" y="652"/>
      <point x="615" y="735"/>
      <point x="366" y="735" type="curve" smooth="yes"/>
      <point x="119" y="735"/>
      <point x="58" y="653"/>
      <point x="58" y="531" type="curve" smooth="yes"/>
      <point x="58" y="205" type="line" smooth="yes"/>
      <point x="58" y="66"/>
      <point x="136" y="0"/>
      <point x="304" y="0" type="curve" smooth="yes"/>
      <point x="641" y="0" type="line" smooth="yes"/>
      <point x="666" y="0"/>
      <point x="677" y="11"/>
      <point x="677" y="36" type="curve" smooth="yes"/>
    </contour>
    <contour>
      <point x="284" y="495" type="line" smooth="yes"/>
      <point x="284" y="521"/>
      <point x="296" y="541"/>
      <point x="366" y="541" type="curve" smooth="yes"/>
      <point x="439" y="541"/>
      <point x="450" y="523"/>
      <point x="450" y="497" type="curve"/>
      <point x="450" y="192" type="line"/>
      <point x="331" y="190" type="line" smooth="yes"/>
      <point x="299" y="189"/>
      <point x="284" y="205"/>
      <point x="284" y="239" type="curve" smooth="yes"/>
    </contour>
    <contour>
      <point x="326" y="100" type="curve"/>
      <point x="558" y="100" type="line"/>
      <point x="558" y="507" type="line" smooth="yes"/>
      <point x="558" y="582"/>
      <point x="514" y="632"/>
      <point x="366" y="632" type="curve" smooth="yes"/>
      <point x="218" y="632"/>
      <point x="176" y="582"/>
      <point x="176" y="507" type="curve" smooth="yes"/>
      <point x="176" y="225" type="line" smooth="yes"/>
      <point x="176" y="150"/>
      <point x="209" y="100"/>
    </contour>
    <contour>
      <point x="326" y="90" type="line"/>
      <point x="201" y="90"/>
      <point x="166" y="144"/>
      <point x="166" y="225" type="curve" smooth="yes"/>
      <point x="166" y="507" type="line" smooth="yes"/>
      <point x="166" y="588"/>
      <point x="210" y="642"/>
      <point x="366" y="642" type="curve" smooth="yes"/>
      <point x="522" y="642"/>
      <point x="568" y="588"/>
      <point x="568" y="507" type="curve" smooth="yes"/>
      <point x="568" y="90" type="line"/>
    </contour>
    <contour>
      <point x="294" y="494" type="curve" smooth="yes"/>
      <point x="294" y="238" type="line" smooth="yes"/>
      <point x="294" y="211"/>
      <point x="306" y="201"/>
      <point x="331" y="201" type="curve" smooth="yes"/>
      <point x="450" y="201" type="line"/>
      <point x="440" y="191" type="line"/>
      <point x="440" y="496" type="line" smooth="yes"/>
      <point x="440" y="519"/>
      <point x="422" y="530"/>
      <point x="366" y="530" type="curve" smooth="yes"/>
      <point x="311" y="530"/>
      <point x="294" y="517"/>
    </contour>
    <contour>
      <point x="685" y="530" type="curve"/>
      <point x="685" y="530" type="line"/>
      <point x="687" y="36" type="line" smooth="yes"/>
      <point x="687" y="4"/>
      <point x="673" y="-10"/>
      <point x="641" y="-10" type="curve" smooth="yes"/>
      <point x="304" y="-10" type="line" smooth="yes"/>
      <point x="128" y="-10"/>
      <point x="48" y="59"/>
      <point x="48" y="204" type="curve" smooth="yes"/>
      <point x="48" y="530" type="line" smooth="yes"/>
      <point x="48" y="656"/>
      <point x="107" y="745"/>
      <point x="366" y="745" type="curve" smooth="yes"/>
      <point x="627" y="745"/>
      <point x="685" y="656"/>
    </contour>
  </outline>
</glyph>
<glyph name="gscript" format="1">
  <advance width="715"/>
  <unicode hex="0261"/>
  <outline>
    <contour>
      <point x="50.0" y="530" type="line"/>
      <point x="50.0" y="652"/>
      <point x="111.0" y="735"/>
      <point x="358.0" y="735" type="curve" smooth="yes"/>
      <point x="607.0" y="735"/>
      <point x="667.0" y="652"/>
      <point x="667.0" y="530" type="curve"/>
      <point x="667.0" y="143" type="line" smooth="yes"/>
      <point x="667.0" y="22"/>
      <point x="610.0" y="-61"/>
      <point x="421.0" y="-61" type="curve" smooth="yes"/>
      <point x="167.0" y="-61" type="line" smooth="yes"/>
      <point x="142.0" y="-61"/>
      <point x="131.0" y="-50"/>
      <point x="131.0" y="-25" type="curve" smooth="yes"/>
      <point x="131.0" y="92" type="line" smooth="yes"/>
      <point x="131.0" y="117"/>
      <point x="142.0" y="128"/>
      <point x="167.0" y="128" type="curve" smooth="yes"/>
      <point x="378.0" y="128" type="line" smooth="yes"/>
      <point x="430.0" y="128"/>
      <point x="439.0" y="148"/>
      <point x="439.0" y="176" type="curve" smooth="yes"/>
      <point x="439.0" y="210" type="line"/>
      <point x="294.0" y="210" type="line" smooth="yes"/>
      <point x="126.0" y="210"/>
      <point x="50.0" y="275"/>
      <point x="50.0" y="414" type="curve" smooth="yes"/>
    </contour>
    <contour>
      <point x="440.0" y="496" type="line"/>
      <point x="440.0" y="522"/>
      <point x="431.0" y="540"/>
      <point x="358.0" y="540" type="curve" smooth="yes"/>
      <point x="288.0" y="540"/>
      <point x="276.0" y="520"/>
      <point x="276.0" y="494" type="curve"/>
      <point x="276.0" y="448" type="line" smooth="yes"/>
      <point x="276.0" y="414"/>
      <point x="291.0" y="399"/>
      <point x="323.0" y="399" type="curve" smooth="yes"/>
      <point x="440.0" y="399" type="line"/>
    </contour>
    <contour>
      <point x="167" y="-71" type="curve" smooth="yes"/>
      <point x="421" y="-71" type="line" smooth="yes"/>
      <point x="619" y="-71"/>
      <point x="677" y="17"/>
      <point x="677" y="143" type="curve" smooth="yes"/>
      <point x="677" y="530" type="line" smooth="yes"/>
      <point x="677" y="656"/>
      <point x="619" y="745"/>
      <point x="358" y="745" type="curve" smooth="yes"/>
      <point x="99" y="745"/>
      <point x="40" y="656"/>
      <point x="40" y="530" type="curve" smooth="yes"/>
      <point x="40" y="414" type="line" smooth="yes"/>
      <point x="40" y="269"/>
      <point x="118" y="200"/>
      <point x="294" y="200" type="curve" smooth="yes"/>
      <point x="429" y="200" type="line"/>
      <point x="429" y="176" type="line" smooth="yes"/>
      <point x="429" y="153"/>
      <point x="419" y="138"/>
      <point x="378" y="138" type="curve" smooth="yes"/>
      <point x="167" y="138" type="line" smooth="yes"/>
      <point x="135" y="138"/>
      <point x="121" y="124"/>
      <point x="121" y="92" type="curve" smooth="yes"/>
      <point x="121" y="-25" type="line" smooth="yes"/>
      <point x="121" y="-57"/>
      <point x="135" y="-71"/>
    </contour>
    <contour>
      <point x="323" y="409" type="line" smooth="yes"/>
      <point x="298" y="409"/>
      <point x="286" y="421"/>
      <point x="286" y="448" type="curve" smooth="yes"/>
      <point x="286" y="494" type="line" smooth="yes"/>
      <point x="286" y="517"/>
      <point x="303" y="530"/>
      <point x="358" y="530" type="curve" smooth="yes"/>
      <point x="414" y="530"/>
      <point x="430" y="519"/>
      <point x="430" y="496" type="curve" smooth="yes"/>
      <point x="430" y="409" type="line"/>
    </contour>
    <contour>
      <point x="358" y="300" type="line"/>
      <point x="245" y="300"/>
      <point x="158" y="305"/>
      <point x="158" y="408" type="curve" smooth="yes"/>
      <point x="158" y="519" type="line" smooth="yes"/>
      <point x="158" y="620"/>
      <point x="246" y="635"/>
      <point x="361" y="635" type="curve" smooth="yes"/>
      <point x="472" y="635"/>
      <point x="558" y="622"/>
      <point x="558" y="519" type="curve" smooth="yes"/>
      <point x="558" y="144" type="line" smooth="yes"/>
      <point x="558" y="55"/>
      <point x="509" y="29"/>
      <point x="424" y="29" type="curve" smooth="yes"/>
      <point x="216" y="29" type="line"/>
      <point x="216" y="39" type="line"/>
      <point x="424" y="39" type="line" smooth="yes"/>
      <point x="501" y="39"/>
      <point x="548" y="61"/>
      <point x="548" y="144" type="curve" smooth="yes"/>
      <point x="548" y="519" type="line" smooth="yes"/>
      <point x="548" y="616"/>
      <point x="462" y="625"/>
      <point x="361" y="625" type="curve" smooth="yes"/>
      <point x="255" y="625"/>
      <point x="168" y="614"/>
      <point x="168" y="519" type="curve" smooth="yes"/>
      <point x="168" y="408" type="line" smooth="yes"/>
      <point x="168" y="311"/>
      <point x="256" y="310"/>
      <point x="358" y="310" type="curve"/>
      <point x="548" y="310" type="line"/>
      <point x="548" y="300" type="line"/>
    </contour>
  </outline>
</glyph>
<glyph name="breve" format="1">
  <advance width="500"/>
  <unicode hex="02D8"/>
  <outline>
    <contour>
      <point x="477.0" y="941" type="line" smooth="yes"/>
      <point x="477.0" y="973"/>
      <point x="463.0" y="987"/>
      <point x="431.0" y="987" type="curve" smooth="yes"/>
      <point x="340.0" y="987" type="line" smooth="yes"/>
      <point x="310.0" y="987"/>
      <point x="300.0" y="978"/>
      <point x="300.0" y="946" type="curve" smooth="yes"/>
      <point x="300.0" y="925" type="line" smooth="yes"/>
      <point x="300.0" y="909"/>
      <point x="286.0" y="902"/>
      <point x="251.0" y="902" type="curve" smooth="yes"/>
      <point x="217.0" y="902"/>
      <point x="204.0" y="909"/>
      <point x="204.0" y="925" type="curve" smooth="yes"/>
      <point x="204.0" y="946" type="line" smooth="yes"/>
      <point x="204.0" y="978"/>
      <point x="193.0" y="987"/>
      <point x="165.0" y="987" type="curve" smooth="yes"/>
      <point x="69.0" y="987" type="line" smooth="yes"/>
      <point x="37.0" y="987"/>
      <point x="23.0" y="973"/>
      <point x="23.0" y="941" type="curve" smooth="yes"/>
      <point x="23.0" y="897" type="line"/>
      <point x="23.0" y="808"/>
      <point x="64.0" y="744"/>
      <point x="250.0" y="744" type="curve" smooth="yes"/>
      <point x="436.0" y="744"/>
      <point x="477.0" y="808"/>
      <point x="477.0" y="897" type="curve" smooth="yes"/>
    </contour>
    <contour>
      <point x="467.0" y="897" type="line"/>
      <point x="467.0" y="812"/>
      <point x="424.0" y="754"/>
      <point x="250.0" y="754" type="curve" smooth="yes"/>
      <point x="76.0" y="754"/>
      <point x="33.0" y="812"/>
      <point x="33.0" y="897" type="curve" smooth="yes"/>
      <point x="33.0" y="941" type="line" smooth="yes"/>
      <point x="33.0" y="966"/>
      <point x="44.0" y="977"/>
      <point x="69.0" y="977" type="curve" smooth="yes"/>
      <point x="165.0" y="977" type="line" smooth="yes"/>
      <point x="186.0" y="977"/>
      <point x="194.0" y="970"/>
      <point x="194.0" y="946" type="curve" smooth="yes"/>
      <point x="194.0" y="925" type="line" smooth="yes"/>
      <point x="194.0" y="906"/>
      <point x="202.0" y="892"/>
      <point x="251.0" y="892" type="curve" smooth="yes"/>
      <point x="301.0" y="892"/>
      <point x="310.0" y="906"/>
      <point x="310.0" y="925" type="curve" smooth="yes"/>
      <point x="310.0" y="946" type="line" smooth="yes"/>
      <point x="310.0" y="970"/>
      <point x="317.0" y="977"/>
      <point x="340.0" y="977" type="curve" smooth="yes"/>
      <point x="431.0" y="977" type="line"/>
      <point x="456.0" y="977"/>
      <point x="467.0" y="966"/>
      <point x="467.0" y="941" type="curve" smooth="yes"/>
    </contour>
    <contour>
      <point x="384.0" y="907" type="line"/>
      <point x="384.0" y="898" type="line" smooth="yes"/>
      <point x="384.0" y="862"/>
      <point x="357.0" y="828"/>
      <point x="249.0" y="828" type="curve" smooth="yes"/>
      <point x="141.0" y="828"/>
      <point x="119.0" y="862"/>
      <point x="119.0" y="898" type="curve" smooth="yes"/>
      <point x="119.0" y="907" type="line"/>
      <point x="109.0" y="907" type="line"/>
      <point x="109.0" y="898" type="line" smooth="yes"/>
      <point x="109.0" y="860"/>
      <point x="125.0" y="818"/>
      <point x="249.0" y="818" type="curve" smooth="yes"/>
      <point x="373.0" y="818"/>
      <point x="394.0" y="860"/>
      <point x="394.0" y="898" type="curve" smooth="yes"/>
      <point x="394.0" y="907" type="line"/>
    </contour>
    <contour>
      <point x="250.0" y="747.0" type="move" name="_top"/>
    </contour>
    <contour>
      <point x="250.0" y="0.0" type="move" name="_bottom"/>
    </contour>
  </outline>
</glyph>
<glyph name="hungarumlaut" format="1">
  <advance width="500"/>
  <unicode hex="02DD"/>
  <outline>
    <contour>
      <point x="288.0" y="750" type="curve" smooth="yes"/>
      <point x="394.0" y="750" type="line" smooth="yes"/>
      <point x="425.0" y="750"/>
      <point x="432.0" y="763"/>
      <point x="440.0" y="794" type="curve" smooth="yes"/>
      <point x="493.0" y="1001" type="line" smooth="yes"/>
      <point x="500.0" y="1029"/>
      <point x="482.0" y="1047"/>
      <point x="450.0" y="1047" type="curve" smooth="yes"/>
      <point x="344.0" y="1047" type="line" smooth="yes"/>
      <point x="313.0" y="1047"/>
      <point x="306.0" y="1034"/>
      <point x="298.0" y="1003" type="curve" smooth="yes"/>
      <point x="245.0" y="796" type="line"/>
      <point x="245.0" y="797" type="line"/>
      <point x="238.0" y="768"/>
      <point x="256.0" y="750"/>
    </contour>
    <contour>
      <point x="28.0" y="750" type="curve" smooth="yes"/>
      <point x="134.0" y="750" type="line" smooth="yes"/>
      <point x="165.0" y="750"/>
      <point x="172.0" y="763"/>
      <point x="180.0" y="794" type="curve" smooth="yes"/>
      <point x="233.0" y="1001" type="line" smooth="yes"/>
      <point x="240.0" y="1029"/>
      <point x="222.0" y="1047"/>
      <point x="190.0" y="1047" type="curve" smooth="yes"/>
      <point x="84.0" y="1047" type="line" smooth="yes"/>
      <point x="53.0" y="1047"/>
      <point x="46.0" y="1034"/>
      <point x="38.0" y="1003" type="curve" smooth="yes"/>
      <point x="-15.0" y="796" type="line"/>
      <point x="-15.0" y="797" type="line"/>
      <point x="-22.0" y="768"/>
      <point x="-4.0" y="750"/>
    </contour>
    <contour>
      <point x="255.0" y="794" type="curve" smooth="yes"/>
      <point x="308.0" y="1001" type="line" smooth="yes"/>
      <point x="314.0" y="1025"/>
      <point x="319.0" y="1037"/>
      <point x="344.0" y="1037" type="curve" smooth="yes"/>
      <point x="450.0" y="1037" type="line" smooth="yes"/>
      <point x="473.0" y="1037"/>
      <point x="489.0" y="1025"/>
      <point x="483.0" y="1003" type="curve" smooth="yes"/>
      <point x="430.0" y="796" type="line" smooth="yes"/>
      <point x="424.0" y="772"/>
      <point x="419.0" y="760"/>
      <point x="394.0" y="760" type="curve" smooth="yes"/>
      <point x="288.0" y="760" type="line" smooth="yes"/>
      <point x="265.0" y="760"/>
      <point x="249.0" y="772"/>
    </contour>
    <contour>
      <point x="-5.0" y="794" type="curve" smooth="yes"/>
      <point x="48.0" y="1001" type="line" smooth="yes"/>
      <point x="54.0" y="1025"/>
      <point x="59.0" y="1037"/>
      <point x="84.0" y="1037" type="curve" smooth="yes"/>
      <point x="190.0" y="1037" type="line" smooth="yes"/>
      <point x="213.0" y="1037"/>
      <point x="229.0" y="1025"/>
      <point x="223.0" y="1003" type="curve" smooth="yes"/>
      <point x="170.0" y="796" type="line" smooth="yes"/>
      <point x="164.0" y="772"/>
      <point x="159.0" y="760"/>
      <point x="134.0" y="760" type="curve" smooth="yes"/>
      <point x="28.0" y="760" type="line" smooth="yes"/>
      <point x="5.0" y="760"/>
      <point x="-11.0" y="772"/>
    </contour>
    <contour>
      <point x="102.0" y="850" type="line"/>
      <point x="127.0" y="947" type="line"/>
      <point x="116.0" y="947" type="line"/>
      <point x="91.0" y="850" type="line"/>
    </contour>
    <contour>
      <point x="362.0" y="850" type="line"/>
      <point x="387.0" y="947" type="line"/>
      <point x="376.0" y="947" type="line"/>
      <point x="351.0" y="850" type="line"/>
    </contour>
  </outline>
</glyph>
<glyph name="horncmb" format="1">
  <advance width="0"/>
  <unicode hex="031B"/>
  <outline>
    <contour>
      <point x="103.0" y="765" type="line" smooth="yes"/>
      <point x="103.0" y="797"/>
      <point x="89.0" y="811"/>
      <point x="57.0" y="811" type="curve" smooth="yes"/>
      <point x="-54.0" y="811" type="line" smooth="yes"/>
      <point x="-84.0" y="811"/>
      <point x="-94.0" y="802"/>
      <point x="-94.0" y="770" type="curve" smooth="yes"/>
      <point x="-94.0" y="749" type="line" smooth="yes"/>
      <point x="-94.0" y="735"/>
      <point x="-102.0" y="730"/>
      <point x="-124.0" y="730" type="curve" smooth="yes"/>
      <point x="-134.0" y="730" type="line"/>
      <point x="-134.0" y="568" type="line"/>
      <point x="-124.0" y="568" type="line" smooth="yes"/>
      <point x="62.0" y="568"/>
      <point x="103.0" y="632"/>
      <point x="103.0" y="721" type="curve" smooth="yes"/>
    </contour>
    <contour>
      <point x="93.0" y="721" type="line"/>
      <point x="93.0" y="636"/>
      <point x="50.0" y="578"/>
      <point x="-124.0" y="578" type="curve"/>
      <point x="-124.0" y="720" type="line"/>
      <point x="-91.0" y="720"/>
      <point x="-84.0" y="730"/>
      <point x="-84.0" y="749" type="curve" smooth="yes"/>
      <point x="-84.0" y="770" type="line" smooth="yes"/>
      <point x="-84.0" y="794"/>
      <point x="-77.0" y="801"/>
      <point x="-54.0" y="801" type="curve" smooth="yes"/>
      <point x="57.0" y="801" type="line"/>
      <point x="82.0" y="801"/>
      <point x="93.0" y="790"/>
      <point x="93.0" y="765" type="curve" smooth="yes"/>
    </contour>
    <contour>
      <point x="-99.0" y="632" type="line"/>
      <point x="-19.0" y="632"/>
      <point x="6.0" y="680"/>
      <point x="6.0" y="724" type="curve" smooth="yes"/>
      <point x="6.0" y="733" type="line"/>
      <point x="-4.0" y="733" type="line"/>
      <point x="-4.0" y="724" type="line" smooth="yes"/>
      <point x="-4.0" y="682"/>
      <point x="-33.0" y="642"/>
      <point x="-99.0" y="642" type="curve"/>
    </contour>
  </outline>
</glyph>
<glyph name="endash" format="1">
  <advance width="734"/>
  <unicode hex="2013"/>
  <outline>
    <contour>
      <point x="628.0" y="247" type="line" smooth="yes"/>
      <point x="660.0" y="247"/>
      <point x="674.0" y="260"/>
      <point x="674.0" y="293" type="curve" smooth="yes"/>
      <point x="674.0" y="427" type="line" smooth="yes"/>
      <point x="674.0" y="460"/>
      <point x="660.0" y="473"/>
      <point x="628.0" y="473" type="curve" smooth="yes"/>
      <point x="106.0" y="473" type="line" smooth="yes"/>
      <point x="74.0" y="473"/>
      <point x="60.0" y="459"/>
      <point x="60.0" y="427" type="curve" smooth="yes"/>
      <point x="60.0" y="293" type="line" smooth="yes"/>
      <point x="60.0" y="260"/>
      <point x="74.0" y="247"/>
      <point x="106.0" y="247" type="curve" smooth="yes"/>
    </contour>
    <contour>
      <point x="106.0" y="257" type="line"/>
      <point x="81.0" y="257"/>
      <point x="70.0" y="267"/>
      <point x="70.0" y="293" type="curve" smooth="yes"/>
      <point x="70.0" y="427" type="line" smooth="yes"/>
      <point x="70.0" y="452"/>
      <point x="81.0" y="463"/>
      <point x="106.0" y="463" type="curve" smooth="yes"/>
      <point x="628.0" y="463" type="line" smooth="yes"/>
      <point x="653.0" y="463"/>
      <point x="664.0" y="453"/>
      <point x="664.0" y="427" type="curve" smooth="yes"/>
      <point x="664.0" y="293" type="line" smooth="yes"/>
      <point x="664.0" y="267"/>
      <point x="653.0" y="257"/>
      <point x="628.0" y="257" type="curve" smooth="yes"/>
    </contour>
    <contour>
      <point x="574.0" y="365" type="line"/>
      <point x="160.0" y="365" type="line"/>
      <point x="160.0" y="355" type="line"/>
      <point x="574.0" y="355" type="line"/>
    </contour>
  </outline>
</glyph>
<glyph name="quotesinglbase" format="1">
  <advance width="384"/>
  <unicode hex="201A"/>
  <outline>
    <contour>
      <point x="104.0" y="-110" type="curve" smooth="yes"/>
      <point x="181.0" y="-110" type="line" smooth="yes"/>
      <point x="277.0" y="-110"/>
      <point x="339.0" y="-58"/>
      <point x="339.0" y="51" type="curve" smooth="yes"/>
      <point x="339.0" y="239" type="line" smooth="yes"/>
      <point x="339.0" y="271"/>
      <point x="325.0" y="285"/>
      <point x="293.0" y="285" type="curve" smooth="yes"/>
      <point x="91.0" y="285" type="line" smooth="yes"/>
      <point x="59.0" y="285"/>
      <point x="45.0" y="271"/>
      <point x="45.0" y="239" type="curve" smooth="yes"/>
      <point x="45.0" y="91" type="line" smooth="yes"/>
      <point x="45.0" y="59"/>
      <point x="59.0" y="45"/>
      <point x="91.0" y="45" type="curve" smooth="yes"/>
      <point x="190.0" y="45" type="line"/>
      <point x="190.0" y="40" type="line" smooth="yes"/>
      <point x="190.0" y="29"/>
      <point x="185.0" y="22"/>
      <point x="173.0" y="22" type="curve" smooth="yes"/>
      <point x="104.0" y="22" type="line" smooth="yes"/>
      <point x="72.0" y="22"/>
      <point x="58.0" y="8"/>
      <point x="58.0" y="-24" type="curve" smooth="yes"/>
      <point x="58.0" y="-64" type="line" smooth="yes"/>
      <point x="58.0" y="-97"/>
      <point x="72.0" y="-110"/>
    </contour>
    <contour>
      <point x="181.0" y="-100" type="curve" smooth="yes"/>
      <point x="104.0" y="-100" type="line" smooth="yes"/>
      <point x="79.0" y="-100"/>
      <point x="68.0" y="-90"/>
      <point x="68.0" y="-64" type="curve"/>
      <point x="68.0" y="-24" type="line"/>
      <point x="68.0" y="1"/>
      <point x="79.0" y="12"/>
      <point x="104.0" y="12" type="curve" smooth="yes"/>
      <point x="173.0" y="12" type="line" smooth="yes"/>
      <point x="191.0" y="12"/>
      <point x="200.0" y="22"/>
      <point x="200.0" y="40" type="curve" smooth="yes"/>
      <point x="200.0" y="55" type="line"/>
      <point x="91.0" y="55" type="line" smooth="yes"/>
      <point x="66.0" y="55"/>
      <point x="55.0" y="66"/>
      <point x="55.0" y="91" type="curve"/>
      <point x="55.0" y="239" type="line"/>
      <point x="55.0" y="264"/>
      <point x="66.0" y="275"/>
      <point x="91.0" y="275" type="curve" smooth="yes"/>
      <point x="293.0" y="275" type="line" smooth="yes"/>
      <point x="318.0" y="275"/>
      <point x="329.0" y="264"/>
      <point x="329.0" y="239" type="curve" smooth="yes"/>
      <point x="329.0" y="51" type="line" smooth="yes"/>
      <point x="329.0" y="-51"/>
      <point x="271.0" y="-100"/>
    </contour>
    <contour>
      <point x="259.0" y="170" type="line"/>
      <point x="125.0" y="170" type="line"/>
      <point x="125.0" y="160" type="line"/>
      <point x="249.0" y="160" type="line"/>
      <point x="249.0" y="51" type="line" smooth="yes"/>
      <point x="249.0" y="-3"/>
      <point x="219.0" y="-30"/>
      <point x="171.0" y="-30" type="curve" smooth="yes"/>
      <point x="125.0" y="-30" type="line"/>
      <point x="125.0" y="-40" type="line"/>
      <point x="171.0" y="-40" type="line" smooth="yes"/>
      <point x="225.0" y="-40"/>
      <point x="259.0" y="-10"/>
      <point x="259.0" y="51" type="curve" smooth="yes"/>
    </contour>
  </outline>
</glyph>
<glyph name="bullet" format="1">
  <advance width="443"/>
  <unicode hex="2022"/>
  <outline>
    <contour>
      <point x="408.0" y="221" type="curve" smooth="yes"/>
      <point x="408.0" y="503" type="line" smooth="yes"/>
      <point x="408.0" y="536"/>
      <point x="394.0" y="549"/>
      <point x="362.0" y="549" type="curve" smooth="yes"/>
      <point x="81.0" y="549" type="line" smooth="yes"/>
      <point x="49.0" y="549"/>
      <point x="35.0" y="536"/>
      <point x="35.0" y="503" type="curve" smooth="yes"/>
      <point x="35.0" y="221" type="line" smooth="yes"/>
      <point x="35.0" y="189"/>
      <point x="49.0" y="175"/>
      <point x="81.0" y="175" type="curve" smooth="yes"/>
      <point x="362.0" y="175" type="line" smooth="yes"/>
      <point x="394.0" y="175"/>
      <point x="408.0" y="189"/>
    </contour>
    <contour>
      <point x="362.0" y="185" type="curve" smooth="yes"/>
      <point x="81.0" y="185" type="line" smooth="yes"/>
      <point x="56.0" y="185"/>
      <point x="45.0" y="196"/>
      <point x="45.0" y="221" type="curve" smooth="yes"/>
      <point x="45.0" y="503" type="line" smooth="yes"/>
      <point x="45.0" y="529"/>
      <point x="56.0" y="539"/>
      <point x="81.0" y="539" type="curve" smooth="yes"/>
      <point x="362.0" y="539" type="line" smooth="yes"/>
      <point x="387.0" y="539"/>
      <point x="398.0" y="529"/>
      <point x="398.0" y="503" type="curve" smooth="yes"/>
      <point x="398.0" y="221" type="line" smooth="yes"/>
      <point x="398.0" y="196"/>
      <point x="387.0" y="185"/>
    </contour>
    <contour>
      <point x="308.0" y="449" type="line"/>
      <point x="135.0" y="449" type="line"/>
      <point x="135.0" y="275" type="line"/>
      <point x="308.0" y="275" type="line"/>
    </contour>
    <contour>
      <point x="298.0" y="439" type="line"/>
      <point x="298.0" y="285" type="line"/>
      <point x="145.0" y="285" type="line"/>
      <point x="145.0" y="439" type="line"/>
    </contour>
  </outline>
</glyph>
<glyph name="ellipsis" format="1">
  <advance width="1110"/>
  <unicode hex="2026"/>
  <outline>
    <contour>
      <point x="1065.0" y="36" type="curve" smooth="yes"/>
      <point x="1065.0" y="239" type="line" smooth="yes"/>
      <point x="1065.0" y="272"/>
      <point x="1051.0" y="285"/>
      <point x="1019.0" y="285" type="curve" smooth="yes"/>
      <point x="817.0" y="285" type="line" smooth="yes"/>
      <point x="785.0" y="285"/>
      <point x="771.0" y="272"/>
      <point x="771.0" y="239" type="curve" smooth="yes"/>
      <point x="771.0" y="36" type="line" smooth="yes"/>
      <point x="771.0" y="4"/>
      <point x="785.0" y="-10"/>
      <point x="817.0" y="-10" type="curve" smooth="yes"/>
      <point x="1019.0" y="-10" type="line" smooth="yes"/>
      <point x="1051.0" y="-10"/>
      <point x="1065.0" y="4"/>
    </contour>
    <contour>
      <point x="702.0" y="36" type="curve" smooth="yes"/>
      <point x="702.0" y="239" type="line" smooth="yes"/>
      <point x="702.0" y="272"/>
      <point x="688.0" y="285"/>
      <point x="656.0" y="285" type="curve" smooth="yes"/>
      <point x="454.0" y="285" type="line" smooth="yes"/>
      <point x="422.0" y="285"/>
      <point x="408.0" y="272"/>
      <point x="408.0" y="239" type="curve" smooth="yes"/>
      <point x="408.0" y="36" type="line" smooth="yes"/>
      <point x="408.0" y="4"/>
      <point x="422.0" y="-10"/>
      <point x="454.0" y="-10" type="curve" smooth="yes"/>
      <point x="656.0" y="-10" type="line" smooth="yes"/>
      <point x="688.0" y="-10"/>
      <point x="702.0" y="4"/>
    </contour>
    <contour>
      <point x="339.0" y="36" type="curve" smooth="yes"/>
      <point x="339.0" y="239" type="line" smooth="yes"/>
      <point x="339.0" y="272"/>
      <point x="325.0" y="285"/>
      <point x="293.0" y="285" type="curve" smooth="yes"/>
      <point x="91.0" y="285" type="line" smooth="yes"/>
      <point x="59.0" y="285"/>
      <point x="45.0" y="272"/>
      <point x="45.0" y="239" type="curve" smooth="yes"/>
      <point x="45.0" y="36" type="line" smooth="yes"/>
      <point x="45.0" y="4"/>
      <point x="59.0" y="-10"/>
      <point x="91.0" y="-10" type="curve" smooth="yes"/>
      <point x="293.0" y="-10" type="line" smooth="yes"/>
      <point x="325.0" y="-10"/>
      <point x="339.0" y="4"/>
    </contour>
    <contour>
      <point x="1019.0" y="0" type="curve" smooth="yes"/>
      <point x="817.0" y="0" type="line" smooth="yes"/>
      <point x="792.0" y="0"/>
      <point x="781.0" y="11"/>
      <point x="781.0" y="36" type="curve"/>
      <point x="781.0" y="239" type="line"/>
      <point x="781.0" y="265"/>
      <point x="792.0" y="275"/>
      <point x="817.0" y="275" type="curve" smooth="yes"/>
      <point x="1019.0" y="275" type="line" smooth="yes"/>
      <point x="1044.0" y="275"/>
      <point x="1055.0" y="265"/>
      <point x="1055.0" y="239" type="curve" smooth="yes"/>
      <point x="1055.0" y="36" type="line" smooth="yes"/>
      <point x="1055.0" y="11"/>
      <point x="1044.0" y="0"/>
    </contour>
    <contour>
      <point x="656.0" y="0" type="curve" smooth="yes"/>
      <point x="454.0" y="0" type="line" smooth="yes"/>
      <point x="429.0" y="0"/>
      <point x="418.0" y="11"/>
      <point x="418.0" y="36" type="curve"/>
      <point x="418.0" y="239" type="line"/>
      <point x="418.0" y="265"/>
      <point x="429.0" y="275"/>
      <point x="454.0" y="275" type="curve" smooth="yes"/>
      <point x="656.0" y="275" type="line" smooth="yes"/>
      <point x="681.0" y="275"/>
      <point x="692.0" y="265"/>
      <point x="692.0" y="239" type="curve" smooth="yes"/>
      <point x="692.0" y="36" type="line" smooth="yes"/>
      <point x="692.0" y="11"/>
      <point x="681.0" y="0"/>
    </contour>
    <contour>
      <point x="293.0" y="0" type="curve" smooth="yes"/>
      <point x="91.0" y="0" type="line" smooth="yes"/>
      <point x="66.0" y="0"/>
      <point x="55.0" y="11"/>
      <point x="55.0" y="36" type="curve"/>
      <point x="55.0" y="239" type="line"/>
      <point x="55.0" y="265"/>
      <point x="66.0" y="275"/>
      <point x="91.0" y="275" type="curve" smooth="yes"/>
      <point x="293.0" y="275" type="line" smooth="yes"/>
      <point x="318.0" y="275"/>
      <point x="329.0" y="265"/>
      <point x="329.0" y="239" type="curve" smooth="yes"/>
      <point x="329.0" y="36" type="line" smooth="yes"/>
      <point x="329.0" y="11"/>
      <point x="318.0" y="0"/>
    </contour>
    <contour>
      <point x="187.0" y="90" type="line"/>
      <point x="197.0" y="90" type="line"/>
      <point x="197.0" y="185" type="line"/>
      <point x="187.0" y="185" type="line"/>
    </contour>
    <contour>
      <point x="550.0" y="90" type="line"/>
      <point x="560.0" y="90" type="line"/>
      <point x="560.0" y="185" type="line"/>
      <point x="550.0" y="185" type="line"/>
    </contour>
    <contour>
      <point x="913.0" y="90" type="line"/>
      <point x="923.0" y="90" type="line"/>
      <point x="923.0" y="185" type="line"/>
      <point x="913.0" y="185" type="line"/>
    </contour>
  </outline>
</glyph>
<glyph name="second" format="1">
  <advance width="665.50617284"/>
  <unicode hex="2033"/>
  <outline>
    <contour>
      <point x="602.0" y="385" type="curve" smooth="yes"/>
      <point x="630.0" y="678" type="line" smooth="yes"/>
      <point x="634.0" y="720"/>
      <point x="622.0" y="730"/>
      <point x="581.0" y="730" type="curve" smooth="yes"/>
      <point x="416.0" y="730" type="line" smooth="yes"/>
      <point x="375.0" y="730"/>
      <point x="367.0" y="721"/>
      <point x="366.0" y="679" type="curve" smooth="yes"/>
      <point x="354.0" y="386" type="line" smooth="yes"/>
      <point x="353.0" y="345"/>
      <point x="365.0" y="335"/>
      <point x="406.0" y="335" type="curve" smooth="yes"/>
      <point x="550.0" y="335" type="line" smooth="yes"/>
      <point x="590.0" y="335"/>
      <point x="598.0" y="344"/>
    </contour>
    <contour>
      <point x="292.0" y="385" type="curve" smooth="yes"/>
      <point x="320.0" y="678" type="line" smooth="yes"/>
      <point x="324.0" y="720"/>
      <point x="312.0" y="730"/>
      <point x="271.0" y="730" type="curve" smooth="yes"/>
      <point x="106.0" y="730" type="line" smooth="yes"/>
      <point x="65.0" y="730"/>
      <point x="57.0" y="721"/>
      <point x="56.0" y="679" type="curve" smooth="yes"/>
      <point x="44.0" y="386" type="line" smooth="yes"/>
      <point x="43.0" y="345"/>
      <point x="55.0" y="335"/>
      <point x="96.0" y="335" type="curve" smooth="yes"/>
      <point x="240.0" y="335" type="line" smooth="yes"/>
      <point x="280.0" y="335"/>
      <point x="288.0" y="344"/>
    </contour>
    <contour>
      <point x="550.0" y="345" type="curve" smooth="yes"/>
      <point x="406.0" y="345" type="line" smooth="yes"/>
      <point x="373.0" y="345"/>
      <point x="363.0" y="353"/>
      <point x="364.0" y="386" type="curve" smooth="yes"/>
      <point x="376.0" y="679" type="line" smooth="yes"/>
      <point x="377.0" y="712"/>
      <point x="383.0" y="720"/>
      <point x="416.0" y="720" type="curve" smooth="yes"/>
      <point x="581.0" y="720" type="line" smooth="yes"/>
      <point x="613.0" y="720"/>
      <point x="623.0" y="712"/>
      <point x="620.0" y="679" type="curve" smooth="yes"/>
      <point x="592.0" y="386" type="line" smooth="yes"/>
      <point x="589.0" y="353"/>
      <point x="583.0" y="345"/>
    </contour>
    <contour>
      <point x="240.0" y="345" type="curve" smooth="yes"/>
      <point x="96.0" y="345" type="line" smooth="yes"/>
      <point x="63.0" y="345"/>
      <point x="53.0" y="353"/>
      <point x="54.0" y="386" type="curve" smooth="yes"/>
      <point x="66.0" y="679" type="line" smooth="yes"/>
      <point x="67.0" y="712"/>
      <point x="73.0" y="720"/>
      <point x="106.0" y="720" type="curve" smooth="yes"/>
      <point x="271.0" y="720" type="line" smooth="yes"/>
      <point x="303.0" y="720"/>
      <point x="313.0" y="712"/>
      <point x="310.0" y="679" type="curve" smooth="yes"/>
      <point x="282.0" y="386" type="line" smooth="yes"/>
      <point x="279.0" y="353"/>
      <point x="273.0" y="345"/>
    </contour>
    <contour>
      <point x="177.0" y="435" type="line"/>
      <point x="191.0" y="630" type="line"/>
      <point x="180.0" y="630" type="line"/>
      <point x="166.0" y="435" type="line"/>
    </contour>
    <contour>
      <point x="487.0" y="435" type="line"/>
      <point x="501.0" y="630" type="line"/>
      <point x="490.0" y="630" type="line"/>
      <point x="476.0" y="435" type="line"/>
    </contour>
  </outline>
</glyph>
<glyph name="guilsinglright" format="1">
  <advance width="563"/>
  <unicode hex="203A"/>
  <outline>
    <contour>
      <point x="118.0" y="94" type="curve" smooth="yes"/>
      <point x="378.0" y="147" type="line"/>
      <point x="468.0" y="165"/>
      <point x="513.0" y="207"/>
      <point x="513.0" y="312" type="curve" smooth="yes"/>
      <point x="513.0" y="386" type="line" smooth="yes"/>
      <point x="513.0" y="491"/>
      <point x="468.0" y="533"/>
      <point x="378.0" y="551" type="curve" smooth="yes"/>
      <point x="118.0" y="604" type="line" smooth="yes"/>
      <point x="85.0" y="610"/>
      <point x="70.0" y="598"/>
      <point x="70.0" y="563" type="curve" smooth="yes"/>
      <point x="70.0" y="436" type="line" smooth="yes"/>
      <point x="70.0" y="404"/>
      <point x="83.0" y="390"/>
      <point x="114.0" y="385" type="curve" smooth="yes"/>
      <point x="280.0" y="358" type="line" smooth="yes"/>
      <point x="287.0" y="357"/>
      <point x="289.0" y="355"/>
      <point x="289.0" y="349" type="curve" smooth="yes"/>
      <point x="289.0" y="343"/>
      <point x="287.0" y="341"/>
      <point x="281.0" y="340" type="curve" smooth="yes"/>
      <point x="114.0" y="313" type="line" smooth="yes"/>
      <point x="83.0" y="308"/>
      <point x="70.0" y="294"/>
      <point x="70.0" y="262" type="curve" smooth="yes"/>
      <point x="70.0" y="135" type="line" smooth="yes"/>
      <point x="70.0" y="100"/>
      <point x="85.0" y="88"/>
    </contour>
    <contour>
      <point x="376.0" y="157" type="curve"/>
      <point x="116.0" y="104" type="line" smooth="yes"/>
      <point x="91.0" y="99"/>
      <point x="80.0" y="109"/>
      <point x="80.0" y="135" type="curve" smooth="yes"/>
      <point x="80.0" y="262" type="line" smooth="yes"/>
      <point x="80.0" y="288"/>
      <point x="91.0" y="299"/>
      <point x="116.0" y="303" type="curve" smooth="yes"/>
      <point x="282.0" y="330" type="line" smooth="yes"/>
      <point x="296.0" y="332"/>
      <point x="299.0" y="337"/>
      <point x="299.0" y="349" type="curve" smooth="yes"/>
      <point x="299.0" y="361"/>
      <point x="296.0" y="366"/>
      <point x="282.0" y="368" type="curve" smooth="yes"/>
      <point x="116.0" y="395" type="line" smooth="yes"/>
      <point x="91.0" y="399"/>
      <point x="80.0" y="410"/>
      <point x="80.0" y="436" type="curve" smooth="yes"/>
      <point x="80.0" y="563" type="line" smooth="yes"/>
      <point x="80.0" y="589"/>
      <point x="91.0" y="599"/>
      <point x="116.0" y="594" type="curve" smooth="yes"/>
      <point x="376.0" y="541" type="line" smooth="yes"/>
      <point x="461.0" y="524"/>
      <point x="503.0" y="485"/>
      <point x="503.0" y="386" type="curve" smooth="yes"/>
      <point x="503.0" y="312" type="line" smooth="yes"/>
      <point x="503.0" y="213"/>
      <point x="461.0" y="174"/>
    </contour>
    <contour>
      <point x="170.0" y="208" type="line"/>
      <point x="357.0" y="246" type="line" smooth="yes"/>
      <point x="393.0" y="253"/>
      <point x="410.0" y="270"/>
      <point x="410.0" y="310" type="curve" smooth="yes"/>
      <point x="410.0" y="388" type="line" smooth="yes"/>
      <point x="410.0" y="428"/>
      <point x="393.0" y="445"/>
      <point x="358.0" y="452" type="curve" smooth="yes"/>
      <point x="170.0" y="490" type="line"/>
      <point x="170.0" y="480" type="line"/>
      <point x="356.0" y="442" type="line" smooth="yes"/>
      <point x="385.0" y="436"/>
      <point x="400.0" y="422"/>
      <point x="400.0" y="388" type="curve" smooth="yes"/>
      <point x="400.0" y="310" type="line" smooth="yes"/>
      <point x="400.0" y="276"/>
      <point x="385.0" y="262"/>
      <point x="355.0" y="256" type="curve" smooth="yes"/>
      <point x="170.0" y="218" type="line"/>
    </contour>
  </outline>
</glyph>
<glyph name="fraction" format="1">
  <advance width="317"/>
  <unicode hex="2044"/>
  <outline>
    <contour>
      <point x="41.0" y="-10" type="curve" smooth="yes"/>
      <point x="156.0" y="-10" type="line" smooth="yes"/>
      <point x="187.0" y="-10"/>
      <point x="195.0" y="2"/>
      <point x="202.0" y="34" type="curve" smooth="yes"/>
      <point x="322.0" y="682" type="line" smooth="yes"/>
      <point x="328.0" y="714"/>
      <point x="310.0" y="730"/>
      <point x="276.0" y="730" type="curve" smooth="yes"/>
      <point x="161.0" y="730" type="line" smooth="yes"/>
      <point x="130.0" y="730"/>
      <point x="122.0" y="718"/>
      <point x="115.0" y="686" type="curve" smooth="yes"/>
      <point x="-5.0" y="38" type="line"/>
      <point x="-11.0" y="6"/>
      <point x="7.0" y="-10"/>
    </contour>
    <contour>
      <point x="5.0" y="36" type="curve" smooth="yes"/>
      <point x="125.0" y="684" type="line" smooth="yes"/>
      <point x="130.0" y="709"/>
      <point x="136.0" y="720"/>
      <point x="161.0" y="720" type="curve" smooth="yes"/>
      <point x="276.0" y="720" type="line" smooth="yes"/>
      <point x="301.0" y="720"/>
      <point x="317.0" y="709"/>
      <point x="312.0" y="684" type="curve" smooth="yes"/>
      <point x="192.0" y="36" type="line" smooth="yes"/>
      <point x="187.0" y="11"/>
      <point x="181.0" y="0"/>
      <point x="156.0" y="0" type="curve" smooth="yes"/>
      <point x="41.0" y="0" type="line" smooth="yes"/>
      <point x="16.0" y="0"/>
      <point x="0.0" y="11"/>
    </contour>
    <contour>
      <point x="114.0" y="90" type="line"/>
      <point x="214.0" y="630" type="line"/>
      <point x="204.0" y="630" type="line"/>
      <point x="104.0" y="90" type="line"/>
    </contour>
  </outline>
</glyph>
<glyph name="naira" format="1">
  <advance width="753"/>
  <unicode hex="20A6"/>
  <outline>
    <contour>
      <point x="201" y="622" type="line"/>
      <point x="194" y="629"/>
      <point x="192" y="631"/>
      <point x="186" y="631" type="curve" smooth="yes"/>
      <point x="180" y="631"/>
      <point x="174" y="627"/>
      <point x="174" y="619" type="curve" smooth="yes"/>
      <point x="174" y="90" type="line"/>
      <point x="184" y="90" type="line"/>
      <point x="184" y="617" type="line" smooth="yes"/>
      <point x="184" y="618"/>
      <point x="184" y="620"/>
      <point x="186" y="620" type="curve" smooth="yes"/>
      <point x="188" y="620"/>
      <point x="189" y="619"/>
      <point x="191" y="617" type="curve" smooth="yes"/>
      <point x="569" y="193" type="line"/>
      <point x="569" y="90" type="line"/>
      <point x="579" y="90" type="line"/>
      <point x="579" y="630" type="line"/>
      <point x="569" y="630" type="line"/>
      <point x="569" y="208" type="line"/>
    </contour>
    <contour>
      <point x="684" y="225" type="move"/>
      <point x="684" y="36" type="line" smooth="yes"/>
      <point x="684" y="11"/>
      <point x="673" y="0"/>
      <point x="648" y="0" type="curve" smooth="yes"/>
      <point x="498" y="0" type="line" smooth="yes"/>
      <point x="473" y="0"/>
      <point x="462" y="11"/>
      <point x="462" y="36" type="curve" smooth="yes"/>
      <point x="462" y="159" type="line"/>
      <point x="291" y="366" type="line"/>
      <point x="291" y="36" type="line" smooth="yes"/>
      <point x="291" y="11"/>
      <point x="280" y="0"/>
      <point x="255" y="0" type="curve" smooth="yes"/>
      <point x="105" y="0" type="line" smooth="yes"/>
      <point x="80" y="0"/>
      <point x="69" y="11"/>
      <point x="69" y="36" type="curve" smooth="yes"/>
      <point x="69" y="235" type="line"/>
      <point x="56" y="235" type="line"/>
      <point x="31" y="235"/>
      <point x="20" y="245"/>
      <point x="20" y="271" type="curve" smooth="yes"/>
      <point x="20" y="298" type="line" smooth="yes"/>
      <point x="20" y="323"/>
      <point x="31" y="334"/>
      <point x="56" y="334" type="curve" smooth="yes"/>
      <point x="69" y="334" type="line"/>
      <point x="69" y="375" type="line"/>
      <point x="56" y="375" type="line"/>
      <point x="31" y="375"/>
      <point x="20" y="385"/>
      <point x="20" y="411" type="curve" smooth="yes"/>
      <point x="20" y="438" type="line" smooth="yes"/>
      <point x="20" y="463"/>
      <point x="31" y="474"/>
      <point x="56" y="474" type="curve" smooth="yes"/>
      <point x="69" y="474" type="line"/>
      <point x="69" y="684" type="line" smooth="yes"/>
      <point x="69" y="709"/>
      <point x="80" y="720"/>
      <point x="105" y="720" type="curve" smooth="yes"/>
      <point x="209" y="720" type="line" smooth="yes"/>
      <point x="235" y="720"/>
      <point x="251" y="713"/>
      <point x="268" y="693" type="curve" smooth="yes"/>
      <point x="462" y="471" type="line"/>
      <point x="462" y="684" type="line" smooth="yes"/>
      <point x="462" y="709"/>
      <point x="473" y="720"/>
      <point x="498" y="720" type="curve" smooth="yes"/>
      <point x="648" y="720" type="line" smooth="yes"/>
      <point x="673" y="720"/>
      <point x="684" y="709"/>
      <point x="684" y="684" type="curve" smooth="yes"/>
      <point x="684" y="484" type="line"/>
    </contour>
    <contour>
      <point x="694" y="484" type="line"/>
      <point x="694" y="684" type="line" smooth="yes"/>
      <point x="694" y="716"/>
      <point x="680" y="730"/>
      <point x="648" y="730" type="curve" smooth="yes"/>
      <point x="498" y="730" type="line" smooth="yes"/>
      <point x="466" y="730"/>
      <point x="452" y="716"/>
      <point x="452" y="684" type="curve" smooth="yes"/>
      <point x="452" y="499" type="line"/>
      <point x="276" y="700" type="line" smooth="yes"/>
      <point x="256" y="722"/>
      <point x="238" y="730"/>
      <point x="209" y="730" type="curve" smooth="yes"/>
      <point x="105" y="730" type="line" smooth="yes"/>
      <point x="73" y="730"/>
      <point x="59" y="716"/>
      <point x="59" y="684" type="curve" smooth="yes"/>
      <point x="59" y="484" type="line"/>
      <point x="56" y="484" type="line" smooth="yes"/>
      <point x="24" y="484"/>
      <point x="10" y="470"/>
      <point x="10" y="438" type="curve" smooth="yes"/>
      <point x="10" y="411" type="line"/>
      <point x="10" y="378"/>
      <point x="24" y="365"/>
      <point x="56" y="365" type="curve" smooth="yes"/>
      <point x="59" y="365" type="line"/>
      <point x="59" y="344" type="line"/>
      <point x="56" y="344" type="line" smooth="yes"/>
      <point x="24" y="344"/>
      <point x="10" y="330"/>
      <point x="10" y="298" type="curve" smooth="yes"/>
      <point x="10" y="271" type="line"/>
      <point x="10" y="238"/>
      <point x="24" y="225"/>
      <point x="56" y="225" type="curve" smooth="yes"/>
      <point x="59" y="225" type="line"/>
      <point x="59" y="36" type="line" smooth="yes"/>
      <point x="59" y="4"/>
      <point x="73" y="-10"/>
      <point x="105" y="-10" type="curve" smooth="yes"/>
      <point x="255" y="-10" type="line" smooth="yes"/>
      <point x="287" y="-10"/>
      <point x="301" y="4"/>
      <point x="301" y="36" type="curve" smooth="yes"/>
      <point x="301" y="338" type="line"/>
      <point x="452" y="155" type="line"/>
      <point x="452" y="36" type="line" smooth="yes"/>
      <point x="452" y="4"/>
      <point x="466" y="-10"/>
      <point x="498" y="-10" type="curve" smooth="yes"/>
      <point x="648" y="-10" type="line" smooth="yes"/>
      <point x="680" y="-10"/>
      <point x="694" y="4"/>
      <point x="694" y="36" type="curve" smooth="yes"/>
      <point x="694" y="225" type="line"/>
      <point x="697" y="225" type="line" smooth="yes"/>
      <point x="729" y="225"/>
      <point x="743" y="238"/>
      <point x="743" y="271" type="curve"/>
      <point x="743" y="298" type="line" smooth="yes"/>
      <point x="743" y="330"/>
      <point x="729" y="344"/>
      <point x="697" y="344" type="curve" smooth="yes"/>
      <point x="694" y="344" type="line"/>
      <point x="694" y="365" type="line"/>
      <point x="697" y="365" type="line" smooth="yes"/>
      <point x="729" y="365"/>
      <point x="743" y="378"/>
      <point x="743" y="411" type="curve"/>
      <point x="743" y="438" type="line" smooth="yes"/>
      <point x="743" y="470"/>
      <point x="729" y="484"/>
      <point x="697" y="484" type="curve" smooth="yes"/>
    </contour>
    <contour>
      <point x="684" y="474" type="move"/>
      <point x="697" y="474" type="line" smooth="yes"/>
      <point x="722" y="474"/>
      <point x="733" y="463"/>
      <point x="733" y="438" type="curve" smooth="yes"/>
      <point x="733" y="411" type="line" smooth="yes"/>
      <point x="733" y="385"/>
      <point x="722" y="375"/>
      <point x="697" y="375" type="curve"/>
      <point x="684" y="375" type="line"/>
      <point x="684" y="334" type="line"/>
      <point x="697" y="334" type="line" smooth="yes"/>
      <point x="722" y="334"/>
      <point x="733" y="323"/>
      <point x="733" y="298" type="curve" smooth="yes"/>
      <point x="733" y="271" type="line" smooth="yes"/>
      <point x="733" y="245"/>
      <point x="722" y="235"/>
      <point x="697" y="235" type="curve"/>
      <point x="684" y="235" type="line"/>
    </contour>
  </outline>
</glyph>
